<?xml version="1.0" encoding="UTF-8"?>
<svg xmlns="http://www.w3.org/2000/svg">
  <defs>

    <symbol id="svg-spiral-big" viewBox="0 0 652 652">
      <style>#svg-spiral-big{fill:none;stroke:#50c6fc;stroke-linecap:round;stroke-linejoin:round;stroke-width:6px;}</style><path id="Path_5681" d="m4.07,325.59c0-126.97,73.6-236.74,180.46-289"/><path id="Path_5682" d="m571.53,532.68c-61.03,72.63-151.08,114.52-245.95,114.42-141.17,0-261.1-90.99-304.32-217.52"/><path id="Path_5683" d="m325.58,4.07c177.57,0,321.51,143.95,321.51,321.51"/><path id="Path_5684" d="m134.44,542.31C52.63,470.07,15.47,354.33,48.77,242.89"/><path id="Path_5685" d="m523.91,115.42c76.78,72.57,110.8,184.74,78.49,292.87-45.67,152.88-206.63,239.79-359.52,194.12"/><path id="Path_5686" d="m101.82,142.72C173.43,55.17,293.15,14.37,408.29,48.77"/><path id="Path_5687" d="m291.77,579.68c-140.36-18.72-238.96-147.67-220.24-288.03,6.02-45.11,23.93-87.81,51.9-123.7"/><path id="Path_5688" d="m581.72,336.35c-4.05,94.77-60.77,183.6-153.55,224.12"/><path id="Path_5689" d="m223.01,90.71c129.72-56.65,280.8,2.58,337.45,132.3"/><path id="Path_5690" d="m157.01,472.66c-81.22-93.13-71.56-234.48,21.57-315.7,24.96-21.77,54.45-37.73,86.33-46.72"/><path id="Path_5691" d="m389.62,111.26c118.37,35.36,185.66,159.99,150.3,278.36s-159.99,185.66-278.36,150.29"/><path id="Path_5692" d="m259.93,505.04c-99.11-36.26-150.06-146.01-113.8-245.12,3.48-9.52,7.72-18.74,12.66-27.58"/><path id="Path_5693" d="m249.11,150.48c96.71-42.24,209.35,1.92,251.59,98.63s-1.92,209.35-98.63,251.59"/><path id="Path_5694" d="m167.11,325.59c0-87.52,70.94-158.47,158.47-158.48h0"/><path id="Path_5695" d="m426.39,203.3c67.53,55.68,77.14,155.56,21.47,223.09-55.68,67.53-155.56,77.14-223.09,21.47-10.41-8.59-19.69-18.47-27.6-29.4"/><path id="Path_5696" d="m340.83,450.52c-69,8.42-131.76-40.69-140.18-109.69-4.01-32.84,5.08-65.93,25.28-92.12"/><path id="Path_5697" d="m310.34,200.65c69-8.42,131.77,40.69,140.19,109.69,3.66,30.01-3.6,60.34-20.46,85.44"/><path id="Path_5698" d="m232.33,325.59c0-51.5,41.75-93.25,93.25-93.25"/><path id="Path_5699" d="m398.57,267.53c32.06,40.31,25.37,98.98-14.95,131.04-33.9,26.96-81.9,27.03-115.88.17"/><path id="Path_5700" d="m301.31,270.01c30.69-13.41,66.45.61,79.85,31.31s-.61,66.45-31.31,79.85c-30.69,13.41-66.45-.61-79.85-31.31,0,0,0,0,0,0"/><path id="Path_5701" d="m317.56,352.45c-14.84-4.43-23.27-20.05-18.84-34.89s20.05-23.27,34.89-18.84c14.84,4.43,23.27,20.05,18.84,34.89,0,0,0,0,0,0"/>
    </symbol>

    <symbol id="svg-bars" viewBox="0 0 569.88 870.6" stroke="url(#grad-2blue)">
      <defs><style>.cls-1{fill:none;stroke:#50c6fc;stroke-miterlimit:10;stroke-width:10px;}</style></defs><g><line class="cls-1" x1="5" x2="5" y2="870.6"/><line class="cls-1" x1="564.88" y1="870.6" x2="564.88"/></g><g><line class="cls-1" x1="55.28" x2="55.28" y2="870.6"/><line class="cls-1" x1="514.6" y1="870.6" x2="514.6"/></g><g><line class="cls-1" x1="105.56" x2="105.56" y2="870.6"/><line class="cls-1" x1="464.32" y1="870.6" x2="464.32"/></g><g><line class="cls-1" x1="155.84" x2="155.84" y2="870.6"/><line class="cls-1" x1="414.04" y1="870.6" x2="414.04"/></g><g><line class="cls-1" x1="206.12" x2="206.12" y2="870.6"/><line class="cls-1" x1="363.76" y1="870.6" x2="363.76"/></g><g><line class="cls-1" x1="256.4" x2="256.4" y2="870.6"/><line class="cls-1" x1="313.48" y1="870.6" x2="313.48"/></g>
    </symbol>

    <symbol id="svg-circuit" viewBox="0 0 599.52 870.6">
      <defs>
        <style>
          .cls-1 {
            fill: #50c6fc;
          }

          .cls-2 {
            fill: none;
            stroke: #50c6fc;
            stroke-miterlimit: 10;
            stroke-width: 10px;
          }
        </style>
      </defs>
      <polyline class="cls-2" points="188.48 870.6 188.48 828.28 134.63 792.95 134.63 671.27"/>
      <g>
        <circle class="cls-2" cx="99.94" cy="61.28" r="34.11"/>
        <path class="cls-1" d="m81.07,79.11c-10.13-10.13-10.13-26.54,0-36.67s26.54-10.13,36.67,0l-36.67,36.67Z"/>
      </g>
      <circle class="cls-2" cx="466.11" cy="765.5" r="34.11"/>
      <path class="cls-1" d="m447.25,783.33c-10.13-10.13-10.13-26.54,0-36.67s26.54-10.13,36.67,0l-36.67,36.67Z"/>
      <line class="cls-2" x1="134.61" y1="149.62" x2="134.61" y2="581.83"/>
      <line class="cls-2" x1="188.48" y1="250.45" x2="188.48" y2="870.6"/>
      <line class="cls-2" x1="242.55" y1="530.38" x2="242.55" y2="869.6"/>
      <line class="cls-2" x1="568.05" x2="568.05" y2="321.33"/>
      <circle class="cls-1" cx="134.55" cy="671.27" r="13.74"/>
      <circle class="cls-1" cx="134.61" cy="149.62" r="13.74"/>
      <line class="cls-2" x1="28.3" y1="590.38" x2="28.3" y2="869.6"/>
      <circle class="cls-1" cx="28.3" cy="590.38" r="13.74"/>
      <polyline class="cls-2" points="28.3 .06 28.3 130.57 80.63 165.9 80.63 395.38"/>
      <polyline class="cls-2" points="28.3 208.51 28.3 445.5 80.63 548.65 80.63 870.6"/>
      <circle class="cls-1" cx="80.63" cy="395.38" r="13.74"/>
      <circle class="cls-2" cx="134.61" cy="599.05" r="17.22"/>
      <circle class="cls-2" cx="28.3" cy="195.72" r="17.22"/>
      <circle class="cls-2" cx="568.05" cy="338.56" r="17.22"/>
      <line class="cls-2" x1="459.22" x2="459.22" y2="155.18"/>
      <circle class="cls-2" cx="459.86" cy="172.4" r="17.22"/>
      <line class="cls-2" x1="242.55" y1=".06" x2="242.55" y2="392.12"/>
      <circle class="cls-2" cx="242.55" cy="409.34" r="17.22"/>
      <line class="cls-2" x1="296.63" y1="869.6" x2="296.63" y2="670.48"/>
      <circle class="cls-2" cx="296.63" cy="653.25" r="17.22"/>
      <circle class="cls-2" cx="188.48" cy="233.23" r="17.22"/>
      <circle class="cls-1" cx="242.55" cy="532.12" r="13.74"/>
      <polyline class="cls-2" points="459.86 597.62 459.86 254.32 405.14 218.98 405.14 0"/>
      <line class="cls-2" x1="405.14" y1="869.6" x2="405.14" y2="49.83"/>
      <line class="cls-2" x1="351.07" y1="213.41" x2="351.07"/>
      <circle class="cls-1" cx="459.22" cy="597.48" r="13.74"/>
      <polyline class="cls-2" points="568.05 869.6 568.05 747.55 513.94 712.21 513.94 482.74"/>
      <polyline class="cls-2" points="567.95 669.06 567.95 432.07 513.3 328.92 513.3 -.48"/>
      <circle class="cls-1" cx="513.94" cy="482.74" r="13.74"/>
      <circle class="cls-2" cx="567.95" cy="685.01" r="17.22"/>
      <polyline class="cls-2" points="350.71 869.6 350.71 500.41 296.63 465.07 296.63 .06"/>
      <circle class="cls-1" cx="351.07" cy="215.91" r="13.74"/>
      <path class="cls-1" d="m350.71,298.26c-12.74,0-23.07,10.33-23.07,23.07s10.33,23.07,23.07,23.07,23.07-10.33,23.07-23.07-10.33-23.07-23.07-23.07Zm12.8,35.86c-7.07,7.07-18.53,7.07-25.59,0l25.59-25.59c7.07,7.07,7.07,18.53,0,25.59Z"/>
    </symbol>

    <symbol id="svg-cyber-clip" viewBox="0 0 630.42 1696.89">
      <defs>
        <style>
          .cls-1 {
            fill: #50c6fc;
          }

          .cls-2 {
            fill: none;
            stroke: #50c6fc;
            stroke-miterlimit: 10;
            stroke-width: 10px;
          }
        </style>
      </defs>
      <circle class="cls-2" cx="345.18" cy="1320.89" r="17.22"/>
      <circle class="cls-2" cx="316.64" cy="1544.36" r="17.22"/>
      <circle class="cls-2" cx="425.34" cy="1485.09" r="17.22"/>
      <circle class="cls-2" cx="496.02" cy="1379.13" r="17.22"/>
      <circle class="cls-2" cx="496.02" cy="1023.47" r="17.22"/>
      <circle class="cls-2" cx="546.3" cy="1256.22" r="17.22"/>
      <circle class="cls-2" cx="137.27" cy="1327.37" r="17.22"/>
      <circle class="cls-2" cx="111.8" cy="1605.37" r="17.22"/>
      <circle class="cls-2" cx="485.59" cy="1638.38" r="17.22"/>
      <circle class="cls-2" cx="345.18" cy="1174.33" r="17.22"/>
      <circle class="cls-2" cx="137.27" cy="422.28" r="17.22"/>
      <circle class="cls-2" cx="227.61" cy="260.55" r="17.22"/>
      <circle class="cls-2" cx="86.99" cy="815.55" r="17.22"/>
      <circle class="cls-2" cx="495.49" cy="342.02" r="17.22"/>
      <circle class="cls-2" cx="360.35" cy="76.8" r="17.22"/>
      <circle class="cls-2" cx="205.79" cy="154.43" r="17.22"/>
      <circle class="cls-2" cx="237.83" cy="652.18" r="17.22"/>
      <circle class="cls-2" cx="445.74" cy="564.56" r="17.22"/>
      <path class="cls-2" d="m343.26,74.65c-8.76-.83-17.64-1.25-26.62-1.25-154.36,0-279.94,125.58-279.94,279.94v1062.58c0,67.08,23.72,128.73,63.21,176.99m399.36,35.01c59.56-51.37,97.31-127.36,97.31-212V353.34c0-133.44-93.85-245.38-219.01-273.26"/>
      <path class="cls-2" d="m86.99,1268.08v147.84c0,126.63,103.02,229.66,229.66,229.66s229.66-103.03,229.66-229.66v-142.48M86.99,832.77v435.3m0-595.1v125.35M188.56,162.79c-61.23,41.29-101.58,111.3-101.58,190.55v319.64m459.32,566.02V353.34c0-96.29-59.57-178.94-143.8-213.01"/>
      <path class="cls-2" d="m137.27,1344.59v71.33c0,98.91,80.47,179.38,179.38,179.38s179.38-80.47,179.38-179.38v-19.56M137.27,439.5v870.64M430.62,214.92c-31.01-25.58-70.73-40.97-113.98-40.97-98.91,0-179.38,80.47-179.38,179.38v51.72m358.76,601.16V360.22"/>
      <path class="cls-2" d="m217.06,271.26c-18.43,22.33-29.52,50.93-29.52,82.07v1062.58c0,65.34,48.8,119.51,111.87,127.95M445.74,411.28v-57.94c0-71.19-57.91-129.1-129.1-129.1-28.45,0-54.78,9.25-76.14,24.9m193.31,1220.96c7.65-16.48,11.93-34.84,11.93-54.18v-834.13"/>
      <path class="cls-2" d="m237.83,669.4v746.52c0,43.46,35.36,78.82,78.82,78.82s78.82-35.36,78.82-78.82V353.34c0-43.46-35.36-78.82-78.82-78.82s-78.82,35.36-78.82,78.82v281.62"/>
      <path class="cls-2" d="m345.18,1158.48V353.34c0-15.74-12.8-28.54-28.54-28.54s-28.54,12.8-28.54,28.54v1062.58c0,15.74,12.8,28.54,28.54,28.54s28.54-12.8,28.54-28.54v-77.65"/>
      <circle class="cls-1" cx="496.02" cy="690.65" r="13.74"/>
      <circle class="cls-1" cx="506.08" cy="1545.83" r="13.74"/>
      <circle class="cls-1" cx="316.64" cy="1494.74" r="13.74"/>
      <circle class="cls-1" cx="201.29" cy="1554.57" r="13.74"/>
      <circle class="cls-1" cx="137.27" cy="1005.2" r="13.74"/>
      <circle class="cls-1" cx="36.7" cy="1361.91" r="13.74"/>
      <circle class="cls-1" cx="187.55" cy="1113.87" r="13.74"/>
      <circle class="cls-1" cx="316.64" cy="274.51" r="13.74"/>
      <circle class="cls-1" cx="445.74" cy="411.28" r="13.74"/>
      <circle class="cls-1" cx="429.84" cy="215.87" r="13.74"/>
      <circle class="cls-1" cx="402.35" cy="140.69" r="13.74"/>
      <circle class="cls-1" cx="86.99" cy="342.02" r="13.74"/>
      <circle class="cls-1" cx="596.58" cy="405.05" r="13.74"/>
    </symbol>

    <symbol id="svg-paperclip" viewBox="0 0 569.88 1632.46">
      <defs><style>.cls-1{fill:none;stroke:#50c6fc;stroke-miterlimit:10;stroke-width:10px;}</style></defs><path class="cls-1" d="m284.94,5C130.58,5,5,130.58,5,284.94v1062.58c0,154.36,125.58,279.94,279.94,279.94s279.94-125.58,279.94-279.94V284.94c0-154.36-125.58-279.94-279.94-279.94Z"/><path class="cls-1" d="m284.94,55.28c-126.63,0-229.66,103.03-229.66,229.66v1062.58c0,126.63,103.02,229.66,229.66,229.66,126.63,0,229.66-103.03,229.66-229.66V284.94c0-126.63-103.02-229.66-229.66-229.66Z"/><path class="cls-1" d="m284.94,105.56c-98.91,0-179.38,80.47-179.38,179.38v1062.58c0,98.91,80.47,179.38,179.38,179.38s179.38-80.47,179.38-179.38V284.94c0-98.91-80.47-179.38-179.38-179.38Z"/><path class="cls-1" d="m284.94,155.84c-71.18,0-129.1,57.91-129.1,129.1v1062.58c0,71.19,57.91,129.1,129.1,129.1s129.1-57.91,129.1-129.1V284.94c0-71.18-57.91-129.1-129.1-129.1Z"/><path class="cls-1" d="m284.94,206.12c-43.46,0-78.82,35.36-78.82,78.82v1062.58c0,43.46,35.36,78.82,78.82,78.82s78.82-35.36,78.82-78.82V284.94c0-43.46-35.36-78.82-78.82-78.82Z"/><path class="cls-1" d="m284.94,256.4c-15.73,0-28.54,12.8-28.54,28.54v1062.58c0,15.74,12.8,28.54,28.54,28.54s28.54-12.8,28.54-28.54V284.94c0-15.74-12.8-28.54-28.54-28.54Z"/>
    </symbol>

  </defs>
</svg>
