<?xml version="1.0" encoding="UTF-8"?>
<svg xmlns="http://www.w3.org/2000/svg">
  <defs>

    <symbol id="svg-spiral-big" viewBox="0 0 652 652">
      <style>#svg-spiral-big{fill:none;stroke:#50c6fc;stroke-linecap:round;stroke-linejoin:round;stroke-width:6px;}</style><path id="Path_5681" d="m4.07,325.59c0-126.97,73.6-236.74,180.46-289"/><path id="Path_5682" d="m571.53,532.68c-61.03,72.63-151.08,114.52-245.95,114.42-141.17,0-261.1-90.99-304.32-217.52"/><path id="Path_5683" d="m325.58,4.07c177.57,0,321.51,143.95,321.51,321.51"/><path id="Path_5684" d="m134.44,542.31C52.63,470.07,15.47,354.33,48.77,242.89"/><path id="Path_5685" d="m523.91,115.42c76.78,72.57,110.8,184.74,78.49,292.87-45.67,152.88-206.63,239.79-359.52,194.12"/><path id="Path_5686" d="m101.82,142.72C173.43,55.17,293.15,14.37,408.29,48.77"/><path id="Path_5687" d="m291.77,579.68c-140.36-18.72-238.96-147.67-220.24-288.03,6.02-45.11,23.93-87.81,51.9-123.7"/><path id="Path_5688" d="m581.72,336.35c-4.05,94.77-60.77,183.6-153.55,224.12"/><path id="Path_5689" d="m223.01,90.71c129.72-56.65,280.8,2.58,337.45,132.3"/><path id="Path_5690" d="m157.01,472.66c-81.22-93.13-71.56-234.48,21.57-315.7,24.96-21.77,54.45-37.73,86.33-46.72"/><path id="Path_5691" d="m389.62,111.26c118.37,35.36,185.66,159.99,150.3,278.36s-159.99,185.66-278.36,150.29"/><path id="Path_5692" d="m259.93,505.04c-99.11-36.26-150.06-146.01-113.8-245.12,3.48-9.52,7.72-18.74,12.66-27.58"/><path id="Path_5693" d="m249.11,150.48c96.71-42.24,209.35,1.92,251.59,98.63s-1.92,209.35-98.63,251.59"/><path id="Path_5694" d="m167.11,325.59c0-87.52,70.94-158.47,158.47-158.48h0"/><path id="Path_5695" d="m426.39,203.3c67.53,55.68,77.14,155.56,21.47,223.09-55.68,67.53-155.56,77.14-223.09,21.47-10.41-8.59-19.69-18.47-27.6-29.4"/><path id="Path_5696" d="m340.83,450.52c-69,8.42-131.76-40.69-140.18-109.69-4.01-32.84,5.08-65.93,25.28-92.12"/><path id="Path_5697" d="m310.34,200.65c69-8.42,131.77,40.69,140.19,109.69,3.66,30.01-3.6,60.34-20.46,85.44"/><path id="Path_5698" d="m232.33,325.59c0-51.5,41.75-93.25,93.25-93.25"/><path id="Path_5699" d="m398.57,267.53c32.06,40.31,25.37,98.98-14.95,131.04-33.9,26.96-81.9,27.03-115.88.17"/><path id="Path_5700" d="m301.31,270.01c30.69-13.41,66.45.61,79.85,31.31s-.61,66.45-31.31,79.85c-30.69,13.41-66.45-.61-79.85-31.31,0,0,0,0,0,0"/><path id="Path_5701" d="m317.56,352.45c-14.84-4.43-23.27-20.05-18.84-34.89s20.05-23.27,34.89-18.84c14.84,4.43,23.27,20.05,18.84,34.89,0,0,0,0,0,0"/>
    </symbol>

    <symbol id="svg-bars" viewBox="0 0 569.88 870.6">
      <defs><style>.cls-1{fill:none;stroke:#50c6fc;stroke-miterlimit:10;stroke-width:10px;}</style></defs><g><line class="cls-1" x1="5" x2="5" y2="870.6"/><line class="cls-1" x1="564.88" y1="870.6" x2="564.88"/></g><g><line class="cls-1" x1="55.28" x2="55.28" y2="870.6"/><line class="cls-1" x1="514.6" y1="870.6" x2="514.6"/></g><g><line class="cls-1" x1="105.56" x2="105.56" y2="870.6"/><line class="cls-1" x1="464.32" y1="870.6" x2="464.32"/></g><g><line class="cls-1" x1="155.84" x2="155.84" y2="870.6"/><line class="cls-1" x1="414.04" y1="870.6" x2="414.04"/></g><g><line class="cls-1" x1="206.12" x2="206.12" y2="870.6"/><line class="cls-1" x1="363.76" y1="870.6" x2="363.76"/></g><g><line class="cls-1" x1="256.4" x2="256.4" y2="870.6"/><line class="cls-1" x1="313.48" y1="870.6" x2="313.48"/></g>
    </symbol>

    <symbol id="svg-cyber-clip" viewBox="0 0 630.42 1696.89">
      <defs>
        <style>
          .cls-1 {
            fill: #50c6fc;
          }

          .cls-2 {
            fill: none;
            stroke: #50c6fc;
            stroke-miterlimit: 10;
            stroke-width: 10px;
          }
        </style>
      </defs>
      <circle class="cls-2" cx="345.18" cy="1320.89" r="17.22"/>
      <circle class="cls-2" cx="316.64" cy="1544.36" r="17.22"/>
      <circle class="cls-2" cx="425.34" cy="1485.09" r="17.22"/>
      <circle class="cls-2" cx="496.02" cy="1379.13" r="17.22"/>
      <circle class="cls-2" cx="496.02" cy="1023.47" r="17.22"/>
      <circle class="cls-2" cx="546.3" cy="1256.22" r="17.22"/>
      <circle class="cls-2" cx="137.27" cy="1327.37" r="17.22"/>
      <circle class="cls-2" cx="111.8" cy="1605.37" r="17.22"/>
      <circle class="cls-2" cx="485.59" cy="1638.38" r="17.22"/>
      <circle class="cls-2" cx="345.18" cy="1174.33" r="17.22"/>
      <circle class="cls-2" cx="137.27" cy="422.28" r="17.22"/>
      <circle class="cls-2" cx="227.61" cy="260.55" r="17.22"/>
      <circle class="cls-2" cx="86.99" cy="815.55" r="17.22"/>
      <circle class="cls-2" cx="495.49" cy="342.02" r="17.22"/>
      <circle class="cls-2" cx="360.35" cy="76.8" r="17.22"/>
      <circle class="cls-2" cx="205.79" cy="154.43" r="17.22"/>
      <circle class="cls-2" cx="237.83" cy="652.18" r="17.22"/>
      <circle class="cls-2" cx="445.74" cy="564.56" r="17.22"/>
      <path class="cls-2" d="m343.26,74.65c-8.76-.83-17.64-1.25-26.62-1.25-154.36,0-279.94,125.58-279.94,279.94v1062.58c0,67.08,23.72,128.73,63.21,176.99m399.36,35.01c59.56-51.37,97.31-127.36,97.31-212V353.34c0-133.44-93.85-245.38-219.01-273.26"/>
      <path class="cls-2" d="m86.99,1268.08v147.84c0,126.63,103.02,229.66,229.66,229.66s229.66-103.03,229.66-229.66v-142.48M86.99,832.77v435.3m0-595.1v125.35M188.56,162.79c-61.23,41.29-101.58,111.3-101.58,190.55v319.64m459.32,566.02V353.34c0-96.29-59.57-178.94-143.8-213.01"/>
      <path class="cls-2" d="m137.27,1344.59v71.33c0,98.91,80.47,179.38,179.38,179.38s179.38-80.47,179.38-179.38v-19.56M137.27,439.5v870.64M430.62,214.92c-31.01-25.58-70.73-40.97-113.98-40.97-98.91,0-179.38,80.47-179.38,179.38v51.72m358.76,601.16V360.22"/>
      <path class="cls-2" d="m217.06,271.26c-18.43,22.33-29.52,50.93-29.52,82.07v1062.58c0,65.34,48.8,119.51,111.87,127.95M445.74,411.28v-57.94c0-71.19-57.91-129.1-129.1-129.1-28.45,0-54.78,9.25-76.14,24.9m193.31,1220.96c7.65-16.48,11.93-34.84,11.93-54.18v-834.13"/>
      <path class="cls-2" d="m237.83,669.4v746.52c0,43.46,35.36,78.82,78.82,78.82s78.82-35.36,78.82-78.82V353.34c0-43.46-35.36-78.82-78.82-78.82s-78.82,35.36-78.82,78.82v281.62"/>
      <path class="cls-2" d="m345.18,1158.48V353.34c0-15.74-12.8-28.54-28.54-28.54s-28.54,12.8-28.54,28.54v1062.58c0,15.74,12.8,28.54,28.54,28.54s28.54-12.8,28.54-28.54v-77.65"/>
      <circle class="cls-1" cx="496.02" cy="690.65" r="13.74"/>
      <circle class="cls-1" cx="506.08" cy="1545.83" r="13.74"/>
      <circle class="cls-1" cx="316.64" cy="1494.74" r="13.74"/>
      <circle class="cls-1" cx="201.29" cy="1554.57" r="13.74"/>
      <circle class="cls-1" cx="137.27" cy="1005.2" r="13.74"/>
      <circle class="cls-1" cx="36.7" cy="1361.91" r="13.74"/>
      <circle class="cls-1" cx="187.55" cy="1113.87" r="13.74"/>
      <circle class="cls-1" cx="316.64" cy="274.51" r="13.74"/>
      <circle class="cls-1" cx="445.74" cy="411.28" r="13.74"/>
      <circle class="cls-1" cx="429.84" cy="215.87" r="13.74"/>
      <circle class="cls-1" cx="402.35" cy="140.69" r="13.74"/>
      <circle class="cls-1" cx="86.99" cy="342.02" r="13.74"/>
      <circle class="cls-1" cx="596.58" cy="405.05" r="13.74"/>
    </symbol>

    <symbol id="svg-paperclip" viewBox="0 0 569.88 1632.46">
      <defs><style>.cls-1{fill:none;stroke:#50c6fc;stroke-miterlimit:10;stroke-width:10px;}</style></defs><path class="cls-1" d="m284.94,5C130.58,5,5,130.58,5,284.94v1062.58c0,154.36,125.58,279.94,279.94,279.94s279.94-125.58,279.94-279.94V284.94c0-154.36-125.58-279.94-279.94-279.94Z"/><path class="cls-1" d="m284.94,55.28c-126.63,0-229.66,103.03-229.66,229.66v1062.58c0,126.63,103.02,229.66,229.66,229.66,126.63,0,229.66-103.03,229.66-229.66V284.94c0-126.63-103.02-229.66-229.66-229.66Z"/><path class="cls-1" d="m284.94,105.56c-98.91,0-179.38,80.47-179.38,179.38v1062.58c0,98.91,80.47,179.38,179.38,179.38s179.38-80.47,179.38-179.38V284.94c0-98.91-80.47-179.38-179.38-179.38Z"/><path class="cls-1" d="m284.94,155.84c-71.18,0-129.1,57.91-129.1,129.1v1062.58c0,71.19,57.91,129.1,129.1,129.1s129.1-57.91,129.1-129.1V284.94c0-71.18-57.91-129.1-129.1-129.1Z"/><path class="cls-1" d="m284.94,206.12c-43.46,0-78.82,35.36-78.82,78.82v1062.58c0,43.46,35.36,78.82,78.82,78.82s78.82-35.36,78.82-78.82V284.94c0-43.46-35.36-78.82-78.82-78.82Z"/><path class="cls-1" d="m284.94,256.4c-15.73,0-28.54,12.8-28.54,28.54v1062.58c0,15.74,12.8,28.54,28.54,28.54s28.54-12.8,28.54-28.54V284.94c0-15.74-12.8-28.54-28.54-28.54Z"/>
    </symbol>

    <symbol id="svg-cyber-clip-dots" viewBox="0 0 642.95 1664.56">
      <defs>
        <style>
          .cls-1 {
            fill: #50c6fc;
          }
        </style>
      </defs>
      <circle class="cls-1" cx="499.48" cy="664.41" r="13.74"/>
      <circle class="cls-1" cx="509.53" cy="1519.59" r="13.74"/>
      <circle class="cls-1" cx="320.1" cy="1468.5" r="13.74"/>
      <circle class="cls-1" cx="204.75" cy="1528.33" r="13.74"/>
      <circle class="cls-1" cx="140.72" cy="978.96" r="13.74"/>
      <circle class="cls-1" cx="40.16" cy="1335.67" r="13.74"/>
      <circle class="cls-1" cx="191" cy="1087.62" r="13.74"/>
      <circle class="cls-1" cx="320.1" cy="248.27" r="13.74"/>
      <circle class="cls-1" cx="449.2" cy="385.04" r="13.74"/>
      <circle class="cls-1" cx="433.3" cy="189.63" r="13.74"/>
      <circle class="cls-1" cx="405.81" cy="114.45" r="13.74"/>
      <circle class="cls-1" cx="90.44" cy="315.78" r="13.74"/>
      <circle class="cls-1" cx="600.04" cy="378.81" r="13.74"/>
    </symbol>

    <symbol id="svg-cyber-clip-ol" viewBox="0 0 642.95 1664.56">
      <defs>
        <style>
          .cls-1 {
            fill: #50c6fc;
          }
        </style>
      </defs>
      <path class="cls-1" d="m527.71,315.78c0-12.25-9.97-22.22-22.22-22.22s-22.22,9.97-22.22,22.22c0,10.72,7.64,19.7,17.76,21.77v314.07c-5.11,2-8.74,6.97-8.74,12.79s3.63,10.79,8.74,12.79v298.38c-9.85,2.28-17.22,11.12-17.22,21.65,0,12.25,9.97,22.22,22.22,22.22s22.22-9.97,22.22-22.22c0-10.54-7.37-19.38-17.22-21.65v-298.38c5.11-2,8.74-6.97,8.74-12.79s-3.63-10.79-8.74-12.79v-314.31c9.59-2.46,16.69-11.18,16.69-21.53Zm-34.45,0c0-6.74,5.48-12.22,12.22-12.22s12.22,5.48,12.22,12.22-5.48,12.22-12.22,12.22-12.22-5.48-12.22-12.22Zm24.98,681.45c0,6.74-5.48,12.22-12.22,12.22s-12.22-5.48-12.22-12.22,5.48-12.22,12.22-12.22,12.22,5.48,12.22,12.22Z"/>
      <path class="cls-1" d="m512.44,1532.83c1.16.32,2.37.5,3.63.5,7.59,0,13.74-6.15,13.74-13.74,0-3.04-1-5.84-2.67-8.11,21.66-35.53,34.15-77.23,34.15-121.8v-138.05c9.85-2.28,17.22-11.12,17.22-21.65s-7.37-19.37-17.22-21.65V327.09c0-47.61-14.25-93.49-41.2-132.67-23.88-34.72-56.21-62.13-94.02-79.86,0-.04,0-.07,0-.11,0-7.59-6.15-13.74-13.74-13.74s-13.74,6.15-13.74,13.74,6.15,13.74,13.74,13.74c3.95,0,7.49-1.67,10-4.34,35.98,16.98,66.75,43.14,89.51,76.24,25.8,37.5,39.43,81.42,39.43,127v881.23c-9.85,2.28-17.22,11.12-17.22,21.65s7.37,19.38,17.22,21.65v138.05c0,42.59-11.91,82.45-32.58,116.43-.86-.17-1.74-.26-2.64-.26-7.59,0-13.74,6.15-13.74,13.74,0,2.67.77,5.16,2.09,7.27-41.12,53.17-105.52,87.48-177.79,87.48-123.88,0-224.66-100.78-224.66-224.66v-578.72c9.85-2.28,17.22-11.12,17.22-21.65s-7.37-19.38-17.22-21.65v-439.09c5.11-2,8.74-6.97,8.74-12.79,0-5.33-3.04-9.95-7.48-12.22,6.8-64.63,41.39-123.46,95.54-161.07,4.08,4.84,10.19,7.93,17,7.93,12.25,0,22.22-9.97,22.22-22.22s-9.97-22.22-22.22-22.22-22.22,9.97-22.22,22.22c0,1.82.22,3.59.64,5.28-57.22,39.26-93.79,101.1-100.93,169.08-5.78,1.62-10.03,6.92-10.03,13.22,0,5.82,3.63,10.79,8.74,12.79v439.09c-9.85,2.28-17.22,11.12-17.22,21.65s7.37,19.38,17.22,21.65v578.72c0,129.39,105.27,234.66,234.66,234.66,75.54,0,142.85-35.89,185.8-91.51Zm31.63-302.85c0-6.74,5.48-12.22,12.22-12.22s12.22,5.48,12.22,12.22-5.48,12.22-12.22,12.22-12.22-5.48-12.22-12.22ZM215.78,115.97c6.74,0,12.22,5.48,12.22,12.22s-5.48,12.22-12.22,12.22-12.22-5.48-12.22-12.22,5.48-12.22,12.22-12.22ZM84.76,789.31c0-6.74,5.48-12.22,12.22-12.22s12.22,5.48,12.22,12.22-5.48,12.22-12.22,12.22-12.22-5.48-12.22-12.22Z"/>
      <path class="cls-1" d="m326.64,192.99c-27.28,0-53.37,8.13-75.75,23.51-3.71-2.78-8.31-4.42-13.29-4.42-12.25,0-22.22,9.97-22.22,22.22,0,4.65,1.44,8.97,3.89,12.54-17.27,23.09-26.73,51.34-26.73,80.24v747.74c-5.11,2-8.74,6.97-8.74,12.79s3.63,10.79,8.74,12.79v289.26c0,65.55,47.96,121.72,112.21,132.3,1.83,10.42,10.94,18.36,21.88,18.36,12.25,0,22.22-9.97,22.22-22.22s-9.97-22.22-22.22-22.22c-10.11,0-18.65,6.78-21.34,16.04-58.91-10.25-102.76-61.96-102.76-122.25v-289.26c5.11-2,8.74-6.97,8.74-12.79s-3.63-10.79-8.74-12.79V327.09c0-26.41,8.53-52.23,24.14-73.44,3.23,1.83,6.95,2.88,10.92,2.88,12.25,0,22.22-9.97,22.22-22.22,0-3.65-.89-7.09-2.45-10.13,20.52-13.87,44.36-21.18,69.27-21.18,68.43,0,124.1,55.67,124.1,124.1v45.15c-5.11,2-8.74,6.97-8.74,12.79,0,7.59,6.15,13.74,13.74,13.74s13.74-6.15,13.74-13.74c0-5.82-3.63-10.79-8.74-12.79v-45.15c0-73.94-60.16-134.1-134.1-134.1Zm0,1312.9c6.74,0,12.22,5.48,12.22,12.22s-5.48,12.22-12.22,12.22-12.22-5.48-12.22-12.22,5.48-12.22,12.22-12.22ZM237.6,246.53c-6.74,0-12.22-5.48-12.22-12.22s5.48-12.22,12.22-12.22,12.22,5.48,12.22,12.22-5.48,12.22-12.22,12.22Z"/>
      <path class="cls-1" d="m460.74,559.97c9.85-2.28,17.22-11.11,17.22-21.65,0-12.25-9.97-22.22-22.22-22.22s-22.22,9.97-22.22,22.22c0,10.54,7.37,19.38,17.22,21.65v829.71c0,16.58-3.22,32.61-9.56,47.73-1.86-.51-3.82-.78-5.84-.78-12.25,0-22.22,9.97-22.22,22.22s9.97,22.22,22.22,22.22,22.22-9.97,22.22-22.22c0-6.63-2.92-12.59-7.54-16.66,7.11-16.62,10.72-34.26,10.72-52.51v-829.71Zm-25.4,911.1c-6.74,0-12.22-5.48-12.22-12.22s5.48-12.22,12.22-12.22,12.22,5.48,12.22,12.22-5.48,12.22-12.22,12.22Zm8.18-932.76c0-6.74,5.48-12.22,12.22-12.22s12.22,5.48,12.22,12.22-5.48,12.22-12.22,12.22-12.22-5.48-12.22-12.22Z"/>
      <path class="cls-1" d="m313.48,1472.45c1.7,5.66,6.94,9.78,13.16,9.78s11.46-4.12,13.16-9.78c39.99-6.33,70.66-41.04,70.66-82.77V327.09c0-41.74-30.67-76.45-70.66-82.78-1.7-5.66-6.94-9.78-13.16-9.78s-11.46,4.12-13.16,9.78c-39.99,6.33-70.66,41.04-70.66,82.78v277.19c-9.85,2.28-17.22,11.11-17.22,21.65s7.37,19.38,17.22,21.65v742.09c0,41.74,30.67,76.44,70.66,82.77Zm.83-1218.13c2.24,4.55,6.91,7.69,12.33,7.69s10.09-3.14,12.33-7.69c34.85,5.89,61.49,36.27,61.49,72.77v1062.58c0,36.5-26.64,66.88-61.49,72.77-2.24-4.55-6.91-7.69-12.33-7.69s-10.09,3.14-12.33,7.69c-34.85-5.89-61.49-36.27-61.49-72.77v-742.09c9.85-2.28,17.22-11.12,17.22-21.65s-7.37-19.38-17.22-21.65v-277.19c0-36.5,26.64-66.89,61.49-72.77Zm-78.72,371.61c0-6.74,5.48-12.22,12.22-12.22s12.22,5.48,12.22,12.22-5.48,12.22-12.22,12.22-12.22-5.48-12.22-12.22Z"/>
      <path class="cls-1" d="m326.64,1423.22c18.49,0,33.54-15.05,33.54-33.54v-73.37c9.85-2.28,17.22-11.12,17.22-21.65,0-12.25-9.97-22.22-22.22-22.22s-22.22,9.97-22.22,22.22c0,10.54,7.37,19.38,17.22,21.65v73.38c0,12.98-10.56,23.54-23.54,23.54s-23.54-10.56-23.54-23.54V327.09c0-12.98,10.56-23.54,23.54-23.54s23.54,10.56,23.54,23.54v799.34c-9.85,2.28-17.22,11.12-17.22,21.65,0,12.25,9.97,22.22,22.22,22.22s22.22-9.97,22.22-22.22c0-10.54-7.37-19.38-17.22-21.65V327.09c0-18.49-15.04-33.54-33.54-33.54s-33.54,15.05-33.54,33.54v1062.58c0,18.49,15.04,33.54,33.54,33.54Zm16.31-128.56c0-6.74,5.48-12.22,12.22-12.22s12.22,5.48,12.22,12.22-5.48,12.22-12.22,12.22-12.22-5.48-12.22-12.22Zm24.45-146.56c0,6.74-5.48,12.22-12.22,12.22s-12.22-5.48-12.22-12.22,5.48-12.22,12.22-12.22,12.22,5.48,12.22,12.22Z"/>
      <path class="cls-1" d="m439.83,175.89c-2.12,0-4.11.49-5.9,1.35-31.17-22.34-68.81-34.52-107.29-34.52-101.67,0-184.38,82.71-184.38,184.38v47.29c-9.85,2.28-17.22,11.11-17.22,21.65s7.37,19.38,17.22,21.65v548.48c-5.11,2-8.74,6.97-8.74,12.79s3.63,10.79,8.74,12.79v287.73c-9.85,2.28-17.22,11.12-17.22,21.65s7.37,19.38,17.22,21.65v66.9c0,52.11,21.73,99.23,56.61,132.8-.84,1.78-1.32,3.76-1.32,5.86,0,7.59,6.15,13.74,13.74,13.74,2.99,0,5.75-.96,8-2.58,30.26,21.74,67.33,34.57,107.35,34.57,101.67,0,184.38-82.71,184.38-184.38v-15.14c9.85-2.28,17.22-11.12,17.22-21.65,0-12.25-9.97-22.22-22.22-22.22s-22.22,9.97-22.22,22.22c0,10.53,7.37,19.37,17.22,21.65v15.14c0,96.15-78.23,174.38-174.38,174.38-38.01,0-73.21-12.23-101.89-32.95.18-.9.28-1.82.28-2.77,0-7.59-6.15-13.74-13.74-13.74-1.82,0-3.56.36-5.15,1.01-33.18-31.76-53.87-76.47-53.87-125.92v-66.9c9.85-2.28,17.22-11.12,17.22-21.65s-7.37-19.37-17.22-21.65v-287.73c5.11-2,8.74-6.97,8.74-12.79s-3.63-10.79-8.74-12.79V417.69c9.85-2.28,17.22-11.12,17.22-21.65s-7.37-19.37-17.22-21.65v-47.29c0-96.16,78.23-174.38,174.38-174.38,35.96,0,71.14,11.26,100.41,31.91-.61,1.55-.96,3.24-.96,5.01,0,7.59,6.15,13.74,13.74,13.74s13.74-6.15,13.74-13.74-6.15-13.74-13.74-13.74Zm53.96,1177c0-6.74,5.48-12.22,12.22-12.22s12.22,5.48,12.22,12.22-5.48,12.22-12.22,12.22-12.22-5.48-12.22-12.22Zm-334.31-51.76c0,6.74-5.48,12.22-12.22,12.22s-12.22-5.48-12.22-12.22,5.48-12.22,12.22-12.22,12.22,5.48,12.22,12.22Zm0-905.09c0,6.74-5.48,12.22-12.22,12.22s-12.22-5.48-12.22-12.22,5.48-12.22,12.22-12.22,12.22,5.48,12.22,12.22Z"/>
      <path class="cls-1" d="m620.32,378.81c0-5.82-3.63-10.79-8.74-12.79v-38.93c0-33.22-5.69-65.77-16.92-96.77-10.85-29.95-26.58-57.74-46.77-82.59-39.63-48.79-94.67-83.43-155.34-97.87-.37-11.93-10.19-21.53-22.21-21.53-9.63,0-17.85,6.16-20.92,14.74-7.55-.6-15.19-.92-22.78-.92-157.12,0-284.94,127.82-284.94,284.94v995.78c-5.11,2-8.74,6.97-8.74,12.79s3.63,10.79,8.74,12.79v41.22c0,33.39,5.75,66.12,17.1,97.26,10.49,28.8,25.51,55.57,44.65,79.66-2.44,3.57-3.88,7.88-3.88,12.52,0,12.25,9.97,22.22,22.22,22.22s22.22-9.97,22.22-22.22-9.97-22.22-22.22-22.22c-3.99,0-7.73,1.06-10.97,2.91-18.26-23.1-32.59-48.74-42.63-76.3-10.94-30.04-16.49-61.62-16.49-93.84v-41.22c5.11-2,8.74-6.97,8.74-12.79s-3.63-10.79-8.74-12.79V327.09c0-151.6,123.34-274.94,274.94-274.94,7.2,0,14.45.3,21.62.86,1.23,11.1,10.66,19.77,22.09,19.77,9.01,0,16.77-5.39,20.26-13.11,58.39,13.98,111.36,47.36,149.53,94.36,19.48,23.99,34.67,50.8,45.13,79.69,10.83,29.9,16.32,61.32,16.32,93.37v38.93c-5.11,2-8.74,6.97-8.74,12.79s3.63,10.79,8.74,12.79v998.08c0,78.38-33.52,152.86-92.1,205.13-3.81-3.06-8.64-4.9-13.9-4.9-12.25,0-22.22,9.97-22.22,22.22s9.97,22.22,22.22,22.22,22.22-9.97,22.22-22.22c0-3.38-.76-6.59-2.12-9.46,60.99-54.19,95.9-131.56,95.9-212.99V391.6c5.11-2,8.74-6.97,8.74-12.79ZM134.02,1579.13c0,6.74-5.48,12.22-12.22,12.22s-12.22-5.48-12.22-12.22,5.48-12.22,12.22-12.22,12.22,5.48,12.22,12.22ZM370.34,62.78c-6.74,0-12.22-5.48-12.22-12.22s5.48-12.22,12.22-12.22,12.22,5.48,12.22,12.22-5.48,12.22-12.22,12.22Zm125.24,1561.58c-6.74,0-12.22-5.48-12.22-12.22s5.48-12.22,12.22-12.22,12.22,5.48,12.22,12.22-5.48,12.22-12.22,12.22Z"/>
    </symbol>

    <symbol id="svg-cyber-clip-stroke" viewBox="0 0 642.95 1664.56">
      <defs>
        <style>
          .cls-1 {
            fill: none;
            stroke: #50c6fc;
            stroke-miterlimit: 10;
            stroke-width: 10px;
          }
        </style>
      </defs>
      <circle class="cls-1" cx="348.64" cy="1294.65" r="17.22"/>
      <circle class="cls-1" cx="320.1" cy="1518.12" r="17.22"/>
      <circle class="cls-1" cx="428.8" cy="1458.85" r="17.22"/>
      <circle class="cls-1" cx="499.48" cy="1352.89" r="17.22"/>
      <circle class="cls-1" cx="499.48" cy="997.23" r="17.22"/>
      <circle class="cls-1" cx="549.76" cy="1229.98" r="17.22"/>
      <circle class="cls-1" cx="140.72" cy="1301.13" r="17.22"/>
      <circle class="cls-1" cx="115.26" cy="1579.13" r="17.22"/>
      <circle class="cls-1" cx="489.04" cy="1612.13" r="17.22"/>
      <circle class="cls-1" cx="348.64" cy="1148.09" r="17.22"/>
      <circle class="cls-1" cx="140.72" cy="396.04" r="17.22"/>
      <circle class="cls-1" cx="231.06" cy="234.31" r="17.22"/>
      <circle class="cls-1" cx="90.44" cy="789.31" r="17.22"/>
      <circle class="cls-1" cx="498.95" cy="315.78" r="17.22"/>
      <circle class="cls-1" cx="363.8" cy="50.56" r="17.22"/>
      <circle class="cls-1" cx="209.24" cy="128.19" r="17.22"/>
      <circle class="cls-1" cx="241.28" cy="625.94" r="17.22"/>
      <circle class="cls-1" cx="449.2" cy="538.32" r="17.22"/>
      <path class="cls-1" d="m346.72,48.41c-8.76-.83-17.64-1.25-26.62-1.25-154.36,0-279.94,125.58-279.94,279.94v1062.58c0,67.08,23.72,128.73,63.21,176.99m399.36,35.01c59.56-51.37,97.31-127.36,97.31-212V327.09c0-133.44-93.85-245.38-219.01-273.26"/>
      <path class="cls-1" d="m90.44,1241.83v147.84c0,126.63,103.02,229.66,229.66,229.66s229.66-103.03,229.66-229.66v-142.48M90.44,806.53v435.3m0-595.1v125.35M192.02,136.55c-61.23,41.29-101.58,111.3-101.58,190.55v319.64m459.32,566.02V327.09c0-96.29-59.57-178.94-143.8-213.01"/>
      <path class="cls-1" d="m140.72,1318.35v71.33c0,98.91,80.47,179.38,179.38,179.38s179.38-80.47,179.38-179.38v-19.56M140.72,413.26v870.64M434.08,188.68c-31.01-25.58-70.73-40.97-113.98-40.97-98.91,0-179.38,80.47-179.38,179.38v51.72m358.76,601.16V333.98"/>
      <path class="cls-1" d="m220.52,245.02c-18.43,22.33-29.52,50.93-29.52,82.07v1062.58c0,65.34,48.8,119.51,111.87,127.95M449.2,385.04v-57.94c0-71.19-57.91-129.1-129.1-129.1-28.45,0-54.78,9.25-76.14,24.9m193.31,1220.96c7.65-16.48,11.93-34.84,11.93-54.18v-834.13"/>
      <path class="cls-1" d="m241.28,643.16v746.52c0,43.46,35.36,78.82,78.82,78.82s78.82-35.36,78.82-78.82V327.09c0-43.46-35.36-78.82-78.82-78.82s-78.82,35.36-78.82,78.82v281.62"/>
      <path class="cls-1" d="m348.64,1132.24V327.09c0-15.74-12.8-28.54-28.54-28.54s-28.54,12.8-28.54,28.54v1062.58c0,15.74,12.8,28.54,28.54,28.54s28.54-12.8,28.54-28.54v-77.65"/>
    </symbol>

    <symbol id="svg-circuit-fill" viewBox="0 0 599.52 870.6">
      <defs>
        <style>.cls-1{fill:#50c6fc;}</style>
      </defs>
      <path d="m81.07,79.11c-10.13-10.13-10.13-26.54,0-36.67,10.13-10.13,26.54-10.13,36.67,0l-36.67,36.67Z"/><path d="m447.25,783.33c-10.13-10.13-10.13-26.54,0-36.67,10.13-10.13,26.54-10.13,36.67,0l-36.67,36.67Z"/><circle cx="134.55" cy="671.27" r="13.74"/><circle cx="134.61" cy="149.62" r="13.74"/><circle cx="28.3" cy="590.38" r="13.74"/><circle cx="80.63" cy="395.38" r="13.74"/><circle cx="242.55" cy="532.12" r="13.74"/><circle cx="459.22" cy="597.48" r="13.74"/><circle cx="513.94" cy="482.74" r="13.74"/><circle cx="351.07" cy="215.91" r="13.74"/><path d="m350.71,298.26c-12.74,0-23.07,10.33-23.07,23.07s10.33,23.07,23.07,23.07,23.07-10.33,23.07-23.07-10.33-23.07-23.07-23.07Zm12.8,35.86c-7.07,7.07-18.53,7.07-25.59,0l25.59-25.59c7.07,7.07,7.07,18.53,0,25.59Z"/>
    </symbol>

    <symbol id="svg-circuit-stroke" viewBox="0 0 599.52 870.6">
      <defs>
        <style>.cls-1{fill:none;stroke:#50c6fc;stroke-miterlimit:10;stroke-width:10px;}</style>
      </defs>
      <polyline points="188.48 870.6 188.48 828.28 134.63 792.95 134.63 671.27"/><circle cx="99.94" cy="61.28" r="34.11"/><circle cx="466.11" cy="765.5" r="34.11"/><line x1="134.61" y1="149.62" x2="134.61" y2="581.83"/><line x1="188.48" y1="250.45" x2="188.48" y2="870.6"/><line x1="242.55" y1="530.38" x2="242.55" y2="869.6"/><line x1="568.05" x2="568.05" y2="321.33"/><line x1="28.3" y1="590.38" x2="28.3" y2="869.6"/><polyline points="28.3 .06 28.3 130.57 80.63 165.9 80.63 395.38"/><polyline points="28.3 208.51 28.3 445.5 80.63 548.65 80.63 870.6"/><circle cx="134.61" cy="599.05" r="17.22"/><circle cx="28.3" cy="195.72" r="17.22"/><circle cx="568.05" cy="338.56" r="17.22"/><line x1="459.22" x2="459.22" y2="155.18"/><circle cx="459.86" cy="172.4" r="17.22"/><line x1="242.55" y1=".06" x2="242.55" y2="392.12"/><circle cx="242.55" cy="409.34" r="17.22"/><line x1="296.63" y1="869.6" x2="296.63" y2="670.48"/><circle cx="296.63" cy="653.25" r="17.22"/><circle cx="188.48" cy="233.23" r="17.22"/><polyline points="459.86 597.62 459.86 254.32 405.14 218.98 405.14 0"/><line x1="405.14" y1="869.6" x2="405.14" y2="49.83"/><line x1="351.07" y1="213.41" x2="351.07"/><polyline points="568.05 869.6 568.05 747.55 513.94 712.21 513.94 482.74"/><polyline points="567.95 669.06 567.95 432.07 513.3 328.92 513.3 -.48"/><circle cx="567.95" cy="685.01" r="17.22"/><polyline points="350.71 869.6 350.71 500.41 296.63 465.07 296.63 .06"/>
    </symbol>

    <!-- WARNING: Ineffectual (probably because it uses a pattern) -->
    <symbol id="svg-dots" viewBox="0 0 793.28 1396.67">
      <defs>
        <style>
          .cls-1 {
            fill: none;
          }

          .cls-2 {
            fill: #1a1a1a;
          }

          .cls-3 {
            fill: url(#Dots-aligned);
          }
        </style>
        <pattern id="Dots-aligned" x="0" y="0" width="42" height="42" patternTransform="translate(-5341.72 -620.48) scale(.97 1)" patternUnits="userSpaceOnUse" viewBox="0 0 42 42">
          <g>
            <rect class="cls-1" width="42" height="42"/>
            <circle class="cls-2" cx="21" cy="21" r="6.88"/>
          </g>
        </pattern>
      </defs>
      <rect class="cls-3" width="771.29" height="1396.67"/>
    </symbol>

    <symbol id="svg-loops" viewBox="0 0 572.44 286.22">
      <defs>
        <style>
          .cls-1 {
            fill: none;
            stroke: #50c6fc;
            stroke-linecap: round;
            stroke-miterlimit: 10;
            stroke-width: 10px;
          }
        </style>
      </defs>
      <path d="m242.95,271.13c0-23.9,19.37-43.27,43.27-43.27s43.27,19.37,43.27,43.27"/>
      <path d="m208.32,271.13c0-43.02,34.88-77.9,77.9-77.9s77.9,34.88,77.9,77.9"/>
      <path d="m173.69,271.13c0-62.15,50.38-112.53,112.53-112.53s112.53,50.38,112.53,112.53"/>
      <path d="m139.07,271.13c0-81.27,65.88-147.16,147.16-147.16s147.16,65.88,147.16,147.16"/>
      <path d="m104.44,271.13c0-100.4,81.39-181.78,181.78-181.78s181.78,81.39,181.78,181.78"/>
      <path d="m69.81,271.13c0-119.52,96.89-216.41,216.41-216.41s216.41,96.89,216.41,216.41"/>
      <path d="m35.18,271.13c0-138.65,112.39-251.04,251.04-251.04s251.04,112.39,251.04,251.04"/>
    </symbol>

    <!-- WARNING: Ineffectual (probably because it uses a pattern) -->
    <symbol id="svg-plus-ol" viewBox="0 0 793.28 1396.67">
      <defs>
        <style>
          .cls-1 {
            fill: none;
          }

          .cls-2 {
            fill: url(#Dots-aligned_2);
          }

          .cls-3 {
            fill: #847557;
          }
        </style>
        <pattern id="Dots-aligned_2" data-name="Dots-aligned 2" x="0" y="0" width="42" height="42" patternTransform="translate(-6566.78 -620.48) scale(.97 1)" patternUnits="userSpaceOnUse" viewBox="0 0 42 42">
          <g>
            <rect class="cls-1" width="42" height="42"/>
            <g>
              <rect class="cls-3" x="10.18" y="20.24" width="21.64" height="1.51"/>
              <rect class="cls-3" x="20.24" y="10.18" width="1.51" height="21.64"/>
            </g>
          </g>
        </pattern>
      </defs>
      <rect class="cls-2" width="771.29" height="1396.67"/>
    </symbol>

    <symbol id="svg-stripes-ol" viewBox="0 0 793.28 1396.67">
      <defs>
        <style>
          .cls-1 {
            fill: #50c6fc;
          }
        </style>
      </defs>
      <polygon points="684.13 0 671.16 0 0 700.84 0 714.38 684.13 0"/>
      <polygon points="724 0 711.02 0 0 742.46 0 756.01 724 0"/>
      <polygon points="644.27 0 631.3 0 0 659.21 0 672.76 644.27 0"/>
      <polygon points="564.54 0 551.57 0 0 575.96 0 589.5 564.54 0"/>
      <polygon points="604.4 0 591.43 0 0 617.58 0 631.13 604.4 0"/>
      <polygon points="763.86 0 750.89 0 0 784.09 0 797.64 763.86 0"/>
      <polygon points="793.28 94.15 793.28 80.61 0 908.97 0 922.52 793.28 94.15"/>
      <polygon points="793.28 177.41 793.28 163.86 0 992.22 0 1005.77 793.28 177.41"/>
      <polygon points="793.28 219.03 793.28 205.49 0 1033.85 0 1047.4 793.28 219.03"/>
      <polygon points="793.28 10.9 793.28 0 790.75 0 0 825.72 0 839.26 793.28 10.9"/>
      <polygon points="793.28 135.78 793.28 122.24 0 950.6 0 964.14 793.28 135.78"/>
      <polygon points="524.68 0 511.7 0 0 534.33 0 547.88 524.68 0"/>
      <polygon points="793.28 52.53 793.28 38.98 0 867.34 0 880.89 793.28 52.53"/>
      <polygon points="484.81 0 471.84 0 0 492.71 0 506.25 484.81 0"/>
      <polygon points="126.04 0 113.07 0 0 118.07 0 131.61 126.04 0"/>
      <polygon points="205.77 0 192.79 0 0 201.32 0 214.86 205.77 0"/>
      <polygon points="86.17 0 73.2 0 0 76.44 0 89.99 86.17 0"/>
      <polygon points="165.9 0 152.93 0 0 159.69 0 173.24 165.9 0"/>
      <polygon points="0 6.73 6.45 0 0 0 0 6.73"/>
      <polygon points="46.31 0 33.34 0 0 34.81 0 48.36 46.31 0"/>
      <polygon points="285.49 0 272.52 0 0 284.57 0 298.12 285.49 0"/>
      <polygon points="405.08 0 392.11 0 0 409.45 0 423 405.08 0"/>
      <polygon points="444.95 0 431.98 0 0 451.08 0 464.62 444.95 0"/>
      <polygon points="365.22 0 352.25 0 0 367.83 0 381.37 365.22 0"/>
      <polygon points="245.63 0 232.66 0 0 242.95 0 256.49 245.63 0"/>
      <polygon points="325.36 0 312.39 0 0 326.2 0 339.75 325.36 0"/>
      <polygon points="793.28 260.66 793.28 247.11 0 1075.48 0 1089.02 793.28 260.66"/>
      <polygon points="793.28 510.42 793.28 496.87 0 1325.24 0 1338.78 793.28 510.42"/>
      <polygon points="793.28 1051.57 793.28 1038.02 449.82 1396.67 462.8 1396.67 793.28 1051.57"/>
      <polygon points="793.28 1009.94 793.28 996.39 409.96 1396.67 422.93 1396.67 793.28 1009.94"/>
      <polygon points="793.28 1093.19 793.28 1079.65 489.69 1396.67 502.66 1396.67 793.28 1093.19"/>
      <polygon points="793.28 968.31 793.28 954.77 370.09 1396.67 383.07 1396.67 793.28 968.31"/>
      <polygon points="793.28 1134.82 793.28 1121.27 529.55 1396.67 542.52 1396.67 793.28 1134.82"/>
      <polygon points="793.28 926.69 793.28 913.14 330.23 1396.67 343.2 1396.67 793.28 926.69"/>
      <polygon points="793.28 1218.07 793.28 1204.53 609.28 1396.67 622.25 1396.67 793.28 1218.07"/>
      <polygon points="793.28 1342.95 793.28 1329.41 728.87 1396.67 741.84 1396.67 793.28 1342.95"/>
      <polygon points="793.28 1384.58 793.28 1371.03 768.73 1396.67 781.71 1396.67 793.28 1384.58"/>
      <polygon points="793.28 1301.33 793.28 1287.78 689.01 1396.67 701.98 1396.67 793.28 1301.33"/>
      <polygon points="793.28 885.06 793.28 871.51 290.37 1396.67 303.34 1396.67 793.28 885.06"/>
      <polygon points="793.28 1176.45 793.28 1162.9 569.41 1396.67 582.39 1396.67 793.28 1176.45"/>
      <polygon points="793.28 1259.7 793.28 1246.15 649.14 1396.67 662.11 1396.67 793.28 1259.7"/>
      <polygon points="793.28 468.79 793.28 455.25 0 1283.61 0 1297.16 793.28 468.79"/>
      <polygon points="793.28 302.29 793.28 288.74 0 1117.1 0 1130.65 793.28 302.29"/>
      <polygon points="793.28 843.43 793.28 829.89 250.5 1396.67 263.48 1396.67 793.28 843.43"/>
      <polygon points="793.28 427.17 793.28 413.62 0 1241.98 0 1255.53 793.28 427.17"/>
      <polygon points="793.28 552.05 793.28 538.5 0 1366.86 0 1380.41 793.28 552.05"/>
      <polygon points="793.28 343.91 793.28 330.37 0 1158.73 0 1172.28 793.28 343.91"/>
      <polygon points="793.28 385.54 793.28 371.99 0 1200.36 0 1213.9 793.28 385.54"/>
      <polygon points="793.28 593.67 793.28 580.13 11.32 1396.67 24.3 1396.67 793.28 593.67"/>
      <polygon points="793.28 760.18 793.28 746.63 170.78 1396.67 183.75 1396.67 793.28 760.18"/>
      <polygon points="793.28 635.3 793.28 621.75 51.19 1396.67 64.16 1396.67 793.28 635.3"/>
      <polygon points="793.28 801.81 793.28 788.26 210.64 1396.67 223.61 1396.67 793.28 801.81"/>
      <polygon points="793.28 676.93 793.28 663.38 91.05 1396.67 104.02 1396.67 793.28 676.93"/>
      <polygon points="793.28 718.55 793.28 705.01 130.91 1396.67 143.89 1396.67 793.28 718.55"/>
    </symbol>

  </defs>
</svg>
