<?xml version="1.0" encoding="UTF-8"?>
<svg xmlns="http://www.w3.org/2000/svg">
  <defs>

    <symbol id="svg-spiral-big" viewBox="0 0 652 652">
      <defs><style>.cls-1,.cls-2{fill:none;}.cls-2{stroke:#50c6fc;stroke-linecap:round;stroke-linejoin:round;stroke-width:6px;}.cls-3{clip-path:url(#clippath);}</style><clipPath id="clippath"><rect class="cls-1" width="652" height="652"/></clipPath></defs><g class="cls-3"><g id="Group_9662"><path id="Path_5681" class="cls-2" d="m4.07,325.59c0-126.97,73.6-236.74,180.46-289"/><path id="Path_5682" class="cls-2" d="m571.53,532.68c-61.03,72.63-151.08,114.52-245.95,114.42-141.17,0-261.1-90.99-304.32-217.52"/><path id="Path_5683" class="cls-2" d="m325.58,4.07c177.57,0,321.51,143.95,321.51,321.51"/><path id="Path_5684" class="cls-2" d="m134.44,542.31C52.63,470.07,15.47,354.33,48.77,242.89"/><path id="Path_5685" class="cls-2" d="m523.91,115.42c76.78,72.57,110.8,184.74,78.49,292.87-45.67,152.88-206.63,239.79-359.52,194.12"/><path id="Path_5686" class="cls-2" d="m101.82,142.72C173.43,55.17,293.15,14.37,408.29,48.77"/><path id="Path_5687" class="cls-2" d="m291.77,579.68c-140.36-18.72-238.96-147.67-220.24-288.03,6.02-45.11,23.93-87.81,51.9-123.7"/><path id="Path_5688" class="cls-2" d="m581.72,336.35c-4.05,94.77-60.77,183.6-153.55,224.12"/><path id="Path_5689" class="cls-2" d="m223.01,90.71c129.72-56.65,280.8,2.58,337.45,132.3"/><path id="Path_5690" class="cls-2" d="m157.01,472.66c-81.22-93.13-71.56-234.48,21.57-315.7,24.96-21.77,54.45-37.73,86.33-46.72"/><path id="Path_5691" class="cls-2" d="m389.62,111.26c118.37,35.36,185.66,159.99,150.3,278.36s-159.99,185.66-278.36,150.29"/><path id="Path_5692" class="cls-2" d="m259.93,505.04c-99.11-36.26-150.06-146.01-113.8-245.12,3.48-9.52,7.72-18.74,12.66-27.58"/><path id="Path_5693" class="cls-2" d="m249.11,150.48c96.71-42.24,209.35,1.92,251.59,98.63s-1.92,209.35-98.63,251.59"/><path id="Path_5694" class="cls-2" d="m167.11,325.59c0-87.52,70.94-158.47,158.47-158.48h0"/><path id="Path_5695" class="cls-2" d="m426.39,203.3c67.53,55.68,77.14,155.56,21.47,223.09-55.68,67.53-155.56,77.14-223.09,21.47-10.41-8.59-19.69-18.47-27.6-29.4"/><path id="Path_5696" class="cls-2" d="m340.83,450.52c-69,8.42-131.76-40.69-140.18-109.69-4.01-32.84,5.08-65.93,25.28-92.12"/><path id="Path_5697" class="cls-2" d="m310.34,200.65c69-8.42,131.77,40.69,140.19,109.69,3.66,30.01-3.6,60.34-20.46,85.44"/><path id="Path_5698" class="cls-2" d="m232.33,325.59c0-51.5,41.75-93.25,93.25-93.25"/><path id="Path_5699" class="cls-2" d="m398.57,267.53c32.06,40.31,25.37,98.98-14.95,131.04-33.9,26.96-81.9,27.03-115.88.17"/><path id="Path_5700" class="cls-2" d="m301.31,270.01c30.69-13.41,66.45.61,79.85,31.31s-.61,66.45-31.31,79.85c-30.69,13.41-66.45-.61-79.85-31.31,0,0,0,0,0,0"/><path id="Path_5701" class="cls-2" d="m317.56,352.45c-14.84-4.43-23.27-20.05-18.84-34.89s20.05-23.27,34.89-18.84c14.84,4.43,23.27,20.05,18.84,34.89,0,0,0,0,0,0"/></g></g>
    </symbol>

  </defs>
</svg>
