<?xml version="1.0" encoding="UTF-8"?><svg id="tacc-formal" xmlns="http://www.w3.org/2000/svg" viewBox="0 0 283.44 111"><g><rect x="-4.78" y="-4" width="290.67" height="119" fill="none"/><path d="m115.43,74.88l-4.96-20.09,13.81-12.12h-17.84l-5.99-20.25-6,20.25h-18.03l13.99,12.13-5,20.08,14.99-12.05,15.03,12.05Z"/><path d="m5,7.8h64.88v17.06h-21.77v52.02h-21.34V24.86H5V7.8Z"/><path d="m138.96,42.33c0-7.96,1.76-35.79,34.46-35.79s32.71,27.84,32.71,27.84l-19.54-.04s-.17-10.04-13.17-10.04-13.04,10.04-13.04,18.04,0,17.95,13.04,17.95,13.04-9.95,13.04-9.95h19.67s0,27.81-32.71,27.81-34.46-27.85-34.46-35.81h0Z"/><path d="m212.46,42.33c0-7.96,1.76-35.79,34.46-35.79s32.71,27.84,32.71,27.84l-19.54-.04s-.17-10.04-13.17-10.04-13.04,10.04-13.04,18.04,0,17.95,13.04,17.95,13.04-9.95,13.04-9.95h19.67s0,27.81-32.71,27.81-34.46-27.85-34.46-35.81h0Z"/></g><g id="uuid-a08da7fa-00d0-43b9-a011-d7ec9d63bda8"><polygon points="62.75 76.88 82.02 76.88 86.95 55.83 73.6 44.27 62.75 76.88"/><polygon points="137.99 76.88 118.73 76.88 113.79 55.83 127.15 44.27 137.99 76.88"/><polygon points="75.13 39.62 92.1 39.62 100.35 11.81 108.55 39.61 125.58 39.61 115 7.81 85.7 7.81 75.13 39.62"/><g><path d="m13.37,90.78v2.09h-2.77v10.57h-2.55v-10.57h-2.77v-2.09h8.09Z"/><path d="m21.54,90.78v2.09h-4.52v2.98h4.26v2.09h-4.26v3.4h4.7v2.09h-7.25v-12.66h7.07Z"/><path d="m22.47,90.78h2.82l1.63,4.1,1.61-4.1h2.78l-2.94,6.26,3.16,6.4h-2.87l-1.83-4.29-1.81,4.29h-2.8l3.16-6.4s-2.91-6.26-2.91-6.26Z"/><path d="m34.99,90.78h3.16l3.35,12.66h-2.66l-.58-2.68h-3.37l-.58,2.68h-2.66l3.35-12.66h0Zm.34,7.89h2.48l-1.22-5.69h-.04s-1.22,5.69-1.22,5.69Z"/><path d="m44.44,99.49v.37c0,1.19.34,1.95,1.68,1.95.78,0,1.52-.5,1.52-1.56,0-1.15-.58-1.58-2.27-2.16-2.27-.78-3.32-1.72-3.32-3.83,0-2.46,1.51-3.72,3.92-3.72,2.27,0,3.92.98,3.92,3.4v.35h-2.45c0-1.19-.41-1.88-1.38-1.88-1.15,0-1.45.73-1.45,1.47s.23,1.26,1.31,1.72l1.97.85c1.91.83,2.41,1.81,2.41,3.35,0,2.68-1.63,3.88-4.4,3.88s-4.02-1.35-4.02-3.69v-.51h2.56Z"/><path d="m58.3,90.78h3.16l3.35,12.66h-2.66l-.58-2.68h-3.37l-.58,2.68h-2.66l3.35-12.66h0Zm.34,7.89h2.48l-1.22-5.69h-.04s-1.22,5.69-1.22,5.69Z"/><path d="m65.82,90.78h4.18c3.55,0,4.18,2.43,4.18,6.15,0,4.49-.96,6.51-4.34,6.51h-4.02v-12.66Zm2.55,10.78h1.13c1.77,0,2.13-1.12,2.13-4.56,0-2.87-.23-4.34-2.18-4.34h-1.08s0,8.9,0,8.9Z"/><path d="m77.77,90.78l1.79,9.36h.05l1.88-9.36h2.64l-2.91,12.66h-3.28l-2.91-12.66h2.74Z"/><path d="m86.89,90.78h3.16l3.35,12.66h-2.66l-.58-2.68h-3.37l-.58,2.68h-2.66l3.35-12.66h0Zm.34,7.89h2.48l-1.22-5.69h-.04l-1.22,5.69Z"/><path d="m97.23,90.78l3.09,8.67h.04v-8.67h2.34v12.66h-2.91l-3.12-8.87h-.04v8.87h-2.34v-12.66h2.94Z"/><path d="m109.87,95.06c0-1.84-.37-2.64-1.52-2.64-1.29,0-1.6,1.29-1.6,4.88,0,3.83.53,4.52,1.63,4.52.92,0,1.6-.48,1.6-3.21h2.55c0,2.73-.67,5.09-4.02,5.09-3.83,0-4.31-2.73-4.31-6.58s.48-6.58,4.31-6.58,3.92,2.68,3.92,4.52h-2.56Z"/><path d="m121.06,90.78v2.09h-4.52v2.98h4.26v2.09h-4.26v3.4h4.7v2.09h-7.25v-12.66h7.07Z"/><path d="m122.64,90.78h4.18c3.55,0,4.18,2.43,4.18,6.15,0,4.49-.96,6.51-4.34,6.51h-4.02s0-12.66,0-12.66Zm2.55,10.78h1.13c1.77,0,2.13-1.12,2.13-4.56,0-2.87-.23-4.34-2.18-4.34h-1.08s0,8.9,0,8.9Z"/><path d="m142.35,95.06c0-1.84-.37-2.64-1.52-2.64-1.29,0-1.6,1.29-1.6,4.88,0,3.83.53,4.52,1.63,4.52.92,0,1.6-.48,1.6-3.21h2.55c0,2.73-.67,5.09-4.02,5.09-3.83,0-4.31-2.73-4.31-6.58s.48-6.58,4.31-6.58,3.92,2.68,3.92,4.52h-2.56Z"/><path d="m150.51,90.53c3.83,0,4.31,2.73,4.31,6.58s-.48,6.58-4.31,6.58-4.31-2.73-4.31-6.58.48-6.58,4.31-6.58Zm0,11.28c1.51,0,1.76-1.29,1.76-4.7s-.25-4.7-1.76-4.7-1.75,1.31-1.75,4.7.25,4.7,1.75,4.7Z"/><path d="m156.38,90.78h3.79l1.81,8.94h.04l1.83-8.94h3.78v12.66h-2.34v-10.11h-.04l-2.25,10.11h-1.99l-2.25-10.11h-.04v10.11h-2.34v-12.66Z"/><path d="m169.45,90.78h4.47c2.59,0,3.48,1.9,3.48,3.79,0,2.62-1.61,3.81-4.03,3.81h-1.37v5.05h-2.55v-12.66h0Zm2.55,5.74h1.13c1.01,0,1.7-.6,1.7-1.9s-.5-1.95-1.77-1.95h-1.06v3.85Z"/><path d="m181.05,90.78v8.83c0,1.26.3,2.2,1.49,2.2s1.49-.94,1.49-2.2v-8.83h2.55v8.83c0,3.23-1.97,4.08-4.04,4.08s-4.04-.69-4.04-4.08v-8.83h2.55,0Z"/><path d="m195.61,90.78v2.09h-2.77v10.57h-2.55v-10.57h-2.77v-2.09h8.09Z"/><path d="m196.83,103.44v-12.66h2.55v12.66h-2.55Z"/><path d="m204.22,90.78l3.08,8.67h.04v-8.67h2.34v12.66h-2.91l-3.12-8.87h-.04v8.87h-2.34v-12.66h2.95Z"/><path d="m217.08,94.54c0-.94-.42-2.13-1.45-2.13-1.24,0-1.74,1.28-1.74,4.43s.28,4.96,1.76,4.96c.6,0,1.58-.66,1.58-2.02v-1.29h-1.68v-1.88h4.13v6.83h-1.88v-1.17h-.04c-.6.99-1.47,1.42-2.66,1.42-3.14,0-3.76-2.34-3.76-6.72s.99-6.44,4.25-6.44c2.8,0,3.94,1.44,3.94,4.01h-2.45Z"/><path d="m230.98,95.06c0-1.84-.37-2.64-1.52-2.64-1.29,0-1.6,1.29-1.6,4.88,0,3.83.53,4.52,1.63,4.52.92,0,1.6-.48,1.6-3.21h2.55c0,2.73-.67,5.09-4.03,5.09-3.83,0-4.31-2.73-4.31-6.58s.48-6.58,4.31-6.58,3.92,2.68,3.92,4.52c0,0-2.55,0-2.55,0Z"/><path d="m242.17,90.78v2.09h-4.52v2.98h4.26v2.09h-4.26v3.4h4.7v2.09h-7.25v-12.66h7.07Z"/><path d="m246.57,90.78l3.08,8.67h.04v-8.67h2.34v12.66h-2.91l-3.12-8.87h-.04v8.87h-2.34v-12.66h2.95Z"/><path d="m261.22,90.78v2.09h-2.77v10.57h-2.55v-10.57h-2.77v-2.09h8.09Z"/><path d="m269.39,90.78v2.09h-4.52v2.98h4.26v2.09h-4.26v3.4h4.7v2.09h-7.25v-12.66h7.07,0Z"/><path d="m270.84,90.78h4.72c2.09,0,3.37,1.1,3.37,3.26,0,1.68-.67,2.82-2.11,3.12v.04c1.74.23,2,1.19,2.04,3.87.02,1.33.09,2.02.57,2.27v.11h-2.77c-.25-.35-.3-.83-.32-1.33l-.07-2.43c-.04-.99-.48-1.6-1.51-1.6h-1.37v5.35h-2.55v-12.66h0Zm2.55,5.53h1.06c1.22,0,1.92-.53,1.92-1.9,0-1.17-.62-1.75-1.77-1.75h-1.21v3.65h0Z"/></g></g></svg>
