<?xml version="1.0" encoding="UTF-8"?><svg id="ut-primary" xmlns="http://www.w3.org/2000/svg" viewBox="0 0 244.96 68.55"><g><g><polygon points="20.92 18.04 20.97 18.04 20.97 18.02 20.92 18.02 20.92 18.04 20.92 18.04"/><path d="m26.37,13.49c-1.14-.17-2.21-.34-3.19-.34-.52,0-.98.05-1.39.15l-.23-6.36v-1.05c.45-.19.99-.28,1.69-.28.89,0,1.91.15,2.98.31.95.14,1.92.28,2.92.34l.27,7.6c-1.02-.06-2.05-.21-3.05-.37h0Zm-10.85,0c-1,.16-2.03.31-3.05.37l.27-7.6c1-.06,1.97-.2,2.92-.34,1.08-.16,2.09-.31,2.98-.31.69,0,1.24.09,1.69.28v1.05l-.23,6.36c-.41-.1-.86-.15-1.39-.15-.97,0-2.05.17-3.19.34h0Zm16.15-4.48v-1.45h-.89v-2.47h-.6c-1.28,0-2.54-.19-3.77-.37-1.12-.16-2.18-.32-3.16-.32-.92,0-1.68.14-2.31.44-.63-.3-1.39-.44-2.31-.44-.98,0-2.03.16-3.15.32-1.23.18-2.5.37-3.77.37h-.6v2.47h-.89v1.45h.89v1.96h-.88v1.45h.88v2.68h.6c1.36,0,2.7-.21,3.99-.41,1.09-.17,2.12-.33,3-.33.71,0,1.24.1,1.66.32h1.16c.41-.21.95-.32,1.66-.32.88,0,1.91.16,3,.33,1.29.2,2.63.41,3.99.41h.6v-2.68h.88v-1.45h-.88v-1.96h.89Z"/><path d="m15.69,7.01c-.06,0-.12.02-.18.03-.57.08-1.14.17-1.72.23l-.03.97c.64-.07,1.27-.16,1.9-.26.01,0,.03,0,.04,0v-.97h0Z"/><path d="m16.41,6.91v.97c1.02-.14,1.97-.24,2.78-.18l.04-.96c-.87-.07-1.82.03-2.82.16h0Z"/><path d="m15.69,11.42c-.06,0-.12.02-.18.03-.62.09-1.25.18-1.88.25l-.04.97c.7-.07,1.38-.17,2.06-.27.01,0,.03,0,.04,0v-.97h0Z"/><path d="m16.41,11.32v.97c.96-.13,1.84-.23,2.62-.19l.04-.96c-.83-.04-1.72.05-2.66.18h0Z"/><path d="m15.54,9.24v.97s.07-.01.11-.02c1.29-.19,2.46-.36,3.46-.29l.03-.96c-1.1-.07-2.33.11-3.61.29h0Z"/><path d="m14.81,9.34c-.37.05-.74.1-1.11.14l-.04.97c.39-.04.77-.09,1.14-.14v-.97h0Z"/><path d="m25.05,6.85c-.83-.1-1.63-.16-2.38-.11l.03.96c.7-.06,1.49,0,2.34.12v-.97h0Z"/><path d="m28.11,7.27c-.58-.07-1.16-.15-1.72-.23-.21-.03-.41-.06-.62-.09v.97c.16.02.32.04.48.07.62.09,1.25.19,1.9.26l-.04-.97h0Z"/><path d="m24.85,9.04c-.73-.08-1.44-.13-2.1-.09l.04.96c.62-.04,1.32,0,2.06.1v-.97h0Z"/><path d="m28.19,9.49c-.61-.07-1.21-.16-1.8-.24-.27-.04-.55-.08-.81-.12v.97c.22.03.45.06.68.1.65.1,1.31.19,1.98.26l-.04-.97h0Z"/><path d="m26.29,12.41c.66.1,1.33.19,2.01.27l-.03-.97c-.64-.07-1.26-.16-1.88-.25-.03,0-.06,0-.09-.01v.97h0Z"/><path d="m25.57,11.33c-.96-.13-1.89-.23-2.74-.19l.04.96c.8-.04,1.72.06,2.71.2v-.97h0Z"/><path d="m19.7,26.88l1.25-3.13,1.25,3.13,3.37.22-2.6,2.16.83,3.27-2.86-1.8-2.86,1.8.83-3.27-2.59-2.16,3.37-.22h0Zm-7.64-1.11h0s5.45,3.96,5.45,3.96l-2.1,6.45s0,.02.02.03c0,0,.02,0,.03,0l5.49-3.99,5.49,3.99s.02,0,.03,0c.02-.01.02-.04.01-.06l-2.09-6.43,5.45-3.96h0s.04-.04.03-.06c0-.02-.04-.04-.06-.03h0s-6.73,0-6.73,0l-2.08-6.4h0s-.02-.05-.05-.05-.05.02-.05.05h0l-2.08,6.4h-6.73s-.05,0-.06.03c0,.02,0,.05.03.06h0Z"/><path d="m34.46,33.86c-.49.54-1.13.92-1.83,1.09.1-.72.41-1.39.9-1.93.5-.55,1.13-.92,1.84-1.09-.1.72-.41,1.39-.9,1.94h0Zm-2.63-4.23c-.09-.73.03-1.46.36-2.11.48.54.79,1.21.89,1.94.1.72-.03,1.46-.36,2.1-.48-.54-.79-1.21-.89-1.94h0Zm1.46-5.51c-.14-.72-.05-1.46.23-2.12.51.51.86,1.17,1,1.89.14.72.06,1.46-.23,2.12-.51-.51-.86-1.17-1-1.88h0Zm3.48,1.61c.05.73-.12,1.45-.48,2.08-.37.63-.91,1.13-1.57,1.45-.05-.73.11-1.45.48-2.08.37-.63.92-1.13,1.57-1.45h0Zm-5.33,13.69c-.59.43-1.29.66-2.02.69.25-.69.69-1.28,1.28-1.71.6-.43,1.29-.67,2.02-.69-.25.68-.69,1.28-1.28,1.71h0Zm-1.7-4.69c.06-.73.33-1.42.79-1.99.36.63.52,1.35.46,2.08-.05.73-.33,1.42-.79,1.99-.36-.63-.52-1.35-.47-2.08h0Zm-1.9,4.91c-.21.7-.62,1.32-1.18,1.78-.22-.69-.23-1.43-.03-2.13.21-.7.62-1.32,1.18-1.78.22.69.23,1.43.03,2.13h0Zm1.1,3.18c-.38.62-.94,1.11-1.61,1.41-.46.21-.96.31-1.47.31h0c-.22,0-.43-.02-.65-.06.38-.62.94-1.11,1.61-1.41.67-.3,1.41-.38,2.12-.26h0Zm-6.29.29c.35-.65.88-1.17,1.52-1.5.07.72-.07,1.45-.42,2.09-.35.64-.88,1.16-1.52,1.5-.07-.72.07-1.45.41-2.09h0Zm-8.14,1.12c-.67-.3-1.23-.79-1.61-1.41.71-.13,1.45-.04,2.12.26.67.3,1.22.79,1.61,1.41-.71.13-1.45.04-2.12-.26h0Zm-.51-4.59c-.21-.7-.2-1.45.03-2.13.56.46.97,1.07,1.18,1.78.21.71.19,1.45-.03,2.13-.56-.46-.97-1.08-1.18-1.78h0Zm3.66,1.96c.64.33,1.17.85,1.52,1.5.35.65.49,1.37.41,2.1-.65-.34-1.17-.86-1.52-1.5-.35-.65-.49-1.37-.41-2.09h0Zm-7.27-2.18c-.59-.43-1.04-1.02-1.28-1.71.73.02,1.42.25,2.02.69.59.43,1.04,1.02,1.28,1.71-.73-.02-1.43-.26-2.02-.69h0Zm.92-6.67c.45.57.73,1.25.79,1.98.06.73-.11,1.45-.47,2.08-.46-.57-.73-1.26-.79-1.99-.06-.73.11-1.45.47-2.08h0Zm-3.95,1.12c-.49-.54-.8-1.22-.9-1.94.7.17,1.34.54,1.83,1.09.49.54.8,1.21.9,1.93-.71-.17-1.34-.54-1.83-1.09h0Zm-.25-4.61c-.65-.31-1.2-.81-1.57-1.45-.37-.63-.53-1.36-.48-2.08.65.31,1.2.81,1.57,1.45.37.63.53,1.36.48,2.08h0Zm.19-5.37c.14-.72.49-1.37,1-1.88.29.67.37,1.4.23,2.12-.14.72-.49,1.37-1,1.89-.29-.67-.37-1.4-.23-2.12h0Zm1.45,5.59c.1-.73.41-1.4.89-1.94.33.65.45,1.38.36,2.11-.1.72-.41,1.4-.89,1.94-.33-.65-.45-1.38-.36-2.1h0Zm25.71.91c1.12-.34,2.06-1.08,2.65-2.08.59-1.01.77-2.19.51-3.34l-.11-.5-.49.15c-.57.17-1.09.44-1.54.8.1-.56.1-1.14,0-1.71-.22-1.15-.86-2.16-1.81-2.85l-.42-.3-.27.44c-.62.99-.84,2.17-.62,3.32.22,1.14.86,2.15,1.8,2.84-.17.39-.29.8-.35,1.23-.28-.76-.75-1.45-1.39-1.97l-.4-.33-.3.42c-.68.95-.97,2.11-.82,3.27.15,1.15.73,2.21,1.63,2.95h.02c-.27.37-.47.77-.62,1.19-.12-.8-.44-1.57-.96-2.22l-.32-.4-.38.35c-.86.79-1.39,1.87-1.48,3.03-.09,1.16.26,2.31.99,3.22l.02.02c-.34.29-.62.64-.85,1.02.05-.81-.1-1.63-.47-2.37l-.23-.46-.44.26c-1.01.6-1.74,1.54-2.08,2.66-.33,1.12-.22,2.31.3,3.36v.03c-.38.22-.73.5-1.03.82.22-.78.23-1.62.02-2.42l-.13-.5-.49.16c-1.11.37-2.02,1.15-2.58,2.18-.53.99-.68,2.14-.42,3.24-.15.1-.3.21-.46.32-.16-.11-.32-.21-.46-.32.26-1.1.12-2.25-.42-3.24-.56-1.03-1.47-1.8-2.58-2.18l-.49-.16-.13.5c-.21.8-.2,1.63.02,2.42-.31-.32-.66-.6-1.04-.82v-.03c.54-1.05.64-2.24.32-3.36-.33-1.12-1.07-2.07-2.08-2.66l-.44-.26-.23.46c-.37.74-.53,1.56-.47,2.37-.23-.38-.52-.72-.85-1.02l.02-.02c.73-.92,1.08-2.06.99-3.23-.09-1.17-.62-2.24-1.48-3.03l-.38-.35-.32.4c-.52.65-.84,1.42-.96,2.22-.15-.42-.36-.81-.62-1.17h.02c.9-.76,1.48-1.81,1.64-2.97.15-1.16-.14-2.32-.82-3.27l-.3-.42-.4.33c-.64.53-1.12,1.21-1.39,1.97-.06-.42-.17-.84-.35-1.23.94-.69,1.58-1.7,1.8-2.84.22-1.15,0-2.33-.62-3.32l-.27-.44-.42.3c-.95.69-1.59,1.7-1.81,2.85-.11.57-.11,1.15,0,1.71-.45-.36-.98-.63-1.54-.8l-.49-.15-.11.5c-.26,1.14-.08,2.33.51,3.34.59,1.01,1.53,1.75,2.65,2.08l.44.13c.04.37.14.73.27,1.07-.62-.4-1.33-.64-2.08-.7l-.51-.04v.52c-.02,1.17.4,2.29,1.18,3.15.78.87,1.86,1.39,3.02,1.49l.45.04c.12.35.28.68.48.99-.51-.19-1.04-.29-1.6-.29-.2,0-.39.01-.58.04l-.51.07.1.5c.23,1.15.87,2.16,1.81,2.85.78.57,1.72.87,2.69.87.19,0,.38-.01.57-.04l.45-.06c.19.32.42.61.68.87-.73-.11-1.48-.04-2.19.2l-.49.17.2.47c.46,1.08,1.3,1.93,2.36,2.41.59.26,1.22.4,1.86.4.51,0,1.02-.09,1.51-.25l.36-.12c.6.51,1.28,1.02,2.21,1.66-.42.28-.89.59-1.42.92l.91.56c.51-.33.96-.63,1.38-.9.41.28.87.57,1.38.9l.91-.56c-.53-.34-1-.64-1.42-.92.93-.64,1.61-1.15,2.21-1.66l.36.12c.49.17,1,.25,1.51.25h0c.64,0,1.27-.13,1.86-.39,1.06-.48,1.9-1.33,2.36-2.41l.2-.47-.49-.17c-.71-.25-1.46-.31-2.19-.2.26-.26.49-.56.68-.88l.45.06c.19.02.38.04.58.04h0c.97,0,1.9-.3,2.69-.87.94-.69,1.59-1.7,1.81-2.85l.1-.5-.51-.07c-.19-.02-.39-.04-.59-.04-.55,0-1.09.1-1.6.29.2-.31.36-.64.48-.99l.45-.04c1.17-.1,2.24-.63,3.02-1.49.78-.86,1.2-1.98,1.19-3.15v-.52s-.52.04-.52.04c-.75.06-1.46.3-2.08.7.13-.35.22-.71.27-1.07l.43-.13h0Z"/><path d="m34.59,40.55c-.98,1.44-2.1,2.77-3.46,4.06-4.18,3.84-8.87,5.96-10.19,6.51-1.32-.55-6.01-2.67-10.19-6.51-1.35-1.3-2.48-2.63-3.46-4.06C2.55,33.61,1.93,25.55,1.93,19.29h0l19.02-1.06,19.01,1.05c0,6.26-.63,14.32-5.37,21.26h0ZM2.94,3.13c3.54-.39,11.48-1.18,18.01-1.18s14.47.79,18.01,1.18l.99,13.93H1.95l.99-13.93h0Zm38.95-1.61l-.84-.11c-.11-.01-11.34-1.41-20.09-1.41h-.01C12.19,0,.96,1.4.85,1.41L0,1.52v15.54h0v2.17c0,6.55.65,15.01,5.71,22.42,1.04,1.53,2.23,2.93,3.65,4.3h0s.02.02.03.03c2.74,2.64,6.37,5.13,11.56,8.02h0s0,0,0,0c0,0,0,0,0,0h0c5.19-2.9,8.81-5.39,11.56-8.03,0,0,.02-.02.03-.02h0c1.42-1.37,2.6-2.78,3.65-4.3,5.06-7.41,5.71-15.87,5.71-22.42v-.31h0V1.52h0Z"/></g><g><polygon points="53.27 3.21 53.27 14.19 55.68 14.19 58.54 6.31 67.83 6.19 67.83 43.76 60.39 44.57 60.71 46.74 71.12 46.55 81.16 46.74 81.47 44.57 74.34 43.76 74.34 6.19 83.64 6.31 86.5 14.19 88.91 14.19 88.91 3.21 71.06 3.4 53.27 3.21"/><polygon points="121.46 43.64 104.41 43.82 104.41 25.22 113.09 25.47 115.57 31.98 117.74 31.98 117.12 23.61 117.74 15.86 115.57 15.86 113.09 22.37 104.41 22.62 104.41 6.13 120.84 6.31 124.31 14.37 126.42 14.37 125.8 3.21 101.19 3.4 92.63 3.21 92.32 5.38 97.9 6.19 97.9 43.76 92.32 44.57 92.63 46.74 101.19 46.55 125.8 46.74 127.97 35.27 125.62 35.27 121.46 43.64"/><path d="m193.45,2.66l-3.72,1.05-15.38,40.17-2.99.4-2.97-.46-13.76-20.27,12.71-17.48,4.84-.68-.31-2.17-7.25.19-7.25-.19-.31,2.17,5.39.8-9.84,14.46-8.76-14.53,5.27-.8-.31-2.17-8.8.25-8.87-.25-.31,2.17,4.84.68,12.83,19.4-13.39,18.41-4.84.68.31,2.23,6.94-.19,7.25.19.31-2.23-5.08-.74,10.57-15.46,9.64,15.4-5.27.8.31,2.23,8.87-.19,7.24.15,5.09-.15,7.44.19.31-2.17-5.39-.81,4.03-11.59h15.31l4.22,11.59-5.27.81.31,2.17,8.18-.19,8.56.19.31-2.17-4.84-.68L193.45,2.66Zm-9.61,26.6l6.43-18.59,6.78,18.59h-13.21Z"/><path d="m235.48,22.37l-7.13-3.1c-3.41-1.49-5.83-3.6-5.83-7.01,0-4.15,2.91-6.82,7.81-6.82,3.72,0,5.71,1.37,7.32,3.04l1.8,5.64h3.1V5.76c-3.1-2.29-7.44-3.6-11.34-3.6-8.62,1.8-14.82,5.77-14.82,12.52,0,5.52,3.66,8.37,8.12,10.29l7.5,3.29c3.72,1.61,6.45,4.03,6.45,8.25,0,4.53-3.1,7.87-8.43,7.87-3.47,0-6.88-1.61-8.74-3.91l-2.17-5.27h-4.34l1.36,8.37c3.29,2.6,7.13,4.21,12.83,4.21,11.65-2.42,15.62-8.06,15.62-13.89.06-6.32-4.22-9.42-9.11-11.53Z"/></g></g><g><path d="m72.56,65.43l-1.24.04-.07-.46.65-.13v-3.77c0-.69-.32-.99-.84-.99-.4,0-.91.29-1.4.59l-.4.25v3.92l.73.13-.07.46-1.25-.04-1.39.04-.07-.46.79-.13v-8.08l-.48.08-2.68-.04v8l1.52.17-.07.46-2.14-.04-2.22.04-.07-.46,1.58-.17v-8l-1.98.04-.61,1.65h-.52v-2.34l3.79.03,3.25-.03,1.41-.16h.45v4.28l1.93-1.25c1.69,0,1.97.63,1.97,2.31v3.51l.99.13-.07.46-1.52-.04Z"/><path d="m76,62.09c0,1.5.81,2.57,2.19,2.57.53,0,1.16-.25,1.65-.55l.21.5c-.63.44-1.47.81-2.31,1.04-1.6,0-3.04-1.13-3.04-3.21,0-1.95,1.17-3,2.98-3.39,1.74,0,2.34,1.1,2.34,2.48v.55h-4.03Zm2.65-.66c0-1.02-.2-1.72-1.21-1.72-.81,0-1.32.75-1.43,1.85l2.64-.13Z"/><path d="m89.01,56.66l.07-.46,1.69.04,1.54-.04.07.46-1.12.17v5.38c0,1.72-.7,2.86-3.33,3.47-2.6,0-3.52-1.4-3.52-3.5v-5.36l-1.19-.17.07-.46,1.82.04,1.81-.04.07.46-1.12.17v5.56c0,1.64.7,2.57,2.2,2.57,1.37,0,2.14-.92,2.14-2.61v-5.52l-1.19-.17Z"/><path d="m94.16,65.43l-1.52.04-.07-.46.92-.13v-4.82l-.92.08-.07-.46,1.58-.41.57-.04.07,1.11,1.95-1.28c1.69,0,1.97.57,1.97,2.15v3.67l1,.13-.07.46-1.52-.04-1.27.04-.07-.46.66-.13v-3.77c0-.69-.3-.99-.87-.99-.46,0-.92.29-1.37.59l-.4.26v3.91l.73.13-.07.46-1.25-.04Z"/><path d="m101.72,65.43l-1.52.04-.07-.46.92-.13v-4.82l-.92.08-.07-.46,1.58-.41.66-.05v5.66l.99.13-.07.46-1.52-.04Zm-.66-9.08l.95-.07.37.07.07.74-.15.63-.94.08-.36-.08-.08-.74.13-.63Z"/><path d="m107.02,64.61l1.6-4.78-.61-.13.07-.46,1.16.04,1.1-.04.07.46-.84.13-2.16,5.42-.96.4-2.3-5.82-.82-.13.07-.46,1.52.04,1.39-.04.07.46-.87.13,1.44,3.87.11.91Z"/><path d="m111.69,62.09c0,1.5.81,2.57,2.19,2.57.53,0,1.16-.25,1.65-.55l.21.5c-.63.44-1.47.81-2.31,1.04-1.6,0-3.04-1.13-3.04-3.21,0-1.95,1.17-3,2.98-3.39,1.74,0,2.34,1.1,2.34,2.48v.55h-4.03Zm2.65-.66c0-1.02-.2-1.72-1.21-1.72-.81,0-1.32.75-1.43,1.85l2.64-.13Z"/><path d="m118.67,60.96l1.5-1.85h1.06v1.32h-.98c-.32.07-.9.5-1.25.94l-.26.32v3.14l1.39.13-.07.5-1.91-.04-1.48.04-.07-.46.92-.13v-4.82l-.92.08-.07-.46,1.58-.41.53-.04.03,1.74Z"/><path d="m125.39,59.99c-.13-.08-.53-.29-1-.29-.51,0-1,.28-1,.78,0,.42.33.69.92.99l1.02.51c.88.45,1.24.95,1.24,1.7,0,1.19-.96,1.64-2.48,1.97-.81,0-1.66-.4-2.01-.59l-.25-1.49h.84l.45,1.1c.28.19.66.33,1.08.33.7,0,1.06-.45,1.06-1,0-.52-.28-.74-.96-1.1l-1.04-.54c-.57-.29-1.11-.79-1.11-1.53,0-.92.86-1.44,2.39-1.77.71,0,1.48.32,1.86.59v1.32h-.7l-.3-.98Z"/><path d="m129.04,65.43l-1.52.04-.07-.46.92-.13v-4.82l-.92.08-.07-.46,1.58-.41.66-.05v5.66l.99.13-.07.46-1.52-.04Zm-.66-9.08l.95-.07.37.07.07.74-.15.63-.94.08-.36-.08-.08-.74.13-.63Z"/><path d="m135.58,68.55v-1.32h1.13l1.31-1.99-.53.16-2.22-5.56h-1.99v4.03c0,.38.15.79.7.79.38,0,.79-.18,1.16-.37l.22.45-1.66.91c-1.48,0-1.68-.53-1.68-1.72v-3.93h-1.28v-.22l.46-.46h.86v-.86l.86-.86h.34v1.65h4.16l.07.45-.87.13,1.47,3.87.11.91,1.64-4.78-.61-.13.07-.46,1.16.04,1.1-.04.07.46-.84.13-2.14,5.4-1.48,3.33h-1.57Z"/><path d="m150.31,62.22c0,1.97-1.2,3.1-3.25,3.43-1.76,0-2.94-1.36-2.94-3.15,0-1.98,1.2-3.1,3.25-3.44,1.76,0,2.94,1.37,2.94,3.17Zm-2.92,2.79c1.06,0,1.6-1.08,1.6-2.51,0-1.68-.81-2.8-1.95-2.8-1.07,0-1.6,1.08-1.6,2.52s.78,2.79,1.95,2.79Z"/><path d="m153.28,59.38h1.65v.62h-1.65v4.87l1.52.09-.07.5-2.05-.04-1.52.04-.07-.46.92-.13v-4.87h-1.16v-.22l.4-.46h.77v-.13c0-.79.25-1.31.73-1.85l1.11-1.25h1.66v1.06h-1.72l-.25.36c-.18.25-.28.63-.28,1.49v.4Z"/><path d="m165.03,65.46l-2.14-.04-2.22.04-.07-.46,1.58-.17v-8l-1.98.03-.61,1.68h-.52v-2.34l3.79.04,3.8-.04v2.34h-.51l-.61-1.68-1.98-.03v8l1.52.17-.07.46Z"/><path d="m167.38,62.09c0,1.5.81,2.57,2.19,2.57.53,0,1.16-.25,1.65-.55l.21.5c-.63.44-1.47.81-2.31,1.04-1.6,0-3.04-1.13-3.04-3.21,0-1.95,1.17-3,2.98-3.39,1.74,0,2.34,1.1,2.34,2.48v.55h-4.03Zm2.65-.66c0-1.02-.2-1.72-1.21-1.72-.81,0-1.32.75-1.43,1.85l2.64-.13Z"/><path d="m174.42,65l-.07.46-1.03-.04-1.36.04-.07-.46.92-.13,1.95-2.4-1.91-2.63-.82-.13.07-.48,1.52.04,1.25-.04.07.48-.52.13.98,1.46.11.34,1.25-1.81-.65-.13.07-.48,1.03.04,1.36-.04.07.48-.95.13-1.74,2.11,2.07,2.92.82.13-.07.46-1.52-.04-1.25.04-.07-.46.54-.13-1.17-1.7-.11-.3-1.4,2.01.62.13Z"/><path d="m181.9,59.05c1.66,0,2.09.42,2.09,2.1v2.59c0,.57.09.78.22.99h.66l.05.46-1.7.33-.41-1.02-1.57,1.15c-1.14,0-1.94-.63-1.94-1.69,0-.48.17-.82.46-1.21l2.97-.99v-.66c0-.79-.07-1.27-.78-1.27-.36,0-.79.12-1.08.24l-.22,1.04h-1.14v-1l2.39-1.06Zm.83,3.23l-1.91.79c-.2.2-.26.46-.26.74,0,.67.38.91.77.91s.69-.22.86-.34l.55-.38v-1.72Z"/><path d="m189.02,59.99c-.13-.08-.53-.29-1-.29-.51,0-1,.28-1,.78,0,.42.33.69.92.99l1.02.51c.88.45,1.24.95,1.24,1.7,0,1.19-.96,1.64-2.48,1.97-.81,0-1.66-.4-2.01-.59l-.25-1.49h.84l.45,1.1c.28.19.66.33,1.08.33.7,0,1.06-.45,1.06-1,0-.52-.28-.74-.96-1.1l-1.04-.54c-.57-.29-1.11-.79-1.11-1.53,0-.92.86-1.44,2.39-1.77.71,0,1.48.32,1.86.59v1.32h-.7l-.3-.98Z"/><path d="m196.84,59.05c1.66,0,2.09.42,2.09,2.1v2.59c0,.57.09.78.22.99h.66l.05.46-1.7.33-.41-1.02-1.57,1.15c-1.14,0-1.94-.63-1.94-1.69,0-.48.17-.82.46-1.21l2.97-.99v-.66c0-.79-.07-1.27-.78-1.27-.36,0-.79.12-1.08.24l-.22,1.04h-1.14v-1l2.39-1.06Zm.83,3.23l-1.91.79c-.2.2-.26.46-.26.74,0,.67.38.91.77.91s.69-.22.86-.34l.55-.38v-1.72Z"/><path d="m199.8,60v-.22l.46-.46h.86v-.86l.86-.86h.34v1.81h1.99v.59h-1.98v3.87c0,.38.14.79.7.79.38,0,.67-.13,1.04-.32l.22.45-1.54.86c-1.48,0-1.68-.53-1.68-1.72v-3.93h-1.28Z"/><path d="m209.88,62.36l-.86,2.47,1.15.17-.07.46-1.58-.04-1.41.04-.07-.46,1.03-.15,3.27-8.55.79-.22,3.45,8.78,1.03.15-.07.46-1.82-.04-1.74.04-.07-.46,1.12-.17-.9-2.47h-3.26Zm1.76-4.1l-.09-.71-1.45,4.2h2.81l-1.27-3.48Z"/><path d="m222.23,63.74c0,.57.07.78.16.99h.66l.05.46-1.7.33-.37-1.07-1.91,1.2c-1.74,0-2.03-.62-2.03-2.15v-3.44l-.92.07-.07-.51,1.58-.34.66-.05v4.4c0,.69.29.99.94.99.41,0,.94-.33,1.44-.66l.26-.17v-3.71l-.79.07-.07-.51,1.45-.34.66-.05v4.53Z"/><path d="m227.26,59.99c-.13-.08-.53-.29-1-.29-.51,0-1,.28-1,.78,0,.42.33.69.92.99l1.02.51c.88.45,1.24.95,1.24,1.7,0,1.19-.96,1.64-2.48,1.97-.81,0-1.66-.4-2.01-.59l-.25-1.49h.84l.45,1.1c.28.19.66.33,1.08.33.7,0,1.06-.45,1.06-1,0-.52-.28-.74-.96-1.1l-1.04-.54c-.57-.29-1.11-.79-1.11-1.53,0-.92.86-1.44,2.39-1.77.71,0,1.48.32,1.86.59v1.32h-.7l-.3-.98Z"/><path d="m228.85,60v-.22l.46-.46h.86v-.86l.86-.86h.34v1.81h1.99v.59h-1.98v3.87c0,.38.14.79.7.79.38,0,.67-.13,1.04-.32l.22.45-1.54.86c-1.48,0-1.68-.53-1.68-1.72v-3.93h-1.28Z"/><path d="m235.7,65.43l-1.52.04-.07-.46.92-.13v-4.82l-.92.08-.07-.46,1.58-.41.66-.05v5.66l.99.13-.07.46-1.52-.04Zm-.66-9.08l.95-.07.37.07.07.74-.14.63-.94.08-.36-.08-.08-.74.13-.63Z"/><path d="m239.47,65.43l-1.52.04-.07-.46.92-.13v-4.82l-.92.08-.07-.46,1.58-.41.57-.04.07,1.11,1.95-1.28c1.69,0,1.97.57,1.97,2.15v3.67l1,.13-.07.46-1.52-.04-1.27.04-.07-.46.66-.13v-3.77c0-.69-.3-.99-.87-.99-.46,0-.92.29-1.37.59l-.4.26v3.91l.73.13-.07.46-1.25-.04Z"/></g></svg>
