<?xml version="1.0" encoding="UTF-8" standalone="no"?>
<svg
   id="Layer_2"
   data-name="Layer 2"
   viewBox="0 0 3582.0901 1000.78"
   version="1.1"
   width="3582.0901"
   height="1000.78"
   xmlns:xlink="http://www.w3.org/1999/xlink"
   xmlns="http://www.w3.org/2000/svg"
   xmlns:svg="http://www.w3.org/2000/svg">
  <defs
     id="defs25">
    <style
       id="style1">
      .cls-1 {
        fill: url(#linear-gradient-8);
      }

      .cls-2 {
        fill: url(#linear-gradient-7);
      }

      .cls-3 {
        fill: url(#linear-gradient-5);
      }

      .cls-4 {
        fill: url(#linear-gradient-6);
      }

      .cls-5 {
        fill: url(#linear-gradient-9);
      }

      .cls-6 {
        fill: url(#linear-gradient-4);
      }

      .cls-7 {
        fill: url(#linear-gradient-3);
      }

      .cls-8 {
        fill: url(#linear-gradient-2);
      }

      .cls-9 {
        fill: url(#linear-gradient);
      }

      .cls-10, .cls-11 {
        fill: #fff;
      }

      .cls-12 {
        fill: url(#linear-gradient-10);
      }

      .cls-13 {
        fill: url(#linear-gradient-11);
      }

      .cls-14 {
        fill: url(#linear-gradient-12);
      }

      .cls-15 {
        fill: url(#linear-gradient-13);
      }

      .cls-16 {
        fill: url(#linear-gradient-19);
      }

      .cls-17 {
        fill: url(#linear-gradient-14);
      }

      .cls-18 {
        fill: url(#linear-gradient-21);
      }

      .cls-19 {
        fill: url(#linear-gradient-20);
      }

      .cls-20 {
        fill: url(#linear-gradient-22);
      }

      .cls-21 {
        fill: url(#linear-gradient-23);
      }

      .cls-22 {
        fill: url(#linear-gradient-28);
      }

      .cls-23 {
        fill: url(#linear-gradient-25);
      }

      .cls-24 {
        fill: url(#linear-gradient-15);
      }

      .cls-25 {
        fill: url(#linear-gradient-16);
      }

      .cls-26 {
        fill: url(#linear-gradient-17);
      }

      .cls-27 {
        fill: url(#linear-gradient-18);
      }

      .cls-28 {
        fill: url(#linear-gradient-27);
      }

      .cls-29 {
        fill: url(#linear-gradient-24);
      }

      .cls-30 {
        fill: url(#linear-gradient-26);
      }

      .cls-31 {
        fill: url(#linear-gradient-29);
      }

      .cls-32 {
        opacity: .15;
      }

      .cls-11 {
        stroke: #fff;
        stroke-miterlimit: 10;
        stroke-width: 20px;
      }
    </style>
    <linearGradient
       id="linear-gradient"
       x1="2658.1899"
       y1="869.14001"
       x2="3758.4199"
       y2="138.84"
       gradientUnits="userSpaceOnUse">
      <stop
         offset="0"
         stop-color="#e8e8e8"
         id="stop1" />
      <stop
         offset=".07"
         stop-color="#d0d0d0"
         id="stop2" />
      <stop
         offset=".18"
         stop-color="#aeaeae"
         id="stop3" />
      <stop
         offset=".3"
         stop-color="#969696"
         id="stop4" />
      <stop
         offset=".4"
         stop-color="#878787"
         id="stop5" />
      <stop
         offset=".48"
         stop-color="#828282"
         id="stop6" />
      <stop
         offset="1"
         stop-color="#d2d2d2"
         id="stop7" />
    </linearGradient>
    <linearGradient
       id="linear-gradient-2"
       x1="2735.3"
       y1="985.31"
       x2="3835.54"
       y2="255.00999"
       xlink:href="#linear-gradient" />
    <linearGradient
       id="linear-gradient-3"
       x1="2510.03"
       y1="1060.77"
       x2="3274.02"
       y2="356.84"
       gradientUnits="userSpaceOnUse">
      <stop
         offset="0"
         stop-color="#e8e8e8"
         id="stop8" />
      <stop
         offset=".14"
         stop-color="#d0d0d0"
         id="stop9" />
      <stop
         offset=".38"
         stop-color="#aeaeae"
         id="stop10" />
      <stop
         offset=".61"
         stop-color="#969696"
         id="stop11" />
      <stop
         offset=".83"
         stop-color="#878787"
         id="stop12" />
      <stop
         offset="1"
         stop-color="#828282"
         id="stop13" />
    </linearGradient>
    <linearGradient
       id="linear-gradient-4"
       x1="3309.72"
       y1="749.79999"
       x2="3165.1499"
       y2="929.97998"
       xlink:href="#linear-gradient-3" />
    <linearGradient
       id="linear-gradient-5"
       x1="2668"
       y1="1179.9"
       x2="3862.7"
       y2="79.120003"
       xlink:href="#linear-gradient-3" />
    <linearGradient
       id="linear-gradient-6"
       x1="3711.72"
       y1="515.77002"
       x2="3246.1201"
       y2="976.59998"
       xlink:href="#linear-gradient-3" />
    <linearGradient
       id="linear-gradient-7"
       x1="1359.35"
       y1="1005.99"
       x2="1455.05"
       y2="977.16998"
       gradientTransform="matrix(-1,0,0,1,4158.26,0)"
       gradientUnits="userSpaceOnUse">
      <stop
         offset="0"
         stop-color="#e8e8e8"
         id="stop14" />
      <stop
         offset=".06"
         stop-color="#d5d5d5"
         id="stop15" />
      <stop
         offset=".2"
         stop-color="#b1b1b1"
         id="stop16" />
      <stop
         offset=".33"
         stop-color="#979797"
         id="stop17" />
      <stop
         offset=".45"
         stop-color="#878787"
         id="stop18" />
      <stop
         offset=".54"
         stop-color="#828282"
         id="stop19" />
      <stop
         offset=".65"
         stop-color="#757676"
         id="stop20" />
      <stop
         offset=".84"
         stop-color="#676767"
         id="stop21" />
      <stop
         offset="1"
         stop-color="#626363"
         id="stop22" />
    </linearGradient>
    <linearGradient
       id="linear-gradient-8"
       x1="1340.8"
       y1="586.90002"
       x2="1408.51"
       y2="566.51001"
       xlink:href="#linear-gradient-7" />
    <linearGradient
       id="linear-gradient-9"
       x1="1207.12"
       y1="587.42999"
       x2="1274.83"
       y2="567.03998"
       xlink:href="#linear-gradient-7" />
    <linearGradient
       id="linear-gradient-10"
       x1="765.45001"
       y1="722.71002"
       x2="833.01001"
       y2="702.35999"
       xlink:href="#linear-gradient-7" />
    <linearGradient
       id="linear-gradient-11"
       x1="889.40002"
       y1="949.42999"
       x2="1087.03"
       y2="889.90997"
       xlink:href="#linear-gradient-7" />
    <linearGradient
       id="linear-gradient-12"
       x1="524.34998"
       y1="988.32001"
       x2="1207.4301"
       y2="782.62"
       xlink:href="#linear-gradient-7" />
    <linearGradient
       id="linear-gradient-13"
       x1="3091.1699"
       y1="617.96002"
       x2="2563.5901"
       y2="1071.66"
       xlink:href="#linear-gradient-7" />
    <linearGradient
       id="linear-gradient-14"
       x1="3186.73"
       y1="474.20001"
       x2="2956.3101"
       y2="643.22998"
       xlink:href="#linear-gradient-7" />
    <linearGradient
       id="linear-gradient-15"
       x1="3597.28"
       y1="239.73"
       x2="3352.78"
       y2="388.54999"
       xlink:href="#linear-gradient-3" />
    <linearGradient
       id="linear-gradient-16"
       x1="3578.1799"
       y1="768.47998"
       x2="3368.23"
       y2="714.27002"
       xlink:href="#linear-gradient-3" />
    <linearGradient
       id="linear-gradient-17"
       x1="2600.78"
       y1="924.57001"
       x2="3278.1499"
       y2="300.45999"
       xlink:href="#linear-gradient-3" />
    <linearGradient
       id="linear-gradient-18"
       x1="3370.3999"
       y1="517.35999"
       x2="3536.23"
       y2="368.53"
       xlink:href="#linear-gradient-3" />
    <linearGradient
       id="linear-gradient-19"
       x1="3300.4299"
       y1="949.82001"
       x2="3732.02"
       y2="419.37"
       xlink:href="#linear-gradient-3" />
    <linearGradient
       id="linear-gradient-20"
       x1="3237.7"
       y1="710.65997"
       x2="3319.1799"
       y2="635.58002"
       xlink:href="#linear-gradient-3" />
    <linearGradient
       id="linear-gradient-21"
       x1="3321.01"
       y1="747.82001"
       x2="3391.1699"
       y2="685.63"
       xlink:href="#linear-gradient-3" />
    <linearGradient
       id="linear-gradient-22"
       x1="3588.9199"
       y1="550.62"
       x2="3439.04"
       y2="665.42999"
       xlink:href="#linear-gradient-3" />
    <linearGradient
       id="linear-gradient-23"
       x1="3467.1699"
       y1="373.04001"
       x2="3246.6001"
       y2="568.10999"
       xlink:href="#linear-gradient-3" />
    <linearGradient
       id="linear-gradient-24"
       x1="3704.0901"
       y1="364.34"
       x2="3682.5601"
       y2="304.81"
       xlink:href="#linear-gradient-3" />
    <linearGradient
       id="linear-gradient-25"
       x1="3185.0601"
       y1="313.14999"
       x2="3081.4099"
       y2="474.20001"
       xlink:href="#linear-gradient-7" />
    <linearGradient
       id="linear-gradient-26"
       x1="1340.96"
       y1="586.76001"
       x2="1408.55"
       y2="566.40997"
       xlink:href="#linear-gradient-7" />
    <linearGradient
       id="linear-gradient-27"
       x1="3172.6201"
       y1="907.38"
       x2="3387.8899"
       y2="746.33002"
       xlink:href="#linear-gradient-3" />
    <linearGradient
       id="linear-gradient-28"
       x1="2705.77"
       y1="1520.89"
       x2="4370.9102"
       y2="-22.200001"
       gradientUnits="userSpaceOnUse">
      <stop
         offset="0"
         stop-color="#fff"
         id="stop23" />
      <stop
         offset=".45"
         stop-color="#344e94"
         id="stop24" />
      <stop
         offset="1"
         stop-color="#003049"
         id="stop25" />
    </linearGradient>
    <linearGradient
       id="linear-gradient-29"
       x1="2327.3301"
       y1="1112.52"
       x2="3992.47"
       y2="-430.57001"
       xlink:href="#linear-gradient-28" />
    <linearGradient
       xlink:href="#linear-gradient"
       id="linearGradient68"
       gradientUnits="userSpaceOnUse"
       x1="2658.1899"
       y1="869.14001"
       x2="3758.4199"
       y2="138.84" />
    <linearGradient
       xlink:href="#linear-gradient-3"
       id="linearGradient69"
       gradientUnits="userSpaceOnUse"
       x1="2510.03"
       y1="1060.77"
       x2="3274.02"
       y2="356.84" />
    <linearGradient
       xlink:href="#linear-gradient-7"
       id="linearGradient70"
       gradientUnits="userSpaceOnUse"
       gradientTransform="matrix(-1,0,0,1,4158.26,0)"
       x1="1359.35"
       y1="1005.99"
       x2="1455.05"
       y2="977.16998" />
    <linearGradient
       xlink:href="#linear-gradient-28"
       id="linearGradient71"
       gradientUnits="userSpaceOnUse"
       x1="2705.77"
       y1="1520.89"
       x2="4370.9102"
       y2="-22.200001" />
  </defs>
  <g
     id="g29"
     transform="translate(-173.9,-143.93)">
    <polygon
       class="cls-10"
       points="1043.13,773.7 1156.99,673.79 1009.91,673.79 960.56,506.87 911.09,673.79 762.48,673.79 877.8,773.78 836.62,939.29 960.17,839.99 1084.04,939.29 "
       id="polygon25" />
    <polygon
       class="cls-10"
       points="529.25,527.04 529.25,955.78 353.33,955.78 353.33,527.04 173.9,527.04 173.9,386.45 708.66,386.45 708.66,527.04 "
       id="polygon26" />
    <path
       class="cls-10"
       d="m 1278.03,671.03 c 0,-65.59 14.48,-295 284.06,-295 269.58,0 269.58,229.41 269.58,229.41 l -161.06,-0.34 c 0,0 -1.37,-82.76 -108.51,-82.76 -107.14,0 -107.48,82.76 -107.48,148.69 0,65.93 0,147.94 107.48,147.94 107.48,0 107.48,-82 107.48,-82 h 162.09 c 0,0 0,229.23 -269.58,229.23 -269.58,0 -284.06,-229.57 -284.06,-295.16 v 0 z"
       id="path26" />
    <path
       class="cls-10"
       d="m 1883.81,671.03 c 0,-65.59 14.48,-295 284.06,-295 269.58,0 269.58,229.41 269.58,229.41 l -161.06,-0.34 c 0,0 -1.37,-82.76 -108.51,-82.76 -107.14,0 -107.48,82.76 -107.48,148.69 0,65.93 0,147.94 107.48,147.94 107.48,0 107.48,-82 107.48,-82 h 162.09 c 0,0 0,229.23 -269.58,229.23 -269.58,0 -284.06,-229.57 -284.06,-295.16 v 0 z"
       id="path27" />
    <polygon
       class="cls-10"
       points="739.26,686.96 649.89,955.73 808.67,955.73 849.37,782.26 "
       id="polygon27" />
    <polygon
       class="cls-10"
       points="1180.63,686.96 1270.01,955.73 1111.22,955.73 1070.53,782.26 "
       id="polygon28" />
    <polygon
       class="cls-10"
       points="1167.71,648.59 1080.53,386.52 839.06,386.52 751.88,648.72 891.74,648.72 959.73,419.49 1027.34,648.59 "
       id="polygon29" />
  </g>
  <line
     class="cls-11"
     x1="2416.6201"
     y1="142.67001"
     x2="2416.6201"
     y2="911.70001"
     id="line29" />
  <g
     id="g68"
     transform="translate(-173.9,-143.93)">
    <g
       id="g66">
      <g
         id="g30">
        <path
           class="cls-9"
           d="m 3127.49,676.64 c 26.3,-26.3 42.6,-62.62 42.6,-102.67 0,-80.1 -65.17,-145.27 -145.27,-145.27 -80.1,0 -145.27,65.17 -145.27,145.27 0,2.1 0.05,4.18 0.14,6.26 l 79.1,-0.35 c -0.17,-1.95 -0.28,-3.91 -0.28,-5.9 0,-36.56 29.74,-66.3 66.3,-66.3 36.56,0 66.3,29.74 66.3,66.3 0,20.13 -9.03,38.19 -23.24,50.36 l -87.84,87.84 c 0.09,0.03 0.18,0.05 0.27,0.08 L 2697.56,995 h 111.67 l 318.3,-318.3 -0.05,-0.05 z"
           id="path29"
           style="fill:url(#linearGradient68)" />
        <path
           class="cls-8"
           d="m 3472.18,427.37 h -32.3 l -28.4,78.96 h 60.69 c 112.95,0 204.84,91.89 204.84,204.84 0,112.95 -91.89,204.84 -204.84,204.84 -112.95,0 -204.84,-91.89 -204.84,-204.84 h -0.09 c 12.79,-22.31 22.36,-46.12 28.52,-70.89 h 176.41 c 39.09,0 70.9,31.8 70.9,70.89 0,39.09 -31.8,70.89 -70.9,70.89 -39.1,0 -70.89,-31.8 -70.89,-70.89 h -78.96 c 0,82.63 67.23,149.86 149.86,149.86 82.63,0 149.86,-67.23 149.86,-149.86 0,-82.63 -67.23,-149.86 -149.86,-149.86 h -139.21 l 67.94,-188.93 h 316.2 c -2.04,-3.14 -4.09,-6.26 -6.19,-9.36 -16.47,-24.38 -33.26,-47.69 -53.02,-69.61 h -312.52 l -62.28,173.2 c -41.83,-101.53 -141.84,-173.2 -258.29,-173.2 -153.96,0 -279.21,125.26 -279.21,279.21 0,2.29 0.04,4.58 0.09,6.86 l 79,-0.35 c -0.07,-2.16 -0.13,-4.33 -0.13,-6.5 0,-110.42 89.83,-200.25 200.25,-200.25 110.42,0 200.25,89.83 200.25,200.25 0,34.11 -8.5,67.05 -24.73,96.47 h -0.02 c -3.02,5.48 -6.33,10.85 -9.9,16.1 -0.45,0.66 -0.88,1.32 -1.34,1.97 -6.64,9.51 -14.19,18.58 -22.67,27.06 l -280.75,280.74 h 586.51 c 156.49,0 283.81,-127.31 283.81,-283.8 0,-156.49 -127.31,-283.8 -283.81,-283.8 z m -395.87,488.65 123.86,-123.86 c 14.24,47.74 40.71,90.25 75.79,123.86 z"
           id="path30"
           style="fill:url(#linear-gradient-2)" />
      </g>
      <path
         class="cls-7"
         d="m 3127.49,676.64 c 26.3,-26.3 42.6,-62.62 42.6,-102.67 0,-80.1 -65.17,-145.27 -145.27,-145.27 -80.1,0 -145.27,65.17 -145.27,145.27 0,2.1 0.05,4.18 0.14,6.26 l 79.1,-0.35 c -0.17,-1.95 -0.28,-3.91 -0.28,-5.9 0,-36.56 29.74,-66.3 66.3,-66.3 36.56,0 66.3,29.74 66.3,66.3 0,20.13 -9.03,38.19 -23.24,50.36 l -87.84,87.84 c 0.09,0.03 0.18,0.05 0.27,0.08 L 2697.56,995 h 111.67 l 318.3,-318.3 -0.05,-0.05 z m -9.01,0.08 -311.88,311.88 h -93.62 l 271.85,-271.85 7.37,-7.37 -0.26,-0.09 80.29,-80.29 c 16.07,-13.86 25.28,-33.9 25.28,-55.04 0,-40.08 -32.61,-72.68 -72.68,-72.68 -40.07,0 -72.44,32.36 -72.68,72.24 l -66.2,0.3 c 0.08,-76.51 62.36,-138.73 138.89,-138.73 76.53,0 138.89,62.3 138.89,138.89 0,37.04 -14.46,71.9 -40.73,98.16 l -4.55,4.55 0.05,0.05 z"
         id="path31"
         style="fill:url(#linearGradient69)" />
      <g
         class="cls-32"
         id="g50">
        <path
           class="cls-10"
           d="m 3170.09,573.97 c 0,-14.66 -2.19,-28.81 -6.25,-42.16 L 3041.65,429.68 c -5.52,-0.64 -11.14,-0.98 -16.83,-0.98 -44.61,0 -84.58,20.22 -111.25,51.96 l 59.54,51.85 c 12.16,-15.14 30.82,-24.85 51.7,-24.85 36.56,0 66.3,29.74 66.3,66.3 0,17.61 -6.91,33.62 -18.14,45.5 l 59.56,51.86 c 23.32,-25.78 37.55,-59.94 37.55,-97.36 z"
           id="path32" />
        <path
           class="cls-10"
           d="m 2811.94,392.16 59.53,51.84 c 27.41,-32.63 65.02,-56.41 107.87,-66.4 l -70.5,-58.93 c -37.48,17.18 -70.52,42.42 -96.9,73.49 z"
           id="path33" />
        <path
           class="cls-10"
           d="m 3646.36,935.1 -62.52,-52.26 c -32.14,20.97 -70.49,33.18 -111.65,33.18 -26.43,0 -51.71,-5.03 -74.92,-14.19 l 105.14,91.55 c 53.89,-5.73 103.33,-26.6 143.96,-58.28 z"
           id="path34" />
        <path
           class="cls-10"
           d="m 3267.34,711.18 h -0.09 c 12.54,-21.87 21.97,-45.17 28.14,-69.42 l -70.57,-58.99 c -1.52,30.49 -9.86,59.84 -24.47,86.33 h -0.02 c -3.02,5.48 -6.33,10.85 -9.9,16.1 -0.45,0.66 -0.88,1.32 -1.34,1.97 -4.76,6.82 -9.99,13.41 -15.7,19.72 l 120.36,104.8 c -16.81,-29.71 -26.41,-64.02 -26.41,-100.52 z"
           id="path35" />
        <path
           class="cls-10"
           d="m 3404.8,733.2 -26.35,-22.02 h -56.12 c 0,82.63 67.23,149.86 149.86,149.86 23.97,0 46.64,-5.67 66.75,-15.72 l -76.47,-63.92 c -27.1,-3.73 -49.36,-22.83 -57.67,-48.2 z"
           id="path36" />
        <path
           class="cls-10"
           d="m 3491.31,779.45 65.87,55.08 c 8.79,-6.08 16.9,-13.07 24.2,-20.83 l -60.2,-51.32 c -8.29,7.94 -18.51,13.89 -29.86,17.07 z"
           id="path37" />
        <path
           class="cls-10"
           d="m 3090.97,444.65 49.25,41.19 c -13.11,-17.12 -29.92,-31.26 -49.25,-41.19 z"
           id="path38" />
        <path
           class="cls-10"
           d="M 3377.96,640.28 3210.44,497.47 c 7.48,18.39 12.29,38.14 13.97,58.76 l 100.5,84.04 h 53.05 z"
           id="path39" />
        <path
           class="cls-10"
           d="m 3683.34,900.61 -60.09,-51.23 c -7.03,7.68 -14.64,14.83 -22.75,21.36 l 61.39,51.34 c 7.53,-6.78 14.69,-13.95 21.45,-21.48 z"
           id="path40" />
        <path
           class="cls-10"
           d="m 2929.97,310.02 75.68,63.29 c 6.31,-0.6 12.71,-0.91 19.17,-0.91 15.4,0 30.39,1.75 44.8,5.05 l -93.56,-79.75 c -15.87,2.81 -31.27,6.96 -46.1,12.33 z"
           id="path41" />
        <path
           class="cls-10"
           d="M 3424.29,640.28 3021.45,293.44 c -5.41,0.06 -10.78,0.29 -16.11,0.66 l 123.26,107.33 c 19.56,11.9 36.93,27.06 51.35,44.71 l 222.95,194.14 z"
           id="path42" />
        <path
           class="cls-10"
           d="m 3530.52,751.41 59.7,51.99 c 3.16,-4.04 6.12,-8.25 8.87,-12.61 l -61.29,-52.77 c -1.95,4.74 -4.39,9.23 -7.28,13.4 z"
           id="path43" />
        <path
           class="cls-10"
           d="m 3701.17,878.67 -60.07,-51.72 c -2.97,4.32 -6.09,8.51 -9.37,12.58 l 59.56,51.86 c 3.41,-4.14 6.71,-8.38 9.89,-12.72 z"
           id="path44" />
        <path
           class="cls-10"
           d="m 2779.46,439.48 61.59,53.63 c 5.57,-12.83 12.45,-24.97 20.47,-36.25 l -60,-51.66 c -8.15,10.84 -15.53,22.29 -22.06,34.27 z"
           id="path45" />
        <path
           class="cls-10"
           d="m 2885.74,532.02 55.04,47.93 18.02,-0.08 c -0.17,-1.95 -0.28,-3.91 -0.28,-5.9 0,-10.07 2.26,-19.62 6.29,-28.17 l -60.82,-52.37 c -7.87,11.77 -14.07,24.75 -18.25,38.59 z"
           id="path46" />
        <polygon
           class="cls-10"
           points="3092.32,711.91 3122.59,681.64 3062.39,629.81 3032.44,659.77 "
           id="polygon46" />
        <path
           class="cls-10"
           d="m 3200.17,792.16 c 1.96,6.56 4.15,13.02 6.56,19.37 l 210.68,183.45 h 54.77 c 4.68,0 9.32,-0.12 13.94,-0.34 L 3163.65,717 l -30.48,30.48 59.69,51.98 7.3,-7.3 z"
           id="path47" />
        <polygon
           class="cls-10"
           points="3066.93,737.3 3076.29,727.94 3016.1,676.11 3007.05,685.16 "
           id="polygon47" />
        <path
           class="cls-10"
           d="m 2763.84,473.38 65.26,56.83 c 0.91,-4.19 1.95,-8.33 3.11,-12.42 l -64.02,-55.12 c -1.52,3.54 -2.97,7.11 -4.35,10.71 z"
           id="path48" />
        <path
           class="cls-10"
           d="m 2879.56,573.97 c 0,0.06 0,0.12 0,0.18 l 6.95,6.05 18.09,-0.08 -24.3,-20.92 c -0.49,4.86 -0.75,9.79 -0.75,14.77 z"
           id="path49" />
        <path
           class="cls-10"
           d="m 3275.96,916.02 h -3.78 l 90.68,78.96 h 23.59 l -154.71,-133.2 c 12.48,19.86 27.35,38.08 44.21,54.24 z"
           id="path50" />
        <polygon
           class="cls-10"
           points="3167.48,824.85 3177.37,814.96 3117.36,763.3 3107.79,772.87 "
           id="polygon50" />
      </g>
      <path
         class="cls-6"
         d="m 3268.93,916.02 h -192.62 l 123.86,-123.86 3.06,-12.08 -7.57,7.57 -123.86,123.86 -10.89,10.89 h 220.65"
         id="path51"
         style="fill:url(#linear-gradient-4)" />
      <path
         class="cls-3"
         d="m 3472.18,427.37 h -32.3 l -28.4,78.96 h 60.69 c 112.95,0 204.84,91.89 204.84,204.84 0,112.95 -91.89,204.84 -204.84,204.84 -112.95,0 -204.84,-91.89 -204.84,-204.84 h -0.08 c 12.79,-22.31 22.36,-46.12 28.52,-70.89 h 176.41 c 39.09,0 70.9,31.8 70.9,70.89 0,39.09 -31.8,70.89 -70.9,70.89 -39.1,0 -70.89,-31.8 -70.89,-70.89 h -78.96 c 0,82.63 67.23,149.86 149.86,149.86 82.63,0 149.86,-67.23 149.86,-149.86 0,-82.63 -67.23,-149.86 -149.86,-149.86 h -139.21 l 67.94,-188.93 h 324.45 l -59,-78.96 H 3345.4 l -62.28,173.2 c -41.83,-101.53 -141.84,-173.2 -258.29,-173.2 -153.96,0 -279.21,125.26 -279.21,279.21 0,2.29 0.04,4.58 0.09,6.86 l 79,-0.35 c -0.07,-2.16 -0.13,-4.33 -0.13,-6.5 0,-110.42 89.83,-200.25 200.25,-200.25 110.42,0 200.25,89.83 200.25,200.25 0,34.11 -8.5,67.05 -24.73,96.47 h -0.02 c -3.02,5.48 -6.33,10.85 -9.9,16.1 -0.45,0.66 -0.88,1.32 -1.34,1.97 -6.64,9.51 -14.19,18.58 -22.67,27.06 l -280.75,280.74 h 586.51 c 156.49,0 283.81,-127.31 283.81,-283.8 0,-156.49 -127.31,-283.8 -283.81,-283.8 z m 0,561.23 h -571.1 l 269.85,-269.85 c 8.59,-8.59 16.46,-17.98 23.39,-27.91 0.3,-0.44 0.6,-0.88 0.9,-1.32 0.16,-0.24 0.32,-0.48 0.48,-0.72 2.33,-3.42 4.54,-6.89 6.61,-10.34 l 0.12,0.09 3.5,-6.35 c 16.7,-30.27 25.52,-64.7 25.52,-99.55 0,-113.94 -92.69,-206.63 -206.63,-206.63 -113.94,0 -206.63,92.69 -206.63,206.63 v 0.15 l -66.2,0.3 c 0,-0.15 0,-0.3 0,-0.45 0,-150.44 122.39,-272.83 272.83,-272.83 55.05,0 108.14,16.39 153.53,47.41 44.32,30.29 78.5,72.42 98.86,121.84 l 6.3,15.3 5.6,-15.57 60.76,-168.98 h 312.41 l 50.49,66.2 h -316.36 l -1.52,4.22 -67.94,188.93 -3.07,8.54 h 148.29 c 79.11,0 143.48,64.36 143.48,143.48 0,79.12 -64.36,143.48 -143.48,143.48 -79.12,0 -139.99,-60.93 -143.34,-137.1 h 66.32 c 3.26,39.64 36.55,70.89 77.01,70.89 42.61,0 77.28,-34.67 77.28,-77.27 0,-42.6 -34.67,-77.27 -77.28,-77.27 h -181.4 l -1.2,4.84 c -6.02,24.21 -15.39,47.51 -27.86,69.26 -0.55,2.63 -0.63,5.29 -0.66,9.55 3.38,113.53 96.79,204.84 211.13,204.84 114.34,0 211.22,-94.75 211.22,-211.22 0,-116.47 -94.75,-211.22 -211.22,-211.22 h -51.62 l 23.81,-66.2 h 27.81 c 152.97,0 277.43,124.45 277.43,277.42 0,152.97 -124.45,277.42 -277.43,277.42 z"
         id="path52"
         style="fill:url(#linear-gradient-5)" />
      <path
         class="cls-4"
         d="m 2901.08,988.6 h 571.1 c 152.97,0 277.43,-124.45 277.43,-277.42 0,-152.97 -124.45,-277.42 -277.43,-277.42 h -27.81 l -4.49,-6.38 h 32.3 c 156.49,0 283.81,127.31 283.81,283.8 0,156.49 -127.31,283.8 -283.81,283.8 h -586.51 l 15.4,-6.38 z"
         id="path53"
         style="fill:url(#linear-gradient-6)" />
      <polygon
         class="cls-2"
         points="2806.56,988.8 2809.39,995 2697.6,994.98 2713.01,988.6 "
         id="polygon53"
         style="fill:url(#linearGradient70)" />
      <polygon
         class="cls-1"
         points="2818.07,572.85 2824.85,579.22 2745.65,579.52 2752.17,573.24 "
         id="polygon54"
         style="fill:url(#linear-gradient-8)" />
      <polygon
         class="cls-5"
         points="2951.75,573.38 2958.53,579.76 2879.33,580.05 2885.84,573.78 "
         id="polygon55"
         style="fill:url(#linear-gradient-9)" />
      <polygon
         class="cls-12"
         points="3401.32,711.26 3395.3,717.55 3328.86,717.46 3322.39,711.26 "
         id="polygon56"
         style="fill:url(#linear-gradient-10)" />
      <path
         class="cls-13"
         d="m 3291.83,922.36 -230.89,0.04 15.4,-6.35 199.63,-0.07 c 4.84,2.88 10.09,5.07 15.86,6.38 z"
         id="path56"
         style="fill:url(#linear-gradient-11)" />
      <path
         class="cls-14"
         d="m 3487.25,994.65 -602.2,0.62 16.26,-6.38 577.8,-0.27 c 48.54,3.06 179.56,-26.84 241.66,-155.2 12.58,-5.58 11.38,-14.35 24.31,-44.08 -14.12,43.82 -75.24,193.7 -257.82,205.31 z"
         id="path57"
         style="fill:url(#linear-gradient-12)" />
      <path
         class="cls-15"
         d="m 2712.99,988.58 271.84,-271.82 7.37,-7.37 -0.26,-0.09 80.29,-80.29 c 16.07,-13.86 25.28,-33.9 25.28,-55.04 0,-2.23 -0.11,-4.43 -0.3,-6.6 -0.93,3.06 -2.12,6.05 -3.5,8.91 -0.95,1.96 -1.98,3.88 -3.07,5.77 -2.06,16.85 -10.47,31.76 -22.75,42.28 l -87.84,87.84 c 0.09,0.03 0.18,0.05 0.27,0.08 l -282.76,282.76 15.44,-6.42 z"
         id="path58"
         style="fill:url(#linear-gradient-13)" />
      <path
         class="cls-17"
         d="m 3170.09,573.97 c 0,-79.33 -63.91,-143.99 -142.95,-145.24 6.96,1.7 13.83,3.79 20.59,6.17 4.29,1.5 8.54,3.12 12.75,4.83 59.36,15.78 103.23,69.98 103.23,134.24 0,35.67 -13.42,69.32 -37.88,95.22 -0.36,0.74 -0.73,1.48 -1.1,2.21 -3.15,6.24 -6.6,12.34 -10.22,18.32 l 13.03,-13.03 -0.05,-0.05 c 26.3,-26.3 42.6,-62.62 42.6,-102.67 z"
         id="path59"
         style="fill:url(#linear-gradient-14)" />
      <polygon
         class="cls-24"
         points="3662.34,299.76 3666.41,293.38 3345.44,293.38 3349.92,299.76 "
         id="polygon59"
         style="fill:url(#linear-gradient-15)" />
      <path
         class="cls-25"
         d="m 3549.46,711.18 c 0,42.61 -34.67,77.27 -77.28,77.27 -42.61,0 -73.76,-31.26 -77.01,-70.89 l 6.12,-6.38 c 0,39.09 31.8,70.89 70.89,70.89 39.09,0 70.9,-31.8 70.9,-70.89 z"
         id="path60"
         style="fill:url(#linear-gradient-16)" />
      <path
         class="cls-26"
         d="m 2885.68,994.98 280.75,-280.74 c 8.48,-8.48 16.03,-17.54 22.67,-27.06 0.46,-0.65 0.89,-1.32 1.34,-1.97 3.57,-5.25 6.88,-10.62 9.9,-16.11 h 0.02 c 16.23,-29.4 24.73,-62.35 24.73,-96.45 0,-110.42 -89.83,-200.25 -200.25,-200.25 -110.42,0 -200.25,89.83 -200.25,200.25 0,2.18 0.06,4.34 0.13,6.5 l -79,0.35 c -0.06,-2.28 -0.09,-4.57 -0.09,-6.86 0,-113.89 68.54,-212.07 166.54,-255.46 0.44,-0.08 0.87,-0.17 1.31,-0.25 9.65,-1.79 19.35,-3.29 29.1,-4.45 -110.36,34.98 -190.56,138.37 -190.56,260.16 0,0.15 0,0.3 0,0.45 l 66.2,-0.3 v -0.15 c 0,-113.94 92.69,-206.63 206.63,-206.63 113.94,0 206.63,92.69 206.63,206.63 0,34.85 -8.83,69.28 -25.52,99.55 l -3.5,6.35 -0.12,-0.09 c -2.07,3.46 -4.28,6.92 -6.61,10.34 -0.16,0.24 -0.32,0.48 -0.48,0.72 -0.3,0.44 -0.59,0.88 -0.9,1.32 -6.93,9.93 -14.8,19.33 -23.39,27.91 l -269.85,269.85"
         id="path61"
         style="fill:url(#linear-gradient-17)" />
      <polygon
         class="cls-27"
         points="3444.37,433.75 3439.89,427.37 3411.49,506.34 3420.57,499.96 "
         id="polygon61"
         style="fill:url(#linear-gradient-18)" />
      <path
         class="cls-16"
         d="m 3411.49,506.34 h 60.69 c 112.95,0 204.84,91.89 204.84,204.84 0,112.95 -91.89,204.84 -204.84,204.84 -112.95,0 -204.84,-91.89 -204.84,-204.84 l -5.62,-3.17 c -0.55,2.63 -0.63,5.29 -0.66,9.55 3.38,113.53 96.79,204.84 211.13,204.84 114.34,0 211.22,-94.75 211.22,-211.22 0,-116.47 -94.75,-211.22 -211.22,-211.22 h -51.62"
         id="path62"
         style="fill:url(#linear-gradient-19)" />
      <path
         class="cls-19"
         d="m 3261.72,708 c 12.47,-21.75 21.84,-45.05 27.86,-69.26 l 1.2,-4.84 4.99,6.38 c -6.16,24.78 -15.73,48.58 -28.52,70.89 h 0.08 l -5.62,-3.17 z"
         id="path63"
         style="fill:url(#linear-gradient-20)" />
      <polygon
         class="cls-18"
         points="3328.85,717.56 3322.33,711.18 3401.29,711.18 3395.17,717.56 "
         id="polygon63"
         style="fill:url(#linear-gradient-21)" />
      <path
         class="cls-20"
         d="m 3622.04,711.18 c 0,-82.63 -67.23,-149.86 -149.86,-149.86 h -139.21 l -9.07,6.38 h 148.29 c 79.11,0 143.48,64.36 143.48,143.48 h 6.38 z"
         id="path64"
         style="fill:url(#linear-gradient-22)" />
      <polygon
         class="cls-21"
         points="3323.9,567.7 3332.97,561.32 3400.91,372.39 3396.43,366.01 3394.91,370.23 3326.97,559.16 "
         id="polygon64"
         style="fill:url(#linear-gradient-23)" />
      <polygon
         class="cls-29"
         points="3712.82,365.98 3725.4,372.36 3666.4,293.39 3662.33,299.77 "
         id="polygon65"
         style="fill:url(#linear-gradient-24)" />
      <path
         class="cls-23"
         d="m 3022.4,299.82 c 0.81,0 1.61,-0.02 2.42,-0.02 55.05,0 108.14,16.39 153.53,47.41 44.32,30.29 78.5,72.42 98.86,121.84 l 5.37,13.03 c 0.2,-5.11 0.62,-10.21 0.43,-15.32 0,-0.13 0,-0.25 0,-0.38 -41.89,-101.41 -141.83,-172.96 -258.19,-172.96 -11.75,0 -23.33,0.73 -34.7,2.15 0.22,0 0.44,0 0.66,0.01 10.69,0.29 21.13,2.4 31.62,4.23 z"
         id="path65"
         style="fill:url(#linear-gradient-25)" />
      <polygon
         class="cls-30"
         points="2818.21,572.71 2824.65,579.16 2745.59,579.49 2751.97,573.11 "
         id="polygon66"
         style="fill:url(#linear-gradient-26)" />
      <path
         class="cls-28"
         d="m 3200.3,792.16 c 14.24,47.74 40.71,90.25 75.79,123.86 4.55,3.02 10.1,5.11 15.88,6.38 l -11.46,-10.99 c -34.79,-33.34 -60.4,-75.2 -74.09,-121.08 l -3.06,-10.26 -3.06,12.08 z"
         id="path66"
         style="fill:url(#linear-gradient-27)" />
    </g>
    <path
       class="cls-22"
       d="m 3514.82,1026.01 c -28.52,20.6 -59.26,37.92 -91.95,51.74 -57.98,24.52 -119.58,36.96 -183.09,36.96 -63.51,0 -125.11,-12.44 -183.09,-36.96 -32.68,-13.82 -63.42,-31.14 -91.94,-51.74 h -48.58 c 38.69,32.88 81.87,59.51 128.84,79.37 61.7,26.1 127.23,39.33 194.78,39.33 67.55,0 133.08,-13.23 194.78,-39.33 46.96,-19.86 90.15,-46.49 128.84,-79.37 h -48.58 z"
       id="path67"
       style="fill:url(#linearGradient71)" />
    <path
       class="cls-31"
       d="m 2958.87,266.94 c 30.16,-22.51 62.88,-41.27 97.82,-56.05 57.98,-24.52 119.58,-36.96 183.09,-36.96 63.51,0 125.11,12.44 183.09,36.96 34.94,14.78 67.66,33.54 97.82,56.05 h 47.7 c -39.96,-34.87 -84.84,-62.96 -133.84,-83.68 -61.7,-26.1 -127.23,-39.33 -194.78,-39.33 -67.55,0 -133.08,13.23 -194.78,39.33 -49,20.72 -93.88,48.81 -133.84,83.68 h 47.7 z"
       id="path68"
       style="fill:url(#linear-gradient-29)" />
  </g>
</svg>
