<?xml version="1.0" encoding="UTF-8"?>
<svg xmlns="http://www.w3.org/2000/svg">
  <defs>

    <symbol id="tacc-formal" viewBox="0 0 283.44 111">
      <g><rect x="-4.78" y="-4" width="290.67" height="119" fill="none"/><path d="m115.43,74.88l-4.96-20.09,13.81-12.12h-17.84l-5.99-20.25-6,20.25h-18.03l13.99,12.13-5,20.08,14.99-12.05,15.03,12.05Z"/><path d="m5,7.8h64.88v17.06h-21.77v52.02h-21.34V24.86H5V7.8Z"/><path d="m138.96,42.33c0-7.96,1.76-35.79,34.46-35.79s32.71,27.84,32.71,27.84l-19.54-.04s-.17-10.04-13.17-10.04-13.04,10.04-13.04,18.04,0,17.95,13.04,17.95,13.04-9.95,13.04-9.95h19.67s0,27.81-32.71,27.81-34.46-27.85-34.46-35.81h0Z"/><path d="m212.46,42.33c0-7.96,1.76-35.79,34.46-35.79s32.71,27.84,32.71,27.84l-19.54-.04s-.17-10.04-13.17-10.04-13.04,10.04-13.04,18.04,0,17.95,13.04,17.95,13.04-9.95,13.04-9.95h19.67s0,27.81-32.71,27.81-34.46-27.85-34.46-35.81h0Z"/></g><g id="uuid-a08da7fa-00d0-43b9-a011-d7ec9d63bda8"><polygon points="62.75 76.88 82.02 76.88 86.95 55.83 73.6 44.27 62.75 76.88"/><polygon points="137.99 76.88 118.73 76.88 113.79 55.83 127.15 44.27 137.99 76.88"/><polygon points="75.13 39.62 92.1 39.62 100.35 11.81 108.55 39.61 125.58 39.61 115 7.81 85.7 7.81 75.13 39.62"/><g><path d="m13.37,90.78v2.09h-2.77v10.57h-2.55v-10.57h-2.77v-2.09h8.09Z"/><path d="m21.54,90.78v2.09h-4.52v2.98h4.26v2.09h-4.26v3.4h4.7v2.09h-7.25v-12.66h7.07Z"/><path d="m22.47,90.78h2.82l1.63,4.1,1.61-4.1h2.78l-2.94,6.26,3.16,6.4h-2.87l-1.83-4.29-1.81,4.29h-2.8l3.16-6.4s-2.91-6.26-2.91-6.26Z"/><path d="m34.99,90.78h3.16l3.35,12.66h-2.66l-.58-2.68h-3.37l-.58,2.68h-2.66l3.35-12.66h0Zm.34,7.89h2.48l-1.22-5.69h-.04s-1.22,5.69-1.22,5.69Z"/><path d="m44.44,99.49v.37c0,1.19.34,1.95,1.68,1.95.78,0,1.52-.5,1.52-1.56,0-1.15-.58-1.58-2.27-2.16-2.27-.78-3.32-1.72-3.32-3.83,0-2.46,1.51-3.72,3.92-3.72,2.27,0,3.92.98,3.92,3.4v.35h-2.45c0-1.19-.41-1.88-1.38-1.88-1.15,0-1.45.73-1.45,1.47s.23,1.26,1.31,1.72l1.97.85c1.91.83,2.41,1.81,2.41,3.35,0,2.68-1.63,3.88-4.4,3.88s-4.02-1.35-4.02-3.69v-.51h2.56Z"/><path d="m58.3,90.78h3.16l3.35,12.66h-2.66l-.58-2.68h-3.37l-.58,2.68h-2.66l3.35-12.66h0Zm.34,7.89h2.48l-1.22-5.69h-.04s-1.22,5.69-1.22,5.69Z"/><path d="m65.82,90.78h4.18c3.55,0,4.18,2.43,4.18,6.15,0,4.49-.96,6.51-4.34,6.51h-4.02v-12.66Zm2.55,10.78h1.13c1.77,0,2.13-1.12,2.13-4.56,0-2.87-.23-4.34-2.18-4.34h-1.08s0,8.9,0,8.9Z"/><path d="m77.77,90.78l1.79,9.36h.05l1.88-9.36h2.64l-2.91,12.66h-3.28l-2.91-12.66h2.74Z"/><path d="m86.89,90.78h3.16l3.35,12.66h-2.66l-.58-2.68h-3.37l-.58,2.68h-2.66l3.35-12.66h0Zm.34,7.89h2.48l-1.22-5.69h-.04l-1.22,5.69Z"/><path d="m97.23,90.78l3.09,8.67h.04v-8.67h2.34v12.66h-2.91l-3.12-8.87h-.04v8.87h-2.34v-12.66h2.94Z"/><path d="m109.87,95.06c0-1.84-.37-2.64-1.52-2.64-1.29,0-1.6,1.29-1.6,4.88,0,3.83.53,4.52,1.63,4.52.92,0,1.6-.48,1.6-3.21h2.55c0,2.73-.67,5.09-4.02,5.09-3.83,0-4.31-2.73-4.31-6.58s.48-6.58,4.31-6.58,3.92,2.68,3.92,4.52h-2.56Z"/><path d="m121.06,90.78v2.09h-4.52v2.98h4.26v2.09h-4.26v3.4h4.7v2.09h-7.25v-12.66h7.07Z"/><path d="m122.64,90.78h4.18c3.55,0,4.18,2.43,4.18,6.15,0,4.49-.96,6.51-4.34,6.51h-4.02s0-12.66,0-12.66Zm2.55,10.78h1.13c1.77,0,2.13-1.12,2.13-4.56,0-2.87-.23-4.34-2.18-4.34h-1.08s0,8.9,0,8.9Z"/><path d="m142.35,95.06c0-1.84-.37-2.64-1.52-2.64-1.29,0-1.6,1.29-1.6,4.88,0,3.83.53,4.52,1.63,4.52.92,0,1.6-.48,1.6-3.21h2.55c0,2.73-.67,5.09-4.02,5.09-3.83,0-4.31-2.73-4.31-6.58s.48-6.58,4.31-6.58,3.92,2.68,3.92,4.52h-2.56Z"/><path d="m150.51,90.53c3.83,0,4.31,2.73,4.31,6.58s-.48,6.58-4.31,6.58-4.31-2.73-4.31-6.58.48-6.58,4.31-6.58Zm0,11.28c1.51,0,1.76-1.29,1.76-4.7s-.25-4.7-1.76-4.7-1.75,1.31-1.75,4.7.25,4.7,1.75,4.7Z"/><path d="m156.38,90.78h3.79l1.81,8.94h.04l1.83-8.94h3.78v12.66h-2.34v-10.11h-.04l-2.25,10.11h-1.99l-2.25-10.11h-.04v10.11h-2.34v-12.66Z"/><path d="m169.45,90.78h4.47c2.59,0,3.48,1.9,3.48,3.79,0,2.62-1.61,3.81-4.03,3.81h-1.37v5.05h-2.55v-12.66h0Zm2.55,5.74h1.13c1.01,0,1.7-.6,1.7-1.9s-.5-1.95-1.77-1.95h-1.06v3.85Z"/><path d="m181.05,90.78v8.83c0,1.26.3,2.2,1.49,2.2s1.49-.94,1.49-2.2v-8.83h2.55v8.83c0,3.23-1.97,4.08-4.04,4.08s-4.04-.69-4.04-4.08v-8.83h2.55,0Z"/><path d="m195.61,90.78v2.09h-2.77v10.57h-2.55v-10.57h-2.77v-2.09h8.09Z"/><path d="m196.83,103.44v-12.66h2.55v12.66h-2.55Z"/><path d="m204.22,90.78l3.08,8.67h.04v-8.67h2.34v12.66h-2.91l-3.12-8.87h-.04v8.87h-2.34v-12.66h2.95Z"/><path d="m217.08,94.54c0-.94-.42-2.13-1.45-2.13-1.24,0-1.74,1.28-1.74,4.43s.28,4.96,1.76,4.96c.6,0,1.58-.66,1.58-2.02v-1.29h-1.68v-1.88h4.13v6.83h-1.88v-1.17h-.04c-.6.99-1.47,1.42-2.66,1.42-3.14,0-3.76-2.34-3.76-6.72s.99-6.44,4.25-6.44c2.8,0,3.94,1.44,3.94,4.01h-2.45Z"/><path d="m230.98,95.06c0-1.84-.37-2.64-1.52-2.64-1.29,0-1.6,1.29-1.6,4.88,0,3.83.53,4.52,1.63,4.52.92,0,1.6-.48,1.6-3.21h2.55c0,2.73-.67,5.09-4.03,5.09-3.83,0-4.31-2.73-4.31-6.58s.48-6.58,4.31-6.58,3.92,2.68,3.92,4.52c0,0-2.55,0-2.55,0Z"/><path d="m242.17,90.78v2.09h-4.52v2.98h4.26v2.09h-4.26v3.4h4.7v2.09h-7.25v-12.66h7.07Z"/><path d="m246.57,90.78l3.08,8.67h.04v-8.67h2.34v12.66h-2.91l-3.12-8.87h-.04v8.87h-2.34v-12.66h2.95Z"/><path d="m261.22,90.78v2.09h-2.77v10.57h-2.55v-10.57h-2.77v-2.09h8.09Z"/><path d="m269.39,90.78v2.09h-4.52v2.98h4.26v2.09h-4.26v3.4h4.7v2.09h-7.25v-12.66h7.07,0Z"/><path d="m270.84,90.78h4.72c2.09,0,3.37,1.1,3.37,3.26,0,1.68-.67,2.82-2.11,3.12v.04c1.74.23,2,1.19,2.04,3.87.02,1.33.09,2.02.57,2.27v.11h-2.77c-.25-.35-.3-.83-.32-1.33l-.07-2.43c-.04-.99-.48-1.6-1.51-1.6h-1.37v5.35h-2.55v-12.66h0Zm2.55,5.53h1.06c1.22,0,1.92-.53,1.92-1.9,0-1.17-.62-1.75-1.77-1.75h-1.21v3.65h0Z"/></g></g>
    </symbol>

    <symbol id="nsf-logo" viewBox="0 0 576 576">
      <path d="m207.81,233.3l.46.03c13.64,1.02,16.04,6.31,16.04,17.07v52.78l-61.02-75.09-.15-.18h-38.17v5.43h.5c1.88,0,4.45,0,14.57,12.46v83.91c0,11.42-4.92,12.51-15.17,13.7l-.44.05v5.38h41.27v-5.38l-.45-.05c-13.19-1.43-16.41-4.78-16.41-17.06v-70.01l78.57,95.69h5.69v-105c0-8.53,1.21-12.16,13.41-13.7l.44-.06v-5.37h-39.14v5.39Z"/><path d="m321.86,281.52l-26.07-12.95c-14.64-7.31-18-11.14-18-20.48,0-11.24,9.58-16.35,18.49-16.35s17.1,3.9,23.65,11.58c6.8,7.97,9.7,17.24,10.63,20.86l.1.38h5.86v-39.49h-6.21l-.1.37c-.93,3.52-1.75,5.66-5.36,5.66-1.85,0-4.18-.81-7.13-1.83-4.89-1.69-11.6-4.02-20.54-4.02-37.8,0-39.71,29.52-39.71,35.44,0,8.29,0,23.73,30.63,38.42l11.88,5.67c12.14,5.8,19.59,9.92,19.59,21.19,0,1.98-.61,19.37-21.68,19.37-25.66,0-33.64-26.27-35.88-37.56l-.08-.4h-6.05v44.82h6.03l.09-.38c.8-3.2,1.66-5.65,4.84-5.65,1.91,0,4.21.79,7.12,1.78,5.23,1.79,12.4,4.25,23.22,4.25,30.57,0,44.5-19.48,44.5-37.58,0-22.51-17.77-32.08-19.8-33.1Z"/><path d="m351.1,233.3l.72.05c8.31.54,14.88.97,14.88,12.08v85.86c0,10.51-5.03,11.04-15.04,12.09l-.56.06v5.39h64.86v-5.41l-.48-.02c-12.28-.52-19.04-.81-19.04-12.1v-40.83c20.88.18,24.11,11.85,26.15,27.06l.06.43h5.37v-60.96h-5.35l-.07.41c-2.34,13.38-4.55,26.02-25.75,26.02-.13,0-.26,0-.4,0v-40.66c0-7.07,2.48-7.84,12.26-7.84,30.35,0,34.88,11.04,38.72,29.22l.08.4h5.16v-36.66h-101.57v5.4Z"/><path d="m509.25,259.88c-1.66-4.37-3.2-8.77-4.59-13.23-.83-8.42-.87-16.74-.69-24.02,3.01-15.63,14.3-23.9,27.86-29-1.57-3.97-3.53-8.69-4.89-11.97-14.61,7.09-32.21,8.36-45.45-4.14-2.81-2.98-5.57-6.03-8.23-9.17-4.41-7.98-7.91-16.28-10.72-23.58-3.18-15.6,4.08-27.55,14.65-37.46-2.98-3.06-6.59-6.67-9.1-9.18-10.8,12.14-26.56,20.05-43.58,13.57-3.25-1.46-6.48-2.97-9.67-4.58-7.44-5.84-14.12-12.42-19.71-18.29-8.91-13.18-6.78-27.01-.8-40.2-3.92-1.69-8.64-3.65-11.92-5-5.33,15.35-16.88,28.68-35.07,29.21-5.55-.16-11.09-.47-16.63-1.06-7.06-2.31-13.76-5.07-19.64-7.67-13.28-8.76-16.6-22.36-16.12-36.83-4.27-.06-9.38-.06-12.92-.06.95,16.21-4.62,32.95-21.21,40.4-3.84,1.46-7.7,2.83-11.61,4.09-9.03,1.01-18.01,1.06-25.82.87-15.62-3.02-23.89-14.31-29-27.86-3.96,1.57-8.68,3.53-11.94,4.88,7.08,14.64,8.34,32.22-4.15,45.45-3.35,3.16-6.78,6.24-10.33,9.2-7.78,4.24-15.84,7.62-22.95,10.37-15.58,3.2-27.54-4.08-37.45-14.65-3.06,2.98-6.67,6.59-9.17,9.1,12.14,10.8,20.04,26.57,13.56,43.58-1.59,3.55-3.25,7.06-5.01,10.53-5.6,6.97-11.81,13.25-17.39,18.55-13.17,8.91-27,6.77-40.2.79-1.68,3.92-3.64,8.64-5,11.91,15.35,5.34,28.69,16.88,29.21,35.07-.14,4.83-.39,9.65-.84,14.48-2.44,7.92-5.51,15.45-8.41,21.99-8.76,13.27-22.36,16.59-36.84,16.12-.05,4.26-.06,9.38-.05,12.91,16.21-.94,32.96,4.62,40.4,21.23,1.5,3.93,2.91,7.9,4.19,11.92,1,8.98,1.04,17.9.85,25.66-3.02,15.63-14.31,23.89-27.87,29,1.58,3.97,3.53,8.69,4.89,11.96,14.63-7.08,32.22-8.34,45.45,4.15,3.11,3.28,6.14,6.66,9.05,10.14,4.21,7.75,7.58,15.77,10.32,22.84,3.19,15.59-4.08,27.54-14.66,37.45,2.98,3.05,6.59,6.67,9.1,9.17,10.8-12.13,26.57-20.04,43.58-13.56,3.79,1.7,7.55,3.48,11.25,5.39,6.92,5.57,13.14,11.74,18.41,17.27,8.92,13.17,6.78,27,.8,40.2,3.92,1.7,8.64,3.64,11.91,5.01,5.33-15.36,16.88-28.7,35.08-29.21,4.65.13,9.29.37,13.94.79,8.32,2.48,16.24,5.71,23.07,8.74,13.28,8.77,16.59,22.37,16.12,36.84,4.27.06,9.37.06,12.92.06-.95-16.23,4.62-32.96,21.22-40.41,4.4-1.68,8.84-3.23,13.34-4.63,8.4-.82,16.68-.85,23.95-.68,15.63,3.02,23.88,14.31,28.99,27.87,3.96-1.58,8.69-3.54,11.96-4.89-7.08-14.63-8.35-32.22,4.15-45.46,3.35-3.16,6.78-6.23,10.32-9.19,7.41-3.95,15.01-7.14,21.76-9.75,15.58-3.19,27.54,4.08,37.45,14.65,3.05-2.97,6.67-6.59,9.18-9.09-12.14-10.8-20.05-26.57-13.57-43.58,2.12-4.73,4.37-9.39,6.83-13.98,5.23-6.29,10.87-11.98,15.99-16.85,13.18-8.92,27-6.78,40.2-.8,1.68-3.92,3.64-8.62,5-11.92-15.35-5.32-28.68-16.87-29.22-35.05.14-5.11.42-10.21.93-15.31,2.38-7.5,5.3-14.61,8.06-20.83,8.76-13.27,22.35-16.59,36.83-16.12.07-4.28.07-9.38.07-12.92-16.23.95-32.96-4.62-40.42-21.22Zm-62.8-105.74c6.03,1.53,11.49,7.38,15.93,12.73,4.25,6.68,9.33,13.76,11.49,22.04l-.94,3.47c-2.42,5.63-9.45,6.99-14.9,8.74-2.4.37-4.79.75-7.18,1.14-6.1-11.42-13.38-22.12-21.66-31.95,1.82-2.89,3.7-5.75,5.67-8.55,3.06-3.75,6.46-7.8,11.6-7.61Zm-157.89,313.7c-98.81,0-179.2-80.39-179.2-179.19s80.39-179.2,179.2-179.2,179.2,80.39,179.2,179.2-80.39,179.19-179.2,179.19Zm95.29-364.19c5.57-.81,12.08,1.84,17.83,4.76,6.74,4.8,14.67,9.53,20.13,16.75l.46,3.56c-.08,6.12-6.05,10.07-10.42,13.77-2.24,1.35-4.46,2.72-6.67,4.09-9.64-7.93-20.1-14.89-31.22-20.75.6-3.58,1.28-7.15,2.07-10.71,1.4-4.65,2.99-9.69,7.82-11.48Zm-77.54-21.53c6.66-3.96,17.45-2.55,25.13-1.77,1.65.17,3.25.43,4.84.71,4.71,1.18,9.42,2.71,13.72,5.23l1.79,3.11c2.27,5.68-1.73,11.62-4.36,16.72-1.64,2.24-3.26,4.48-4.88,6.72-11.89-3.66-24.3-6.14-37.07-7.31-.74-3.26-1.41-6.53-1.98-9.83-.49-4.82-.96-10.09,2.82-13.59Zm-80.44,8.92c3.73-4.98,11.24-7.79,17.89-9.85,7.77-1.38,16.19-3.32,24.63-2.15l2.84,2.2c4.27,4.38,2.84,11.4,2.37,17.12-.59,2.39-1.16,4.78-1.72,7.16-13.05,1.18-25.71,3.71-37.84,7.48-1.93-2.72-3.8-5.49-5.6-8.32-2.28-4.27-4.73-8.96-2.58-13.64Zm-57.21,22.49c6.38-4.11,13.14-8.77,21.01-10.81l3.46.93c5.61,2.42,6.98,9.44,8.73,14.9.37,2.46.77,4.9,1.17,7.35-11.69,6.17-22.63,13.55-32.67,22-2.83-1.78-5.63-3.62-8.37-5.55-3.75-3.08-7.81-6.47-7.61-11.62,1.67-6.6,8.57-12.55,14.28-17.2Zm-58.78,60.22c4.39-6.32,8.91-13.39,15.51-18.39l3.57-.46c6.12.08,10.07,6.05,13.77,10.42,1.31,2.16,2.63,4.31,3.96,6.45-7.91,9.58-14.85,19.98-20.71,31.03-3.38-.57-6.76-1.22-10.12-1.97-4.64-1.4-9.7-2.98-11.48-7.82-.88-6.05,2.32-13.19,5.51-19.28Zm-29.39,72.47c1.4-6.5,2.99-13.32,6.52-19.34l3.12-1.79c5.69-2.26,11.62,1.73,16.72,4.36,2.04,1.5,4.09,2.98,6.14,4.46-3.78,12.09-6.33,24.72-7.53,37.74-3.16.71-6.34,1.36-9.54,1.92-4.83.48-10.09.95-13.59-2.83-3.85-6.48-2.62-16.89-1.83-24.52Zm10.83,105.13c-5.08-3.8-7.9-11.53-9.96-18.26-1.37-7.7-3.27-16.06-2.12-24.43l2.2-2.83c4.38-4.27,11.4-2.85,17.1-2.37,2.29.56,4.58,1.11,6.86,1.65,1.18,13.2,3.74,26.01,7.57,38.27-2.63,1.85-5.29,3.67-8.01,5.4-4.28,2.29-8.96,4.73-13.64,2.58Zm39.48,71.2c-6.56-1.66-12.46-8.46-17.09-14.15-4.08-6.33-8.69-13.06-10.72-20.84l.94-3.46c2.42-5.63,9.45-6.99,14.9-8.74,2.35-.36,4.68-.73,7.01-1.11,6.16,11.66,13.53,22.58,21.95,32.59-1.73,2.74-3.51,5.46-5.37,8.12-3.07,3.75-6.46,7.81-11.62,7.6Zm62.87,50.27c-6.32.93-13.85-2.61-20.1-5.94-6.26-4.35-13.21-8.83-18.14-15.34l-.45-3.55c.08-6.12,6.05-10.08,10.42-13.79,2.07-1.25,4.12-2.51,6.17-3.78,9.81,8.11,20.48,15.21,31.83,21.16-.56,3.26-1.19,6.52-1.92,9.75-1.4,4.65-2.98,9.69-7.81,11.47Zm78.26,22.35c-6.04,3.59-15.49,2.76-22.92,2-7.13-1.53-14.8-3.06-21.48-6.98l-1.78-3.11c-2.27-5.68,1.73-11.62,4.35-16.72,1.46-1.98,2.89-3.96,4.32-5.95,12.3,3.79,25.15,6.32,38.39,7.45.73,3.22,1.39,6.46,1.96,9.72.47,4.83.95,10.09-2.84,13.6Zm80.31-9.27c-4.32,5.79-13.75,8.64-21,10.79-6.84,1.26-14.12,2.57-21.38,1.57l-2.83-2.2c-4.28-4.38-2.85-11.4-2.37-17.11.6-2.43,1.17-4.85,1.74-7.28,13-1.26,25.62-3.88,37.69-7.71,1.92,2.72,3.79,5.48,5.58,8.29,2.28,4.27,4.74,8.97,2.58,13.64Zm55.18-21.17c-5.78,3.75-11.94,7.67-18.96,9.51l-3.46-.95c-5.63-2.42-6.99-9.45-8.75-14.91-.38-2.51-.78-5.01-1.19-7.51,11.22-6.01,21.75-13.15,31.43-21.26,2.86,1.8,5.69,3.67,8.46,5.62,3.76,3.07,7.81,6.45,7.61,11.61-1.77,6.96-9.29,13.15-15.14,17.9Zm57.58-58.04c-.11.2-.23.39-.34.59-3.69,5.33-7.7,10.83-13.1,14.93l-3.57.45c-6.12-.07-10.07-6.05-13.78-10.42-1.32-2.18-2.65-4.33-3.98-6.49,8.32-10.05,15.58-20.99,21.64-32.66,3.23.55,6.44,1.18,9.65,1.89,4.64,1.41,9.68,2.99,11.47,7.82,1.11,7.67-4.32,17.1-7.99,23.9Zm31.53-76.16c-.05.49-.12.97-.19,1.46-1.29,5.76-2.9,11.66-6,16.95l-3.11,1.8c-5.69,2.26-11.63-1.75-16.72-4.36-1.99-1.46-3.98-2.91-5.98-4.34,3.66-12.05,6.11-24.62,7.22-37.56,3.12-.7,6.26-1.34,9.42-1.89,4.83-.48,10.11-.94,13.6,2.83,3.97,6.66,2.56,17.45,1.77,25.13Zm1.31-63.05l-2.19,2.84c-4.39,4.27-11.4,2.84-17.12,2.38-2.32-.57-4.63-1.12-6.95-1.67-1.25-13.08-3.87-25.76-7.73-37.9,2.63-1.86,5.29-3.68,8.02-5.41,4.27-2.31,8.96-4.74,13.64-2.59,5.73,4.28,8.58,13.56,10.72,20.78,1.27,6.9,2.62,14.23,1.59,21.57Z"/>
    </symbol>

    <symbol id="ut-informal" viewBox="0 0 244.59 54">
      <g><polygon points="20.92 18.04 20.97 18.04 20.97 18.02 20.92 18.02 20.92 18.04 20.92 18.04"/><path d="m26.37,13.49c-1.14-.17-2.21-.34-3.19-.34-.52,0-.98.05-1.39.15l-.23-6.36v-1.05c.45-.19.99-.28,1.69-.28.89,0,1.91.15,2.98.31.95.14,1.92.28,2.92.34l.27,7.6c-1.02-.06-2.05-.21-3.05-.37h0Zm-10.85,0c-1,.16-2.03.31-3.05.37l.27-7.6c1-.06,1.97-.2,2.92-.34,1.08-.16,2.09-.31,2.98-.31.69,0,1.24.09,1.69.28v1.05l-.23,6.36c-.41-.1-.86-.15-1.39-.15-.97,0-2.05.17-3.19.34h0Zm16.15-4.48v-1.45h-.89v-2.47h-.6c-1.28,0-2.54-.19-3.77-.37-1.12-.16-2.18-.32-3.16-.32-.92,0-1.68.14-2.31.44-.63-.3-1.39-.44-2.31-.44-.98,0-2.03.16-3.15.32-1.23.18-2.5.37-3.77.37h-.6v2.47h-.89v1.45h.89v1.96h-.88v1.45h.88v2.68h.6c1.36,0,2.7-.21,3.99-.41,1.09-.17,2.12-.33,3-.33.71,0,1.24.1,1.66.32h1.16c.41-.21.95-.32,1.66-.32.88,0,1.91.16,3,.33,1.29.2,2.63.41,3.99.41h.6v-2.68h.88v-1.45h-.88v-1.96h.89Z"/><path d="m15.69,7.01c-.06,0-.12.02-.18.03-.57.08-1.14.17-1.72.23l-.03.97c.64-.07,1.27-.16,1.9-.26.01,0,.03,0,.04,0v-.97h0Z"/><path d="m16.41,6.91v.97c1.02-.14,1.97-.24,2.78-.18l.04-.96c-.87-.07-1.82.03-2.82.16h0Z"/><path d="m15.69,11.42c-.06,0-.12.02-.18.03-.62.09-1.25.18-1.88.25l-.04.97c.7-.07,1.38-.17,2.06-.27.01,0,.03,0,.04,0v-.97h0Z"/><path d="m16.41,11.32v.97c.96-.13,1.84-.23,2.62-.19l.04-.96c-.83-.04-1.72.05-2.66.18h0Z"/><path d="m15.54,9.24v.97s.07-.01.11-.02c1.29-.19,2.46-.36,3.46-.29l.03-.96c-1.1-.07-2.33.11-3.61.29h0Z"/><path d="m14.81,9.34c-.37.05-.74.1-1.11.14l-.04.97c.39-.04.77-.09,1.14-.14v-.97h0Z"/><path d="m25.05,6.85c-.83-.1-1.63-.16-2.38-.11l.03.96c.7-.06,1.49,0,2.34.12v-.97h0Z"/><path d="m28.11,7.27c-.58-.07-1.16-.15-1.72-.23-.21-.03-.41-.06-.62-.09v.97c.16.02.32.04.48.07.62.09,1.25.19,1.9.26l-.04-.97h0Z"/><path d="m24.85,9.04c-.73-.08-1.44-.13-2.1-.09l.04.96c.62-.04,1.32,0,2.06.1v-.97h0Z"/><path d="m28.19,9.49c-.61-.07-1.21-.16-1.8-.24-.27-.04-.55-.08-.81-.12v.97c.22.03.45.06.68.1.65.1,1.31.19,1.98.26l-.04-.97h0Z"/><path d="m26.29,12.41c.66.1,1.33.19,2.01.27l-.03-.97c-.64-.07-1.26-.16-1.88-.25-.03,0-.06,0-.09-.01v.97h0Z"/><path d="m25.57,11.33c-.96-.13-1.89-.23-2.74-.19l.04.96c.8-.04,1.72.06,2.71.2v-.97h0Z"/><path d="m19.7,26.88l1.25-3.13,1.25,3.13,3.37.22-2.6,2.16.83,3.27-2.86-1.8-2.86,1.8.83-3.27-2.59-2.16,3.37-.22h0Zm-7.64-1.11h0s5.45,3.96,5.45,3.96l-2.1,6.45s0,.02.02.03.02,0,.03,0l5.49-3.99,5.49,3.99s.02,0,.03,0c.02-.01.02-.04.01-.06l-2.09-6.43,5.45-3.96h0s.04-.04.03-.06c0-.02-.04-.04-.06-.03h0s-6.73,0-6.73,0l-2.08-6.4h0s-.02-.05-.05-.05-.05.02-.05.05h0l-2.08,6.4h-6.73s-.05,0-.06.03c0,.02,0,.05.03.06h0Z"/><path d="m34.46,33.86c-.49.54-1.13.92-1.83,1.09.1-.72.41-1.39.9-1.93.5-.54,1.13-.92,1.84-1.09-.1.72-.41,1.39-.9,1.94h0Zm-2.63-4.23c-.09-.73.03-1.46.36-2.11.48.54.79,1.21.89,1.94.1.72-.03,1.46-.36,2.1-.48-.54-.79-1.21-.89-1.94h0Zm1.46-5.51c-.14-.72-.05-1.46.23-2.12.51.51.86,1.17,1,1.89.14.72.06,1.46-.23,2.12-.51-.51-.86-1.17-1-1.88h0Zm3.48,1.61c.05.73-.12,1.45-.48,2.08s-.91,1.13-1.57,1.45c-.05-.73.11-1.45.48-2.08.37-.63.92-1.13,1.57-1.45h0Zm-5.33,13.69c-.59.43-1.29.66-2.02.69.25-.69.69-1.28,1.28-1.71.6-.43,1.29-.67,2.02-.69-.25.68-.69,1.28-1.28,1.71h0Zm-1.7-4.69c.06-.73.33-1.42.79-1.99.36.63.52,1.35.46,2.08-.05.73-.33,1.42-.79,1.99-.36-.63-.52-1.35-.47-2.08h0Zm-1.9,4.91c-.21.7-.62,1.32-1.18,1.78-.22-.69-.23-1.43-.03-2.13.21-.7.62-1.32,1.18-1.78.22.69.23,1.43.03,2.13h0Zm1.1,3.18c-.38.62-.94,1.11-1.61,1.41-.46.21-.96.31-1.47.31h0c-.22,0-.43-.02-.65-.06.38-.62.94-1.11,1.61-1.41.67-.3,1.41-.38,2.12-.26h0Zm-6.29.29c.35-.65.88-1.17,1.52-1.5.07.72-.07,1.45-.42,2.09-.35.64-.88,1.16-1.52,1.5-.07-.72.07-1.45.41-2.09h0Zm-8.14,1.12c-.67-.3-1.23-.79-1.61-1.41.71-.13,1.45-.04,2.12.26.67.3,1.22.79,1.61,1.41-.71.13-1.45.04-2.12-.26h0Zm-.51-4.59c-.21-.7-.2-1.45.03-2.13.56.46.97,1.07,1.18,1.78.21.71.19,1.45-.03,2.13-.56-.46-.97-1.08-1.18-1.78h0Zm3.66,1.96c.64.33,1.17.85,1.52,1.5.35.65.49,1.37.41,2.1-.65-.34-1.17-.86-1.52-1.5-.35-.65-.49-1.37-.41-2.09h0Zm-7.27-2.18c-.59-.43-1.04-1.02-1.28-1.71.73.02,1.42.25,2.02.69.59.43,1.04,1.02,1.28,1.71-.73-.02-1.43-.26-2.02-.69h0Zm.92-6.67c.45.57.73,1.25.79,1.98.06.73-.11,1.45-.47,2.08-.46-.57-.73-1.26-.79-1.99-.06-.73.11-1.45.47-2.08h0Zm-3.95,1.12c-.49-.54-.8-1.22-.9-1.94.7.17,1.34.54,1.83,1.09.49.54.8,1.21.9,1.93-.71-.17-1.34-.54-1.83-1.09h0Zm-.25-4.61c-.65-.31-1.2-.81-1.57-1.45-.37-.63-.53-1.36-.48-2.08.65.31,1.2.81,1.57,1.45.37.63.53,1.36.48,2.08h0Zm.19-5.37c.14-.72.49-1.37,1-1.88.29.67.37,1.4.23,2.12-.14.72-.49,1.37-1,1.89-.29-.67-.37-1.4-.23-2.12h0Zm1.45,5.59c.1-.73.41-1.4.89-1.94.33.65.45,1.38.36,2.11-.1.72-.41,1.4-.89,1.94-.33-.65-.45-1.38-.36-2.1h0Zm25.71.91c1.12-.34,2.06-1.08,2.65-2.08.59-1.01.77-2.19.51-3.34l-.11-.5-.49.15c-.57.17-1.09.44-1.54.8.1-.56.1-1.14,0-1.71-.22-1.15-.86-2.16-1.81-2.85l-.42-.3-.27.44c-.62.99-.84,2.17-.62,3.32.22,1.14.86,2.15,1.8,2.84-.17.39-.29.8-.35,1.23-.28-.76-.75-1.45-1.39-1.97l-.4-.33-.3.42c-.68.95-.97,2.11-.82,3.27.15,1.15.73,2.21,1.63,2.95h.02c-.27.37-.47.77-.62,1.19-.12-.8-.44-1.57-.96-2.22l-.32-.4-.38.35c-.86.79-1.39,1.87-1.48,3.03-.09,1.16.26,2.31.99,3.22l.02.02c-.34.29-.62.64-.85,1.02.05-.81-.1-1.63-.47-2.37l-.23-.46-.44.26c-1.01.6-1.74,1.54-2.08,2.66-.33,1.12-.22,2.31.3,3.36v.03c-.38.22-.73.5-1.03.82.22-.78.23-1.62.02-2.42l-.13-.5-.49.16c-1.11.37-2.02,1.15-2.58,2.18-.53.99-.68,2.14-.42,3.24-.15.1-.3.21-.46.32-.16-.11-.32-.21-.46-.32.26-1.1.12-2.25-.42-3.24-.56-1.03-1.47-1.8-2.58-2.18l-.49-.16-.13.5c-.21.8-.2,1.63.02,2.42-.31-.32-.66-.6-1.04-.82v-.03c.54-1.05.64-2.24.32-3.36-.33-1.12-1.07-2.07-2.08-2.66l-.44-.26-.23.46c-.37.74-.53,1.56-.47,2.37-.23-.38-.52-.72-.85-1.02l.02-.02c.73-.92,1.08-2.06.99-3.23-.09-1.17-.62-2.24-1.48-3.03l-.38-.35-.32.4c-.52.65-.84,1.42-.96,2.22-.15-.42-.36-.81-.62-1.17h.02c.9-.76,1.48-1.81,1.64-2.97.15-1.16-.14-2.32-.82-3.27l-.3-.42-.4.33c-.64.53-1.12,1.21-1.39,1.97-.06-.42-.17-.84-.35-1.23.94-.69,1.58-1.7,1.8-2.84.22-1.15,0-2.33-.62-3.32l-.27-.44-.42.3c-.95.69-1.59,1.7-1.81,2.85-.11.57-.11,1.15,0,1.71-.45-.36-.98-.63-1.54-.8l-.49-.15-.11.5c-.26,1.14-.08,2.33.51,3.34.59,1.01,1.53,1.75,2.65,2.08l.44.13c.04.37.14.73.27,1.07-.62-.4-1.33-.64-2.08-.7l-.51-.04v.52c-.02,1.17.4,2.29,1.18,3.15.78.87,1.86,1.39,3.02,1.49l.45.04c.12.35.28.68.48.99-.51-.19-1.04-.29-1.6-.29-.2,0-.39.01-.58.04l-.51.07.1.5c.23,1.15.87,2.16,1.81,2.85.78.57,1.72.87,2.69.87.19,0,.38-.01.57-.04l.45-.06c.19.32.42.61.68.87-.73-.11-1.48-.04-2.19.2l-.49.17.2.47c.46,1.08,1.3,1.93,2.36,2.41.59.26,1.22.4,1.86.4.51,0,1.02-.09,1.51-.25l.36-.12c.6.51,1.28,1.02,2.21,1.66-.42.28-.89.59-1.42.92l.91.56c.51-.33.96-.63,1.38-.9.41.28.87.57,1.38.9l.91-.56c-.53-.34-1-.64-1.42-.92.93-.64,1.61-1.15,2.21-1.66l.36.12c.49.17,1,.25,1.51.25h0c.64,0,1.27-.13,1.86-.39,1.06-.48,1.9-1.33,2.36-2.41l.2-.47-.49-.17c-.71-.25-1.46-.31-2.19-.2.26-.26.49-.56.68-.87l.45.06c.19.02.38.04.58.04h0c.97,0,1.9-.3,2.69-.87.94-.69,1.59-1.7,1.81-2.85l.1-.5-.51-.07c-.19-.02-.39-.04-.59-.04-.55,0-1.09.1-1.6.29.2-.31.36-.64.48-.99l.45-.04c1.17-.1,2.24-.63,3.02-1.49.78-.86,1.2-1.98,1.19-3.15v-.52s-.52.04-.52.04c-.75.06-1.46.3-2.08.7.13-.35.22-.71.27-1.07l.43-.13h0Z"/><path d="m34.59,40.55c-.98,1.44-2.1,2.77-3.46,4.06-4.18,3.84-8.87,5.96-10.19,6.51-1.32-.55-6.01-2.67-10.19-6.51-1.35-1.3-2.48-2.63-3.46-4.06C2.55,33.61,1.93,25.55,1.93,19.29h0l19.02-1.06,19.01,1.05c0,6.26-.63,14.32-5.37,21.26h0ZM2.94,3.13c3.54-.39,11.48-1.18,18.01-1.18s14.47.79,18.01,1.18l.99,13.93H1.95l.99-13.93h0Zm38.95-1.61l-.84-.11c-.11-.01-11.34-1.41-20.09-1.41h-.01C12.19,0,.96,1.4.85,1.41L0,1.52v15.54h0v2.17c0,6.55.65,15.01,5.71,22.42,1.04,1.53,2.23,2.93,3.65,4.3h0s.02.02.03.03c2.74,2.64,6.37,5.13,11.56,8.02h0s0,0,0,0c0,0,0,0,0,0h0c5.19-2.9,8.81-5.39,11.56-8.03,0,0,.02-.02.03-.02h0c1.42-1.37,2.6-2.78,3.65-4.3,5.06-7.41,5.71-15.87,5.71-22.42v-.31h0V1.52h0Z"/></g><g><polygon points="53.27 3.21 53.27 14.19 55.68 14.19 58.54 6.31 67.83 6.19 67.83 43.76 60.39 44.57 60.71 46.74 71.12 46.55 81.16 46.74 81.47 44.57 74.34 43.76 74.34 6.19 83.64 6.31 86.5 14.19 88.91 14.19 88.91 3.21 71.06 3.4 53.27 3.21"/><polygon points="121.46 43.64 104.41 43.82 104.41 25.22 113.09 25.47 115.57 31.98 117.74 31.98 117.12 23.61 117.74 15.86 115.57 15.86 113.09 22.37 104.41 22.62 104.41 6.13 120.84 6.31 124.31 14.37 126.42 14.37 125.8 3.21 101.19 3.4 92.63 3.21 92.32 5.38 97.9 6.19 97.9 43.76 92.32 44.57 92.63 46.74 101.19 46.55 125.8 46.74 127.97 35.27 125.62 35.27 121.46 43.64"/><path d="m193.45,2.66l-3.72,1.05-15.38,40.17-2.99.4-2.97-.46-13.76-20.27,12.71-17.48,4.84-.68-.31-2.17-7.25.19-7.25-.19-.31,2.17,5.39.8-9.84,14.46-8.76-14.53,5.27-.8-.31-2.17-8.8.25-8.87-.25-.31,2.17,4.84.68,12.83,19.4-13.39,18.41-4.84.68.31,2.23,6.94-.19,7.25.19.31-2.23-5.08-.74,10.57-15.46,9.64,15.4-5.27.8.31,2.23,8.87-.19,7.24.15,5.09-.15,7.44.19.31-2.17-5.39-.81,4.03-11.59h15.31l4.22,11.59-5.27.81.31,2.17,8.18-.19,8.56.19.31-2.17-4.84-.68L193.45,2.66Zm-9.61,26.6l6.43-18.59,6.78,18.59h-13.21Z"/><path d="m235.48,22.37l-7.13-3.1c-3.41-1.49-5.83-3.6-5.83-7.01,0-4.15,2.91-6.82,7.81-6.82,3.72,0,5.71,1.37,7.32,3.04l1.8,5.64h3.1V5.76c-3.1-2.29-7.44-3.6-11.34-3.6-8.62,1.8-14.82,5.77-14.82,12.52,0,5.52,3.66,8.37,8.12,10.29l7.5,3.29c3.72,1.61,6.45,4.03,6.45,8.25,0,4.53-3.1,7.87-8.43,7.87-3.47,0-6.88-1.61-8.74-3.91l-2.17-5.27h-4.34l1.36,8.37c3.29,2.6,7.13,4.21,12.83,4.21,11.65-2.42,15.62-8.06,15.62-13.89.06-6.32-4.22-9.42-9.11-11.53Z"/></g>
    </symbol>

    <symbol id="ut-primary" viewBox="0 0 244.96 68.55">
      <g><g><polygon points="20.92 18.04 20.97 18.04 20.97 18.02 20.92 18.02 20.92 18.04 20.92 18.04"/><path d="m26.37,13.49c-1.14-.17-2.21-.34-3.19-.34-.52,0-.98.05-1.39.15l-.23-6.36v-1.05c.45-.19.99-.28,1.69-.28.89,0,1.91.15,2.98.31.95.14,1.92.28,2.92.34l.27,7.6c-1.02-.06-2.05-.21-3.05-.37h0Zm-10.85,0c-1,.16-2.03.31-3.05.37l.27-7.6c1-.06,1.97-.2,2.92-.34,1.08-.16,2.09-.31,2.98-.31.69,0,1.24.09,1.69.28v1.05l-.23,6.36c-.41-.1-.86-.15-1.39-.15-.97,0-2.05.17-3.19.34h0Zm16.15-4.48v-1.45h-.89v-2.47h-.6c-1.28,0-2.54-.19-3.77-.37-1.12-.16-2.18-.32-3.16-.32-.92,0-1.68.14-2.31.44-.63-.3-1.39-.44-2.31-.44-.98,0-2.03.16-3.15.32-1.23.18-2.5.37-3.77.37h-.6v2.47h-.89v1.45h.89v1.96h-.88v1.45h.88v2.68h.6c1.36,0,2.7-.21,3.99-.41,1.09-.17,2.12-.33,3-.33.71,0,1.24.1,1.66.32h1.16c.41-.21.95-.32,1.66-.32.88,0,1.91.16,3,.33,1.29.2,2.63.41,3.99.41h.6v-2.68h.88v-1.45h-.88v-1.96h.89Z"/><path d="m15.69,7.01c-.06,0-.12.02-.18.03-.57.08-1.14.17-1.72.23l-.03.97c.64-.07,1.27-.16,1.9-.26.01,0,.03,0,.04,0v-.97h0Z"/><path d="m16.41,6.91v.97c1.02-.14,1.97-.24,2.78-.18l.04-.96c-.87-.07-1.82.03-2.82.16h0Z"/><path d="m15.69,11.42c-.06,0-.12.02-.18.03-.62.09-1.25.18-1.88.25l-.04.97c.7-.07,1.38-.17,2.06-.27.01,0,.03,0,.04,0v-.97h0Z"/><path d="m16.41,11.32v.97c.96-.13,1.84-.23,2.62-.19l.04-.96c-.83-.04-1.72.05-2.66.18h0Z"/><path d="m15.54,9.24v.97s.07-.01.11-.02c1.29-.19,2.46-.36,3.46-.29l.03-.96c-1.1-.07-2.33.11-3.61.29h0Z"/><path d="m14.81,9.34c-.37.05-.74.1-1.11.14l-.04.97c.39-.04.77-.09,1.14-.14v-.97h0Z"/><path d="m25.05,6.85c-.83-.1-1.63-.16-2.38-.11l.03.96c.7-.06,1.49,0,2.34.12v-.97h0Z"/><path d="m28.11,7.27c-.58-.07-1.16-.15-1.72-.23-.21-.03-.41-.06-.62-.09v.97c.16.02.32.04.48.07.62.09,1.25.19,1.9.26l-.04-.97h0Z"/><path d="m24.85,9.04c-.73-.08-1.44-.13-2.1-.09l.04.96c.62-.04,1.32,0,2.06.1v-.97h0Z"/><path d="m28.19,9.49c-.61-.07-1.21-.16-1.8-.24-.27-.04-.55-.08-.81-.12v.97c.22.03.45.06.68.1.65.1,1.31.19,1.98.26l-.04-.97h0Z"/><path d="m26.29,12.41c.66.1,1.33.19,2.01.27l-.03-.97c-.64-.07-1.26-.16-1.88-.25-.03,0-.06,0-.09-.01v.97h0Z"/><path d="m25.57,11.33c-.96-.13-1.89-.23-2.74-.19l.04.96c.8-.04,1.72.06,2.71.2v-.97h0Z"/><path d="m19.7,26.88l1.25-3.13,1.25,3.13,3.37.22-2.6,2.16.83,3.27-2.86-1.8-2.86,1.8.83-3.27-2.59-2.16,3.37-.22h0Zm-7.64-1.11h0s5.45,3.96,5.45,3.96l-2.1,6.45s0,.02.02.03c0,0,.02,0,.03,0l5.49-3.99,5.49,3.99s.02,0,.03,0c.02-.01.02-.04.01-.06l-2.09-6.43,5.45-3.96h0s.04-.04.03-.06c0-.02-.04-.04-.06-.03h0s-6.73,0-6.73,0l-2.08-6.4h0s-.02-.05-.05-.05-.05.02-.05.05h0l-2.08,6.4h-6.73s-.05,0-.06.03c0,.02,0,.05.03.06h0Z"/><path d="m34.46,33.86c-.49.54-1.13.92-1.83,1.09.1-.72.41-1.39.9-1.93.5-.55,1.13-.92,1.84-1.09-.1.72-.41,1.39-.9,1.94h0Zm-2.63-4.23c-.09-.73.03-1.46.36-2.11.48.54.79,1.21.89,1.94.1.72-.03,1.46-.36,2.1-.48-.54-.79-1.21-.89-1.94h0Zm1.46-5.51c-.14-.72-.05-1.46.23-2.12.51.51.86,1.17,1,1.89.14.72.06,1.46-.23,2.12-.51-.51-.86-1.17-1-1.88h0Zm3.48,1.61c.05.73-.12,1.45-.48,2.08-.37.63-.91,1.13-1.57,1.45-.05-.73.11-1.45.48-2.08.37-.63.92-1.13,1.57-1.45h0Zm-5.33,13.69c-.59.43-1.29.66-2.02.69.25-.69.69-1.28,1.28-1.71.6-.43,1.29-.67,2.02-.69-.25.68-.69,1.28-1.28,1.71h0Zm-1.7-4.69c.06-.73.33-1.42.79-1.99.36.63.52,1.35.46,2.08-.05.73-.33,1.42-.79,1.99-.36-.63-.52-1.35-.47-2.08h0Zm-1.9,4.91c-.21.7-.62,1.32-1.18,1.78-.22-.69-.23-1.43-.03-2.13.21-.7.62-1.32,1.18-1.78.22.69.23,1.43.03,2.13h0Zm1.1,3.18c-.38.62-.94,1.11-1.61,1.41-.46.21-.96.31-1.47.31h0c-.22,0-.43-.02-.65-.06.38-.62.94-1.11,1.61-1.41.67-.3,1.41-.38,2.12-.26h0Zm-6.29.29c.35-.65.88-1.17,1.52-1.5.07.72-.07,1.45-.42,2.09-.35.64-.88,1.16-1.52,1.5-.07-.72.07-1.45.41-2.09h0Zm-8.14,1.12c-.67-.3-1.23-.79-1.61-1.41.71-.13,1.45-.04,2.12.26.67.3,1.22.79,1.61,1.41-.71.13-1.45.04-2.12-.26h0Zm-.51-4.59c-.21-.7-.2-1.45.03-2.13.56.46.97,1.07,1.18,1.78.21.71.19,1.45-.03,2.13-.56-.46-.97-1.08-1.18-1.78h0Zm3.66,1.96c.64.33,1.17.85,1.52,1.5.35.65.49,1.37.41,2.1-.65-.34-1.17-.86-1.52-1.5-.35-.65-.49-1.37-.41-2.09h0Zm-7.27-2.18c-.59-.43-1.04-1.02-1.28-1.71.73.02,1.42.25,2.02.69.59.43,1.04,1.02,1.28,1.71-.73-.02-1.43-.26-2.02-.69h0Zm.92-6.67c.45.57.73,1.25.79,1.98.06.73-.11,1.45-.47,2.08-.46-.57-.73-1.26-.79-1.99-.06-.73.11-1.45.47-2.08h0Zm-3.95,1.12c-.49-.54-.8-1.22-.9-1.94.7.17,1.34.54,1.83,1.09.49.54.8,1.21.9,1.93-.71-.17-1.34-.54-1.83-1.09h0Zm-.25-4.61c-.65-.31-1.2-.81-1.57-1.45-.37-.63-.53-1.36-.48-2.08.65.31,1.2.81,1.57,1.45.37.63.53,1.36.48,2.08h0Zm.19-5.37c.14-.72.49-1.37,1-1.88.29.67.37,1.4.23,2.12-.14.72-.49,1.37-1,1.89-.29-.67-.37-1.4-.23-2.12h0Zm1.45,5.59c.1-.73.41-1.4.89-1.94.33.65.45,1.38.36,2.11-.1.72-.41,1.4-.89,1.94-.33-.65-.45-1.38-.36-2.1h0Zm25.71.91c1.12-.34,2.06-1.08,2.65-2.08.59-1.01.77-2.19.51-3.34l-.11-.5-.49.15c-.57.17-1.09.44-1.54.8.1-.56.1-1.14,0-1.71-.22-1.15-.86-2.16-1.81-2.85l-.42-.3-.27.44c-.62.99-.84,2.17-.62,3.32.22,1.14.86,2.15,1.8,2.84-.17.39-.29.8-.35,1.23-.28-.76-.75-1.45-1.39-1.97l-.4-.33-.3.42c-.68.95-.97,2.11-.82,3.27.15,1.15.73,2.21,1.63,2.95h.02c-.27.37-.47.77-.62,1.19-.12-.8-.44-1.57-.96-2.22l-.32-.4-.38.35c-.86.79-1.39,1.87-1.48,3.03-.09,1.16.26,2.31.99,3.22l.02.02c-.34.29-.62.64-.85,1.02.05-.81-.1-1.63-.47-2.37l-.23-.46-.44.26c-1.01.6-1.74,1.54-2.08,2.66-.33,1.12-.22,2.31.3,3.36v.03c-.38.22-.73.5-1.03.82.22-.78.23-1.62.02-2.42l-.13-.5-.49.16c-1.11.37-2.02,1.15-2.58,2.18-.53.99-.68,2.14-.42,3.24-.15.1-.3.21-.46.32-.16-.11-.32-.21-.46-.32.26-1.1.12-2.25-.42-3.24-.56-1.03-1.47-1.8-2.58-2.18l-.49-.16-.13.5c-.21.8-.2,1.63.02,2.42-.31-.32-.66-.6-1.04-.82v-.03c.54-1.05.64-2.24.32-3.36-.33-1.12-1.07-2.07-2.08-2.66l-.44-.26-.23.46c-.37.74-.53,1.56-.47,2.37-.23-.38-.52-.72-.85-1.02l.02-.02c.73-.92,1.08-2.06.99-3.23-.09-1.17-.62-2.24-1.48-3.03l-.38-.35-.32.4c-.52.65-.84,1.42-.96,2.22-.15-.42-.36-.81-.62-1.17h.02c.9-.76,1.48-1.81,1.64-2.97.15-1.16-.14-2.32-.82-3.27l-.3-.42-.4.33c-.64.53-1.12,1.21-1.39,1.97-.06-.42-.17-.84-.35-1.23.94-.69,1.58-1.7,1.8-2.84.22-1.15,0-2.33-.62-3.32l-.27-.44-.42.3c-.95.69-1.59,1.7-1.81,2.85-.11.57-.11,1.15,0,1.71-.45-.36-.98-.63-1.54-.8l-.49-.15-.11.5c-.26,1.14-.08,2.33.51,3.34.59,1.01,1.53,1.75,2.65,2.08l.44.13c.04.37.14.73.27,1.07-.62-.4-1.33-.64-2.08-.7l-.51-.04v.52c-.02,1.17.4,2.29,1.18,3.15.78.87,1.86,1.39,3.02,1.49l.45.04c.12.35.28.68.48.99-.51-.19-1.04-.29-1.6-.29-.2,0-.39.01-.58.04l-.51.07.1.5c.23,1.15.87,2.16,1.81,2.85.78.57,1.72.87,2.69.87.19,0,.38-.01.57-.04l.45-.06c.19.32.42.61.68.87-.73-.11-1.48-.04-2.19.2l-.49.17.2.47c.46,1.08,1.3,1.93,2.36,2.41.59.26,1.22.4,1.86.4.51,0,1.02-.09,1.51-.25l.36-.12c.6.51,1.28,1.02,2.21,1.66-.42.28-.89.59-1.42.92l.91.56c.51-.33.96-.63,1.38-.9.41.28.87.57,1.38.9l.91-.56c-.53-.34-1-.64-1.42-.92.93-.64,1.61-1.15,2.21-1.66l.36.12c.49.17,1,.25,1.51.25h0c.64,0,1.27-.13,1.86-.39,1.06-.48,1.9-1.33,2.36-2.41l.2-.47-.49-.17c-.71-.25-1.46-.31-2.19-.2.26-.26.49-.56.68-.88l.45.06c.19.02.38.04.58.04h0c.97,0,1.9-.3,2.69-.87.94-.69,1.59-1.7,1.81-2.85l.1-.5-.51-.07c-.19-.02-.39-.04-.59-.04-.55,0-1.09.1-1.6.29.2-.31.36-.64.48-.99l.45-.04c1.17-.1,2.24-.63,3.02-1.49.78-.86,1.2-1.98,1.19-3.15v-.52s-.52.04-.52.04c-.75.06-1.46.3-2.08.7.13-.35.22-.71.27-1.07l.43-.13h0Z"/><path d="m34.59,40.55c-.98,1.44-2.1,2.77-3.46,4.06-4.18,3.84-8.87,5.96-10.19,6.51-1.32-.55-6.01-2.67-10.19-6.51-1.35-1.3-2.48-2.63-3.46-4.06C2.55,33.61,1.93,25.55,1.93,19.29h0l19.02-1.06,19.01,1.05c0,6.26-.63,14.32-5.37,21.26h0ZM2.94,3.13c3.54-.39,11.48-1.18,18.01-1.18s14.47.79,18.01,1.18l.99,13.93H1.95l.99-13.93h0Zm38.95-1.61l-.84-.11c-.11-.01-11.34-1.41-20.09-1.41h-.01C12.19,0,.96,1.4.85,1.41L0,1.52v15.54h0v2.17c0,6.55.65,15.01,5.71,22.42,1.04,1.53,2.23,2.93,3.65,4.3h0s.02.02.03.03c2.74,2.64,6.37,5.13,11.56,8.02h0s0,0,0,0c0,0,0,0,0,0h0c5.19-2.9,8.81-5.39,11.56-8.03,0,0,.02-.02.03-.02h0c1.42-1.37,2.6-2.78,3.65-4.3,5.06-7.41,5.71-15.87,5.71-22.42v-.31h0V1.52h0Z"/></g><g><polygon points="53.27 3.21 53.27 14.19 55.68 14.19 58.54 6.31 67.83 6.19 67.83 43.76 60.39 44.57 60.71 46.74 71.12 46.55 81.16 46.74 81.47 44.57 74.34 43.76 74.34 6.19 83.64 6.31 86.5 14.19 88.91 14.19 88.91 3.21 71.06 3.4 53.27 3.21"/><polygon points="121.46 43.64 104.41 43.82 104.41 25.22 113.09 25.47 115.57 31.98 117.74 31.98 117.12 23.61 117.74 15.86 115.57 15.86 113.09 22.37 104.41 22.62 104.41 6.13 120.84 6.31 124.31 14.37 126.42 14.37 125.8 3.21 101.19 3.4 92.63 3.21 92.32 5.38 97.9 6.19 97.9 43.76 92.32 44.57 92.63 46.74 101.19 46.55 125.8 46.74 127.97 35.27 125.62 35.27 121.46 43.64"/><path d="m193.45,2.66l-3.72,1.05-15.38,40.17-2.99.4-2.97-.46-13.76-20.27,12.71-17.48,4.84-.68-.31-2.17-7.25.19-7.25-.19-.31,2.17,5.39.8-9.84,14.46-8.76-14.53,5.27-.8-.31-2.17-8.8.25-8.87-.25-.31,2.17,4.84.68,12.83,19.4-13.39,18.41-4.84.68.31,2.23,6.94-.19,7.25.19.31-2.23-5.08-.74,10.57-15.46,9.64,15.4-5.27.8.31,2.23,8.87-.19,7.24.15,5.09-.15,7.44.19.31-2.17-5.39-.81,4.03-11.59h15.31l4.22,11.59-5.27.81.31,2.17,8.18-.19,8.56.19.31-2.17-4.84-.68L193.45,2.66Zm-9.61,26.6l6.43-18.59,6.78,18.59h-13.21Z"/><path d="m235.48,22.37l-7.13-3.1c-3.41-1.49-5.83-3.6-5.83-7.01,0-4.15,2.91-6.82,7.81-6.82,3.72,0,5.71,1.37,7.32,3.04l1.8,5.64h3.1V5.76c-3.1-2.29-7.44-3.6-11.34-3.6-8.62,1.8-14.82,5.77-14.82,12.52,0,5.52,3.66,8.37,8.12,10.29l7.5,3.29c3.72,1.61,6.45,4.03,6.45,8.25,0,4.53-3.1,7.87-8.43,7.87-3.47,0-6.88-1.61-8.74-3.91l-2.17-5.27h-4.34l1.36,8.37c3.29,2.6,7.13,4.21,12.83,4.21,11.65-2.42,15.62-8.06,15.62-13.89.06-6.32-4.22-9.42-9.11-11.53Z"/></g></g><g><path d="m72.56,65.43l-1.24.04-.07-.46.65-.13v-3.77c0-.69-.32-.99-.84-.99-.4,0-.91.29-1.4.59l-.4.25v3.92l.73.13-.07.46-1.25-.04-1.39.04-.07-.46.79-.13v-8.08l-.48.08-2.68-.04v8l1.52.17-.07.46-2.14-.04-2.22.04-.07-.46,1.58-.17v-8l-1.98.04-.61,1.65h-.52v-2.34l3.79.03,3.25-.03,1.41-.16h.45v4.28l1.93-1.25c1.69,0,1.97.63,1.97,2.31v3.51l.99.13-.07.46-1.52-.04Z"/><path d="m76,62.09c0,1.5.81,2.57,2.19,2.57.53,0,1.16-.25,1.65-.55l.21.5c-.63.44-1.47.81-2.31,1.04-1.6,0-3.04-1.13-3.04-3.21,0-1.95,1.17-3,2.98-3.39,1.74,0,2.34,1.1,2.34,2.48v.55h-4.03Zm2.65-.66c0-1.02-.2-1.72-1.21-1.72-.81,0-1.32.75-1.43,1.85l2.64-.13Z"/><path d="m89.01,56.66l.07-.46,1.69.04,1.54-.04.07.46-1.12.17v5.38c0,1.72-.7,2.86-3.33,3.47-2.6,0-3.52-1.4-3.52-3.5v-5.36l-1.19-.17.07-.46,1.82.04,1.81-.04.07.46-1.12.17v5.56c0,1.64.7,2.57,2.2,2.57,1.37,0,2.14-.92,2.14-2.61v-5.52l-1.19-.17Z"/><path d="m94.16,65.43l-1.52.04-.07-.46.92-.13v-4.82l-.92.08-.07-.46,1.58-.41.57-.04.07,1.11,1.95-1.28c1.69,0,1.97.57,1.97,2.15v3.67l1,.13-.07.46-1.52-.04-1.27.04-.07-.46.66-.13v-3.77c0-.69-.3-.99-.87-.99-.46,0-.92.29-1.37.59l-.4.26v3.91l.73.13-.07.46-1.25-.04Z"/><path d="m101.72,65.43l-1.52.04-.07-.46.92-.13v-4.82l-.92.08-.07-.46,1.58-.41.66-.05v5.66l.99.13-.07.46-1.52-.04Zm-.66-9.08l.95-.07.37.07.07.74-.15.63-.94.08-.36-.08-.08-.74.13-.63Z"/><path d="m107.02,64.61l1.6-4.78-.61-.13.07-.46,1.16.04,1.1-.04.07.46-.84.13-2.16,5.42-.96.4-2.3-5.82-.82-.13.07-.46,1.52.04,1.39-.04.07.46-.87.13,1.44,3.87.11.91Z"/><path d="m111.69,62.09c0,1.5.81,2.57,2.19,2.57.53,0,1.16-.25,1.65-.55l.21.5c-.63.44-1.47.81-2.31,1.04-1.6,0-3.04-1.13-3.04-3.21,0-1.95,1.17-3,2.98-3.39,1.74,0,2.34,1.1,2.34,2.48v.55h-4.03Zm2.65-.66c0-1.02-.2-1.72-1.21-1.72-.81,0-1.32.75-1.43,1.85l2.64-.13Z"/><path d="m118.67,60.96l1.5-1.85h1.06v1.32h-.98c-.32.07-.9.5-1.25.94l-.26.32v3.14l1.39.13-.07.5-1.91-.04-1.48.04-.07-.46.92-.13v-4.82l-.92.08-.07-.46,1.58-.41.53-.04.03,1.74Z"/><path d="m125.39,59.99c-.13-.08-.53-.29-1-.29-.51,0-1,.28-1,.78,0,.42.33.69.92.99l1.02.51c.88.45,1.24.95,1.24,1.7,0,1.19-.96,1.64-2.48,1.97-.81,0-1.66-.4-2.01-.59l-.25-1.49h.84l.45,1.1c.28.19.66.33,1.08.33.7,0,1.06-.45,1.06-1,0-.52-.28-.74-.96-1.1l-1.04-.54c-.57-.29-1.11-.79-1.11-1.53,0-.92.86-1.44,2.39-1.77.71,0,1.48.32,1.86.59v1.32h-.7l-.3-.98Z"/><path d="m129.04,65.43l-1.52.04-.07-.46.92-.13v-4.82l-.92.08-.07-.46,1.58-.41.66-.05v5.66l.99.13-.07.46-1.52-.04Zm-.66-9.08l.95-.07.37.07.07.74-.15.63-.94.08-.36-.08-.08-.74.13-.63Z"/><path d="m135.58,68.55v-1.32h1.13l1.31-1.99-.53.16-2.22-5.56h-1.99v4.03c0,.38.15.79.7.79.38,0,.79-.18,1.16-.37l.22.45-1.66.91c-1.48,0-1.68-.53-1.68-1.72v-3.93h-1.28v-.22l.46-.46h.86v-.86l.86-.86h.34v1.65h4.16l.07.45-.87.13,1.47,3.87.11.91,1.64-4.78-.61-.13.07-.46,1.16.04,1.1-.04.07.46-.84.13-2.14,5.4-1.48,3.33h-1.57Z"/><path d="m150.31,62.22c0,1.97-1.2,3.1-3.25,3.43-1.76,0-2.94-1.36-2.94-3.15,0-1.98,1.2-3.1,3.25-3.44,1.76,0,2.94,1.37,2.94,3.17Zm-2.92,2.79c1.06,0,1.6-1.08,1.6-2.51,0-1.68-.81-2.8-1.95-2.8-1.07,0-1.6,1.08-1.6,2.52s.78,2.79,1.95,2.79Z"/><path d="m153.28,59.38h1.65v.62h-1.65v4.87l1.52.09-.07.5-2.05-.04-1.52.04-.07-.46.92-.13v-4.87h-1.16v-.22l.4-.46h.77v-.13c0-.79.25-1.31.73-1.85l1.11-1.25h1.66v1.06h-1.72l-.25.36c-.18.25-.28.63-.28,1.49v.4Z"/><path d="m165.03,65.46l-2.14-.04-2.22.04-.07-.46,1.58-.17v-8l-1.98.03-.61,1.68h-.52v-2.34l3.79.04,3.8-.04v2.34h-.51l-.61-1.68-1.98-.03v8l1.52.17-.07.46Z"/><path d="m167.38,62.09c0,1.5.81,2.57,2.19,2.57.53,0,1.16-.25,1.65-.55l.21.5c-.63.44-1.47.81-2.31,1.04-1.6,0-3.04-1.13-3.04-3.21,0-1.95,1.17-3,2.98-3.39,1.74,0,2.34,1.1,2.34,2.48v.55h-4.03Zm2.65-.66c0-1.02-.2-1.72-1.21-1.72-.81,0-1.32.75-1.43,1.85l2.64-.13Z"/><path d="m174.42,65l-.07.46-1.03-.04-1.36.04-.07-.46.92-.13,1.95-2.4-1.91-2.63-.82-.13.07-.48,1.52.04,1.25-.04.07.48-.52.13.98,1.46.11.34,1.25-1.81-.65-.13.07-.48,1.03.04,1.36-.04.07.48-.95.13-1.74,2.11,2.07,2.92.82.13-.07.46-1.52-.04-1.25.04-.07-.46.54-.13-1.17-1.7-.11-.3-1.4,2.01.62.13Z"/><path d="m181.9,59.05c1.66,0,2.09.42,2.09,2.1v2.59c0,.57.09.78.22.99h.66l.05.46-1.7.33-.41-1.02-1.57,1.15c-1.14,0-1.94-.63-1.94-1.69,0-.48.17-.82.46-1.21l2.97-.99v-.66c0-.79-.07-1.27-.78-1.27-.36,0-.79.12-1.08.24l-.22,1.04h-1.14v-1l2.39-1.06Zm.83,3.23l-1.91.79c-.2.2-.26.46-.26.74,0,.67.38.91.77.91s.69-.22.86-.34l.55-.38v-1.72Z"/><path d="m189.02,59.99c-.13-.08-.53-.29-1-.29-.51,0-1,.28-1,.78,0,.42.33.69.92.99l1.02.51c.88.45,1.24.95,1.24,1.7,0,1.19-.96,1.64-2.48,1.97-.81,0-1.66-.4-2.01-.59l-.25-1.49h.84l.45,1.1c.28.19.66.33,1.08.33.7,0,1.06-.45,1.06-1,0-.52-.28-.74-.96-1.1l-1.04-.54c-.57-.29-1.11-.79-1.11-1.53,0-.92.86-1.44,2.39-1.77.71,0,1.48.32,1.86.59v1.32h-.7l-.3-.98Z"/><path d="m196.84,59.05c1.66,0,2.09.42,2.09,2.1v2.59c0,.57.09.78.22.99h.66l.05.46-1.7.33-.41-1.02-1.57,1.15c-1.14,0-1.94-.63-1.94-1.69,0-.48.17-.82.46-1.21l2.97-.99v-.66c0-.79-.07-1.27-.78-1.27-.36,0-.79.12-1.08.24l-.22,1.04h-1.14v-1l2.39-1.06Zm.83,3.23l-1.91.79c-.2.2-.26.46-.26.74,0,.67.38.91.77.91s.69-.22.86-.34l.55-.38v-1.72Z"/><path d="m199.8,60v-.22l.46-.46h.86v-.86l.86-.86h.34v1.81h1.99v.59h-1.98v3.87c0,.38.14.79.7.79.38,0,.67-.13,1.04-.32l.22.45-1.54.86c-1.48,0-1.68-.53-1.68-1.72v-3.93h-1.28Z"/><path d="m209.88,62.36l-.86,2.47,1.15.17-.07.46-1.58-.04-1.41.04-.07-.46,1.03-.15,3.27-8.55.79-.22,3.45,8.78,1.03.15-.07.46-1.82-.04-1.74.04-.07-.46,1.12-.17-.9-2.47h-3.26Zm1.76-4.1l-.09-.71-1.45,4.2h2.81l-1.27-3.48Z"/><path d="m222.23,63.74c0,.57.07.78.16.99h.66l.05.46-1.7.33-.37-1.07-1.91,1.2c-1.74,0-2.03-.62-2.03-2.15v-3.44l-.92.07-.07-.51,1.58-.34.66-.05v4.4c0,.69.29.99.94.99.41,0,.94-.33,1.44-.66l.26-.17v-3.71l-.79.07-.07-.51,1.45-.34.66-.05v4.53Z"/><path d="m227.26,59.99c-.13-.08-.53-.29-1-.29-.51,0-1,.28-1,.78,0,.42.33.69.92.99l1.02.51c.88.45,1.24.95,1.24,1.7,0,1.19-.96,1.64-2.48,1.97-.81,0-1.66-.4-2.01-.59l-.25-1.49h.84l.45,1.1c.28.19.66.33,1.08.33.7,0,1.06-.45,1.06-1,0-.52-.28-.74-.96-1.1l-1.04-.54c-.57-.29-1.11-.79-1.11-1.53,0-.92.86-1.44,2.39-1.77.71,0,1.48.32,1.86.59v1.32h-.7l-.3-.98Z"/><path d="m228.85,60v-.22l.46-.46h.86v-.86l.86-.86h.34v1.81h1.99v.59h-1.98v3.87c0,.38.14.79.7.79.38,0,.67-.13,1.04-.32l.22.45-1.54.86c-1.48,0-1.68-.53-1.68-1.72v-3.93h-1.28Z"/><path d="m235.7,65.43l-1.52.04-.07-.46.92-.13v-4.82l-.92.08-.07-.46,1.58-.41.66-.05v5.66l.99.13-.07.46-1.52-.04Zm-.66-9.08l.95-.07.37.07.07.74-.14.63-.94.08-.36-.08-.08-.74.13-.63Z"/><path d="m239.47,65.43l-1.52.04-.07-.46.92-.13v-4.82l-.92.08-.07-.46,1.58-.41.57-.04.07,1.11,1.95-1.28c1.69,0,1.97.57,1.97,2.15v3.67l1,.13-.07.46-1.52-.04-1.27.04-.07-.46.66-.13v-3.77c0-.69-.3-.99-.87-.99-.46,0-.92.29-1.37.59l-.4.26v3.91l.73.13-.07.46-1.25-.04Z"/></g>
    </symbol>

  </defs>
</svg>
