<svg xmlns:rdf="http://www.w3.org/1999/02/22-rdf-syntax-ns#" xmlns="http://www.w3.org/2000/svg" xml:space="preserve" height="226.99" width="227" version="1.1" xmlns:cc="http://creativecommons.org/ns#" xmlns:dc="http://purl.org/dc/elements/1.1/" viewBox="0 0 227 226.99126"><g><path fill="#bf5700" d="m1.1992 113.69c0 62.03 50.454 112.5 112.47 112.5 62.048 0 112.53-50.465 112.53-112.5 0-62.032-50.48-112.5-112.53-112.5-62.017 0.0032-112.47 50.468-112.47 112.5"/><path fill="#fff" d="m2.373 113.69c0-61.387 49.925-111.32 111.3-111.32 61.4 0 111.36 49.936 111.36 111.32 0 61.38-49.955 111.32-111.36 111.32-61.372 0-111.3-49.94-111.3-111.32"/><path fill="#bf5700" d="m113.69 6.7595c-59.068 0-106.94 47.876-106.94 106.93 0 59.058 47.868 106.93 106.94 106.93 59.075 0 106.94-47.874 106.94-106.93s-47.869-106.93-106.94-106.93"/><path fill="#fff" d="m113.69 218.13c-57.697 0-104.45-46.765-104.45-104.45 0-57.684 46.751-104.45 104.45-104.45 57.702 0 104.46 46.762 104.46 104.45 0 57.682-46.754 104.45-104.46 104.45"/><path fill="#bf5700" d="m113.7 30.797c-45.797 0-82.907 37.111-82.907 82.893s37.11 82.894 82.904 82.894c45.804 0 82.906-37.111 82.906-82.894 0-45.784-37.102-82.895-82.906-82.895"/><path fill="#fff" d="m113.7 194.37c-44.576 0-80.694-36.121-80.694-80.682 0-44.56 36.118-80.682 80.694-80.682 44.581 0 80.696 36.122 80.696 80.682 0 44.561-36.115 80.682-80.696 80.682"/><path fill="#bf5700" d="m64.928 58.621c-2.123 18.373-3.964 36.951-3.132 48.379 0.99 26.52 17.515 63.529 51.44 82.036l0.45875 0.2475 0.4575-0.2475c33.935-18.508 50.459-55.516 51.45-82.071 0.8325-11.4-1.015-29.975-3.1338-48.341l-0.19625-1.7188-1.35 1.08c-10.81 8.64-31.23 11.081-46.68 0.202l-0.55125-0.38875-0.5525 0.38875c-15.456 10.881-35.868 8.438-46.674-0.211l-1.3512-1.08-0.19625 1.7188z"/><path fill="#fff" d="m113.69 60.082c15.534 10.566 35.548 8.4862 47.045 0.29 1.6825 14.708 3.15 29.409 3.15 40.251 0 2.2562-0.06 4.3462-0.20125 6.2338-0.9675 25.94-17.048 61.962-49.994 80.192-32.938-18.23-49.019-54.252-49.988-80.158-0.135-1.8938-0.2-3.9912-0.2-6.2525 0-10.859 1.4725-25.56 3.1525-40.268 11.498 8.1988 31.51 10.276 47.035-0.29"/><path d="m109.49 70.27c-1.24 0-2.71 0.238-4.34 0.705-2.33 0.612-4.4 0.766-7.283 0.634l-0.463-0.021-1.373 17.84 0.44 0.066c0.685 0.104 1.355 0.152 2.05 0.152 1.779 0 3.379-0.339 4.919-0.669 1.37-0.294 2.79-0.6 4.33-0.651 2.34-0.122 3.54 0.664 5.38 2.1v0.746l0.48-0.375 0.48 0.377v-0.748c1.71-1.341 2.86-2.11 4.93-2.11 0.15 0 0.3 0.003 0.46 0.01 1.53 0.051 2.95 0.357 4.32 0.651 1.55 0.33 3.14 0.671 4.92 0.671 0.69 0 1.36-0.05 2.05-0.154l0.44-0.068-1.37-17.838-0.47 0.021c-2.9 0.133-4.95-0.025-7.27-0.632-1.64-0.469-3.1-0.707-4.35-0.707-2.3 0-3.51 0.83-4.14 1.765-0.63-0.936-1.84-1.765-4.14-1.765z" fill="#bf5700" transform="translate(-.00062561)"/><path d="m109.49 71.227c-1.16 0-2.53 0.226-4.09 0.671-2.31 0.608-4.35 0.793-7.113 0.688l-1.232 16.019c0.486 0.057 0.969 0.084 1.466 0.084 1.679 0 3.149-0.314 4.719-0.65 1.41-0.302 2.88-0.616 4.48-0.67 0.17-0.009 0.34-0.012 0.5-0.012 2.08 0 3.37 0.688 4.93 1.856v-16.014c-0.47-1.327-1.67-1.972-3.66-1.972zm8.28 0.002c-1.99 0-3.19 0.645-3.66 1.972v16.014c1.68-1.261 3.05-1.979 5.43-1.844 1.6 0.054 3.07 0.366 4.48 0.668 1.57 0.336 3.05 0.652 4.72 0.652 0.5 0 0.98-0.027 1.47-0.084l-1.24-16.021c-2.76 0.105-4.8-0.081-7.1-0.686-1.57-0.447-2.94-0.671-4.1-0.671z" transform="translate(-.00062561)" fill="#fff"/><path d="m115.78 13.219c-0.41 0.002-0.82 0.048-1.21 0.086-0.41 0.043-0.81 0.084-1.19 0.084-0.37 0.005-0.74-0.034-1.14-0.069-0.39-0.04-0.8-0.076-1.21-0.074-0.57 0.003-1.07 0.008-1.34 0.283-0.12 0.118-0.17 0.266-0.17 0.428 0 0.493 0.29 0.821 0.77 0.854 0.67 0.047 1.12 0.271 1.13 1.228l0.05 8.789c0 0.94-0.32 1.163-0.62 1.254-0.21 0.065-0.8 0.244-0.79 0.846 0 0.313 0.17 0.549 0.47 0.642 0.17 0.06 0.37 0.055 0.59 0.055 0.41-0.001 0.81-0.046 1.2-0.084 0.4-0.045 0.77-0.084 1.14-0.084 0.41-0.005 0.84 0.037 1.23 0.074 0.36 0.038 0.69 0.071 0.99 0.071 0.58-0.005 1.07-0.009 1.35-0.286 0.12-0.116 0.17-0.266 0.17-0.427 0-0.494-0.3-0.821-0.76-0.854-0.02 0-1.15-0.13-1.16-1.228l-0.05-8.789c0-0.72 0.07-1.115 0.51-1.25 0.02-0.01 0.05-0.014 0.08-0.024 0.27-0.075 0.93-0.251 0.92-0.826 0-0.246-0.1-0.399-0.19-0.486-0.22-0.217-0.53-0.213-0.77-0.213zm4 0.025c-0.36 0.05-0.56 0.265-0.66 0.684 0 0-0.43 1.952-0.43 1.957-0.01 0.064-0.03 0.134-0.05 0.207-0.04 0.166-0.08 0.34-0.1 0.48-0.01 0.159 0.03 0.32 0.12 0.442 0.12 0.15 0.3 0.237 0.55 0.267 0.6 0.075 0.76-0.291 0.78-0.375 0.63-1.646 1.27-1.657 3.02-1.443 0.19 0.02 0.76 0.09 0.9 0.277 0.02 0.021 0.08 0.089 0.05 0.309l-1.09 9.002c-0.11 0.857-0.59 0.999-1.37 1.125-0.19 0.032-0.37 0.059-0.54 0.115-0.02 0.003-0.07 0.012-0.11 0.016-0.18 0.021-0.68 0.083-0.76 0.707-0.03 0.208 0.02 0.381 0.13 0.521 0.17 0.225 0.44 0.258 0.64 0.281 0.58 0.07 1.18 0.103 1.76 0.135 0.58 0.034 1.18 0.067 1.77 0.137 0.58 0.07 1.17 0.183 1.75 0.291 0.57 0.11 1.16 0.221 1.74 0.289 0.57 0.07 0.88-0.131 0.94-0.594 0.07-0.627-0.39-0.804-0.57-0.869-0.04-0.014-0.09-0.032-0.1-0.043-0.15-0.094-0.32-0.165-0.5-0.242-0.73-0.31-1.17-0.558-1.06-1.418l1.09-9.002c0.04-0.29 0.06-0.465 1.07-0.344 1.75 0.213 2.36 0.377 2.58 2.092 0.01 0.191 0.11 0.522 0.68 0.59 0.36 0.045 0.76-0.132 0.8-0.494 0.02-0.161 0.02-0.338 0.02-0.469 0 0 0.05-2.003 0.05-1.998 0.02-0.768-0.1-1.101-0.86-1.193-0.98-0.118-1.98-0.198-2.96-0.278s-1.99-0.162-2.98-0.285c-0.98-0.119-1.97-0.28-2.93-0.433-0.97-0.155-1.97-0.319-2.96-0.44-0.16-0.019-0.3-0.02-0.41-0.004zm-17.47 0.508c-0.24-0.003-0.5 0.009-0.77 0.043-1.18 0.145-2.217 0.724-2.925 1.633-0.682 0.875-1 2.003-0.865 3.088 0.402 3.261 3.03 3.842 5.15 4.312 1.71 0.381 2.77 0.669 2.9 1.719 0.06 0.51-0.05 0.974-0.34 1.338-0.33 0.426-0.86 0.702-1.5 0.781-1.72 0.214-3.16-1.007-3.92-2.221-0.03-0.045-0.058-0.103-0.091-0.17-0.159-0.306-0.429-0.821-1.006-0.746-0.261 0.033-0.457 0.128-0.584 0.289-0.103 0.135-0.15 0.307-0.127 0.487 0.023 0.172 0.098 0.363 0.168 0.529 0.024 0.057 0.047 0.112 0.061 0.152 0.005 0.014 1.02 2.626 1.023 2.637 0.193 0.456 0.666 0.481 0.886 0.492 0.03 0 0.05 0.002 0.07 0.004 0.36 0.026 0.73 0.066 1.08 0.111 0.83 0.1 1.67 0.205 2.59 0.092 1.31-0.163 2.4-0.768 3.17-1.752 0.77-0.992 1.14-2.306 1-3.509-0.41-3.277-3.02-3.821-5.11-4.256-1.74-0.363-2.81-0.641-2.95-1.758-0.03-0.338 0.05-0.645 0.26-0.914 0.29-0.374 0.8-0.635 1.39-0.705 1.28-0.162 2.95 0.807 3.5 2.029l0.04 0.076c0.21 0.444 0.43 0.944 1.05 0.869 0.28-0.035 0.44-0.172 0.52-0.281 0.09-0.116 0.19-0.318 0.15-0.629-0.01-0.084-0.04-0.217-0.13-0.545-0.17-0.645-0.45-1.727-0.52-2.506-0.02-0.177-0.08-0.398-0.27-0.548-0.13-0.108-0.31-0.15-0.52-0.122-0.17 0.02-0.32 0.115-0.51 0.225-0.08 0.053-0.23 0.139-0.28 0.15-0.17 0.022-0.46-0.045-0.79-0.13-0.47-0.112-1.07-0.256-1.8-0.264zm33.16 1.603c-0.15-0.015-0.31 0-0.45 0.077-0.11 0.058-0.25 0.176-0.31 0.404-0.19 0.629 0.44 0.935 0.87 1.143 0.3 0.136 0.61 0.447 0.91 1.787 0 0 1.32 6.118 1.32 6.14 0.04 0.129 0.04 0.217 0.01 0.317l-0.68 2.345c-0.3 1.037-0.75 1.191-1.33 1.104l-0.1-0.014c-0.4-0.065-1.09-0.177-1.29 0.5-0.05 0.193-0.03 0.382 0.06 0.547 0.2 0.363 0.66 0.497 1.14 0.637s0.96 0.229 1.39 0.312c0.36 0.068 0.7 0.133 0.99 0.213 0.44 0.129 0.87 0.294 1.28 0.455 0.41 0.157 0.83 0.324 1.26 0.446 0.28 0.085 0.57 0.169 0.83 0.179 0.59 0.02 0.77-0.366 0.82-0.535 0.19-0.679-0.44-0.951-0.82-1.117l-0.09-0.037c-0.54-0.236-0.84-0.61-0.54-1.645l0.86-2.943c0.06-0.189 0.24-0.357 0.5-0.588 0 0 0.13-0.114 0.13-0.119l3.58-3.293c1.05-0.97 1.33-1.15 1.85-1.211 0.04-0.005 0.09-0.009 0.13-0.012 0.28-0.026 0.67-0.063 0.82-0.574 0.07-0.251 0.02-0.432-0.04-0.537-0.14-0.25-0.4-0.326-0.57-0.375-0.35-0.101-0.7-0.161-1.05-0.223-0.34-0.056-0.66-0.113-0.96-0.197-0.31-0.091-0.61-0.214-0.93-0.348-0.32-0.132-0.65-0.273-1-0.377-0.18-0.053-0.44-0.126-0.68 0.008-0.16 0.086-0.27 0.232-0.32 0.436-0.13 0.43 0.01 0.767 0.42 1.004 0.47 0.273 1.08 0.669 1 0.957-0.04 0.147-0.14 0.376-0.44 0.656 0 0.002-2.78 2.633-2.78 2.633l-0.83-4.155c-0.17-0.633-0.04-0.893 0.45-0.972 0.28-0.045 0.82 0.008 0.96-0.481 0.06-0.226 0.01-0.397-0.05-0.502-0.16-0.287-0.49-0.384-0.79-0.47-0.44-0.127-0.89-0.217-1.32-0.301-0.44-0.084-0.85-0.164-1.25-0.285-0.41-0.115-0.8-0.271-1.22-0.432-0.41-0.159-0.83-0.324-1.27-0.453-0.15-0.042-0.31-0.088-0.47-0.104zm-46.187 1.293c-1.053-0.048-2.16 0.204-3.107 0.473-0.406 0.113-0.923 0.299-1.465 0.49-0.588 0.212-1.205 0.427-1.725 0.577-0.822 0.231-1.342 0.311-1.72 0.374-0.238 0.038-0.431 0.068-0.618 0.12-0.253 0.072-0.532 0.18-0.664 0.423-0.13 0.223-0.065 0.438-0.046 0.51 0.131 0.46 0.467 0.681 0.949 0.621 0.837-0.112 1.229 0.124 1.445 0.875l2.389 8.461c0.102 0.369 0.197 1.042-0.356 1.397-0.19 0.123-0.705 0.452-0.541 1.029 0.191 0.678 0.884 0.481 1.114 0.416 0.392-0.11 0.775-0.263 1.14-0.408 0.369-0.145 0.71-0.279 1.07-0.379 0.36-0.103 0.725-0.169 1.114-0.236 0.387-0.068 0.79-0.14 1.183-0.252 0.743-0.208 1.074-0.338 1.229-0.619 0.056-0.098 0.108-0.259 0.047-0.473-0.132-0.474-0.505-0.711-0.973-0.617-0.584 0.122-1.135 0.116-1.523-1.254l-0.899-3.106 0.248-0.121c0.44-0.124 0.702 0.043 1.231 0.578l3.338 3.403c0.668 0.678 1.579 0.982 2.318 0.773 0.375-0.11 2.278-0.681 2.754-1.537 0.121-0.217 0.155-0.45 0.094-0.67-0.065-0.224-0.182-0.385-0.34-0.475-0.113-0.061-0.292-0.119-0.539-0.046-0.108 0.027-0.211 0.072-0.309 0.117-0.089 0.041-0.179 0.078-0.258 0.101-0.005 0-0.061 0.009-0.285-0.129-1.131-0.722-3.95-3.562-4.17-3.929l0.03-0.024c0.129-0.103 0.396-0.3 0.531-0.435 0.575-0.594 1.282-1.572 0.828-3.162-0.318-1.127-0.892-1.932-1.725-2.393-0.545-0.306-1.157-0.444-1.789-0.473zm-2.433 1.913c0.458-0.034 0.885 0.082 1.254 0.341 0.457 0.32 0.802 0.841 0.976 1.459 0.253 0.894 0.259 1.542 0.01 1.985-0.22 0.39-0.67 0.675-1.371 0.877-0.628 0.177-0.819 0.095-0.852 0.076-0.019-0.009-0.027-0.029-0.055-0.123l-1.048-3.705c-0.075-0.258-0.083-0.414-0.041-0.494 0.047-0.08 0.19-0.196 0.658-0.332 0.159-0.045 0.316-0.073 0.469-0.084zm-10.891 2.212c-0.259 0.001-0.525 0.124-0.781 0.243-0.698 0.317-1.376 0.676-2.039 1.023-0.65 0.34-1.324 0.696-1.993 1.002l-0.972 0.441c-1.015 0.465-2.068 0.951-3.147 1.288l-0.023 0.007-0.024 0.012c-0.312 0.141-0.631 0.291-0.748 0.6-0.042 0.112-0.07 0.289 0.028 0.504 0.215 0.468 0.768 0.572 1.638 0.3 0.127-0.042 0.607-0.042 1.407 1.698l3.082 6.687c0.462 1.005 0.443 1.275 0.148 1.633-0.032 0.04-0.065 0.079-0.097 0.121-0.243 0.294-0.581 0.698-0.366 1.168 0.295 0.639 0.917 0.35 1.463 0.098 0.609-0.279 1.204-0.594 1.774-0.901 0.561-0.302 1.145-0.614 1.73-0.883 0.585-0.268 1.197-0.506 1.795-0.74 0.602-0.236 1.23-0.481 1.838-0.758 0.991-0.458 1.477-1.828 1.361-2.83-0.042-0.448-0.229-1.248-0.412-1.65-0.099-0.215-0.247-0.361-0.43-0.43-0.116-0.041-0.305-0.073-0.529 0.032-0.342 0.154-0.401 0.515-0.476 0.931-0.047 0.271-0.102 0.604-0.239 0.961-0.402 1.031-1.332 1.888-2.763 2.547-0.379 0.174-0.589 0.231-0.705 0.185-0.22-0.081-0.473-0.587-0.647-0.962l-1.394-3.036c-0.037-0.08-0.078-0.186-0.059-0.232 0.014-0.035 0.092-0.169 0.564-0.387 0.978-0.451 1.38-0.526 1.993-0.115 0.103 0.074 0.211 0.192 0.31 0.305 0.214 0.234 0.537 0.592 0.957 0.398 0.211-0.099 0.346-0.236 0.412-0.414 0.108-0.289-0.018-0.56-0.107-0.762-0.126-0.275-0.276-0.545-0.416-0.8-0.141-0.26-0.272-0.508-0.395-0.76-0.116-0.255-0.215-0.516-0.322-0.793-0.102-0.274-0.21-0.561-0.336-0.84-0.104-0.217-0.231-0.491-0.516-0.594-0.107-0.042-0.285-0.07-0.5 0.028-0.44 0.201-0.448 0.561-0.416 1.138 0.047 0.65-0.396 1.25-1.378 1.645-0.403 0.164-0.675 0.164-0.708 0.16 0.024 0.004-1.386-2.98-1.386-2.98-0.178-0.385-0.164-0.487-0.164-0.5 0 0 0.032-0.043 0.201-0.12l1.154-0.531c2.07-0.954 2.497-0.571 2.945 0.178 0.408 0.679 0.885 0.553 1.073 0.467 0.206-0.097 0.345-0.232 0.41-0.407 0.099-0.265-0.019-0.515-0.057-0.593-0.097-0.217-0.21-0.411-0.322-0.6-0.102-0.185-0.205-0.361-0.285-0.541-0.085-0.179-0.149-0.368-0.219-0.566-0.075-0.212-0.154-0.427-0.248-0.637-0.112-0.244-0.287-0.349-0.408-0.393-0.084-0.031-0.17-0.045-0.256-0.045zm-11.244 5.528c-0.098 0.017-0.193 0.08-0.268 0.127-0.551 0.368-1.013 0.869-1.57 1.238-0.55 0.365-1.191 0.605-1.742 0.975-0.165 0.107-0.356 0.237-0.188 0.5 0.122 0.175 0.29 0.183 0.621 0.15 0.577-0.054 0.833-0.3 1.243-0.244 0.233 0.032 0.417 0.168 0.627 0.476 0.158 0.243 0.248 0.658 0.345 1.227l1.043 6.381c0.061 0.381 0.091 0.412-0.008 0.474-0.08 0.054-0.187-0.083-0.566-0.294l-5.625-3.551c-0.323-0.206-0.733-0.43-0.926-0.723-0.247-0.376-0.415-0.732-0.004-1.17 0.215-0.239 0.434-0.476 0.256-0.736-0.172-0.26-0.464-0.066-0.576 0.008-0.733 0.488-1.379 1.107-2.107 1.593-0.735 0.488-1.553 0.848-2.282 1.334-0.23 0.15-0.394 0.257-0.22 0.518 0.172 0.262 0.356 0.141 0.67 0.121 0.383-0.021 0.963-0.172 1.814 0.363l10.08 6.293c0.599 0.374 0.834 0.477 1.076 0.313 0.178-0.116 0.351-0.28 0.168-1.403l-1.678-10.382c-0.211-1.268-0.323-1.828-0.187-2.434 0.116-0.526 0.458-0.756 0.289-1.014-0.087-0.131-0.188-0.158-0.285-0.14zm98.915 1.443c-0.56 0.008-1.11 0.071-1.66 0.19-1.97 0.43-3.63 1.57-4.68 3.207-1.06 1.645-1.41 3.442-1.03 5.201 0.41 1.859 1.63 3.521 3.43 4.681 3.48 2.232 8.61 2.147 11.18-1.857 1.07-1.665 1.42-3.485 1.04-5.264-0.42-1.906-1.67-3.617-3.54-4.812-1.42-0.909-3.08-1.371-4.74-1.346zm1.85 1.912c0.49 0.025 0.95 0.166 1.37 0.434 0.7 0.444 1.15 1.143 1.36 2.074 0.4 1.883-0.32 4.331-1.25 5.774-0.84 1.318-2.09 2.267-3.35 2.542-0.82 0.179-1.6 0.054-2.24-0.357-0.7-0.449-1.16-1.147-1.36-2.074-0.41-1.885 0.32-4.33 1.24-5.778 1.1-1.72 2.76-2.69 4.23-2.615zm11.02 5.633c-0.17 0.01-0.32 0.082-0.44 0.213-0.13 0.145-0.19 0.325-0.18 0.521 0.02 0.328 0.24 0.683 0.66 1.057 0.16 0.148 0.17 0.229 0.17 0.262 0.01 0.257-0.4 0.754-0.76 1.156l-5.72 6.389c-0.26 0.285-0.77 0.725-1.37 0.449-0.2-0.094-0.76-0.355-1.16 0.094-0.16 0.182-0.19 0.367-0.18 0.486 0.01 0.311 0.24 0.515 0.42 0.676 0.31 0.276 0.64 0.515 0.96 0.75 0.32 0.229 0.62 0.452 0.9 0.697 0.27 0.25 0.53 0.525 0.79 0.815 0.27 0.295 0.54 0.592 0.85 0.869 0.22 0.193 0.45 0.402 0.66 0.531 0.53 0.322 0.84 0.078 0.94-0.041 0.33-0.37 0.33-0.809 0-1.154-0.49-0.502-0.64-0.975 0.09-1.784l2.38-2.666c0.05-0.051 0.14-0.134 0.18-0.129 0.04 0.004 0.16 0.041 0.44 0.29 0.87 0.771 1.05 1.089 0.95 1.623-0.03 0.182-0.1 0.352-0.17 0.519-0.13 0.304-0.31 0.718 0.03 1.022 0.38 0.338 0.78 0.277 1.18-0.174 0.21-0.231 0.4-0.474 0.58-0.705 0.18-0.227 0.35-0.444 0.52-0.643 0.19-0.209 0.39-0.398 0.6-0.601 0.2-0.204 0.42-0.414 0.62-0.643 0.15-0.163 0.35-0.385 0.33-0.693-0.01-0.19-0.1-0.359-0.27-0.514-0.35-0.306-0.73-0.094-0.97 0.047-0.13 0.075-0.26 0.146-0.4 0.189-0.63 0.195-1.85-0.709-1.85-0.709l-0.39-0.439 2.25-2.485 0.42-0.396 0.83 0.752c1.31 1.179 1.96 1.838 1.18 2.93-0.46 0.648-0.15 1.037 0 1.173 0.28 0.248 0.53 0.243 0.69 0.194 0.18-0.059 0.3-0.189 0.37-0.268 0.16-0.176 0.29-0.353 0.42-0.525 0.12-0.169 0.24-0.325 0.37-0.473 0.13-0.15 0.28-0.286 0.44-0.43 0.16-0.147 0.32-0.296 0.46-0.462 0.19-0.215 0.23-0.427 0.22-0.563-0.02-0.365-0.3-0.615-0.57-0.857-0.55-0.489-1.12-0.958-1.68-1.405-0.56-0.442-1.13-0.897-1.66-1.375-0.53-0.475-1.04-0.989-1.54-1.488-0.51-0.505-1.04-1.03-1.58-1.521-0.34-0.299-0.65-0.58-1.01-0.561zm-125.64 0.471c-0.308-0.024-0.544 0.175-0.726 0.334-0.313 0.271-0.594 0.572-0.865 0.857-0.272 0.288-0.523 0.555-0.803 0.799-0.281 0.245-0.586 0.459-0.908 0.688-0.323 0.226-0.66 0.462-0.967 0.728-0.435 0.378-0.811 0.703-0.838 1.096-0.01 0.161 0.043 0.313 0.146 0.437 0.328 0.371 0.76 0.428 1.143 0.143 0.542-0.406 1.035-0.527 1.662 0.195l5.756 6.643c0.612 0.706 0.506 1.094 0.346 1.351-0.122 0.196-0.449 0.711-0.055 1.162 0.462 0.532 0.998 0.063 1.256-0.162 0.314-0.266 0.591-0.563 0.861-0.851 0.273-0.288 0.527-0.559 0.809-0.799 0.298-0.26 0.631-0.491 0.949-0.711 0.29-0.201 0.561-0.394 0.791-0.594 0.435-0.375 0.807-0.702 0.84-1.092 0.01-0.161-0.041-0.311-0.149-0.437-0.323-0.374-0.762-0.426-1.14-0.145-0.01 0.005-0.955 0.651-1.674-0.179l-5.762-6.645c-0.467-0.542-0.662-0.892-0.42-1.283 0.01-0.016 0.028-0.041 0.041-0.066 0.164-0.237 0.538-0.793 0.164-1.227-0.163-0.183-0.34-0.236-0.457-0.242zm-6.427 5.383c-0.272 0.018-0.445 0.212-0.547 0.33-0.243 0.276-0.449 0.57-0.651 0.855-0.196 0.281-0.383 0.547-0.593 0.785-0.212 0.239-0.448 0.457-0.705 0.686-0.263 0.232-0.531 0.474-0.768 0.748-0.22 0.241-0.461 0.518-0.438 0.855 0.009 0.17 0.088 0.327 0.223 0.444 0.476 0.426 1.127-0.037 1.6-0.375 0.696-0.503 1.338-0.131 2.431 0.836l3.211 2.865s-11.071 0.505-11.052 0.504c-0.44 0.004-0.675 0.181-0.979 0.519-0.201 0.229-0.382 0.474-0.564 0.707-0.183 0.234-0.351 0.452-0.538 0.662s-0.384 0.409-0.595 0.614c-0.21 0.211-0.425 0.424-0.631 0.65-0.065 0.08-0.196 0.23-0.182 0.459 0.01 0.226 0.168 0.389 0.285 0.496 0.379 0.331 0.767 0.162 1.221-0.037 0.089-0.04 0.192-0.086 0.309-0.133 0.527-0.22 1.37 0.15 1.888 0.608l5.512 4.884c0.725 0.635 0.866 1.099 0.643 2.063l-0.02 0.066c-0.075 0.312-0.183 0.738 0.215 1.086 0.29 0.258 0.562 0.206 0.697 0.151 0.169-0.07 0.281-0.197 0.36-0.285 0.238-0.275 0.445-0.57 0.646-0.858 0.201-0.279 0.383-0.544 0.598-0.783 0.21-0.241 0.449-0.459 0.705-0.686 0.257-0.236 0.525-0.473 0.767-0.75 0.207-0.231 0.492-0.551 0.469-0.927-0.01-0.19-0.1-0.363-0.25-0.496-0.439-0.387-0.92-0.012-1.236 0.238-0.113 0.086-0.231 0.179-0.344 0.244-0.616 0.375-1.187 0.276-1.855-0.313l-5.159-4.566 12.575-0.603c1.07-0.065 1.584-0.138 1.808-0.393 0.141-0.161 0.161-0.327 0.156-0.439-0.018-0.323-0.286-0.617-0.806-1.073l-7.049-6.24c-0.725-0.642-0.875-1.101-0.65-2.049l0.013-0.068c0.075-0.311 0.184-0.739-0.209-1.088-0.16-0.14-0.334-0.205-0.511-0.193zm66.276 0.054c-0.77 0.019-1.47 0.325-1.98 0.858-0.5 0.523-0.78 1.225-0.76 1.931 0.05 2.123 1.71 2.672 3.05 3.114 1.12 0.372 1.82 0.635 1.84 1.377 0 0.358-0.11 0.669-0.34 0.902-0.25 0.269-0.63 0.422-1.08 0.432-1.17 0.027-2.05-0.889-2.48-1.752-0.01-0.033-0.03-0.077-0.05-0.121-0.08-0.197-0.21-0.53-0.55-0.52-0.16 0.002-0.28 0.048-0.36 0.133-0.07 0.07-0.1 0.16-0.1 0.265 0 0.108 0.04 0.231 0.07 0.338 0.02 0.045 0.03 0.086 0.04 0.114 0 0.007 0.49 1.788 0.49 1.793 0.09 0.276 0.35 0.316 0.5 0.337 0.02 0.005 0.03 0.005 0.05 0.01 0.23 0.041 0.47 0.093 0.7 0.147 0.53 0.118 1.08 0.243 1.67 0.226 0.86-0.016 1.61-0.336 2.18-0.916 0.6-0.59 0.93-1.411 0.91-2.197-0.05-2.133-1.76-2.653-3.08-3.074-1.14-0.36-1.85-0.623-1.86-1.405 0-0.243 0.08-0.452 0.24-0.63 0.23-0.238 0.6-0.384 1.01-0.393 0.89-0.019 1.93 0.733 2.22 1.609l0.02 0.053c0.1 0.298 0.21 0.608 0.59 0.598 0.17-0.005 0.29-0.074 0.34-0.133 0.06-0.058 0.14-0.167 0.13-0.357 0-0.049-0.02-0.141-0.05-0.354-0.07-0.437-0.2-1.172-0.19-1.689 0-0.105-0.02-0.241-0.13-0.334-0.07-0.072-0.17-0.098-0.31-0.098-0.1 0.002-0.21 0.051-0.33 0.107-0.06 0.033-0.17 0.085-0.21 0.086-0.13 0.003-0.32-0.065-0.54-0.142-0.4-0.138-0.94-0.328-1.65-0.315zm4.93 0.012c-0.15 0.01-0.27 0.042-0.35 0.119-0.07 0.056-0.11 0.137-0.12 0.229-0.02 0.295 0.13 0.496 0.42 0.535 0.56 0.08 0.77 0.349 0.73 0.929l-0.4 5.786c-0.04 0.515-0.2 0.776-0.52 0.851-0.13 0.033-0.49 0.114-0.52 0.465-0.01 0.135 0.04 0.225 0.09 0.273 0.12 0.142 0.31 0.155 0.52 0.168 0.26 0.022 0.53 0.011 0.79 0.002 0.26-0.01 0.51-0.014 0.76 0.002 0.26 0.019 0.52 0.065 0.78 0.11 0.23 0.041 0.44 0.078 0.64 0.093 0.19 0.014 0.39 0.029 0.55 0.01 0.34-0.037 0.41-0.233 0.42-0.345 0.01-0.293-0.14-0.492-0.41-0.534-0.01-0.002-0.81-0.151-0.76-0.929l0.41-5.787c0.03-0.494 0.11-0.776 0.44-0.856 0.02-0.005 0.04-0.007 0.06-0.01 0.19-0.037 0.57-0.111 0.59-0.441 0.01-0.14-0.04-0.232-0.08-0.283-0.12-0.134-0.3-0.149-0.45-0.157-0.27-0.021-0.54-0.012-0.8-0.003-0.26 0.007-0.51 0.014-0.75-0.004-0.25-0.018-0.49-0.056-0.75-0.104-0.26-0.041-0.52-0.087-0.79-0.103-0.18-0.013-0.35-0.026-0.5-0.016zm5.46 0.367c-0.1 0.006-0.19 0.03-0.27 0.086-0.09 0.07-0.15 0.173-0.17 0.311-0.06 0.297 0.16 0.401 0.49 0.558 0 0 0.18 0.084 0.19 0.084 0.3 0.14 0.45 0.211 0.25 1.408l-0.81 4.873c-0.09 0.527-0.23 1.072-0.58 1.129l-0.06 0.012c-0.24 0.039-0.56 0.092-0.61 0.402-0.01 0.088 0 0.167 0.05 0.231 0.1 0.14 0.27 0.167 0.48 0.201 0.2 0.033 0.41 0.041 0.61 0.051 0.2 0.005 0.39 0.014 0.56 0.043 0.15 0.022 0.36 0.071 0.63 0.133 0.49 0.112 1.15 0.264 1.99 0.404 1.37 0.229 2.72 0.01 3.8-0.613 1.23-0.707 2.01-1.87 2.25-3.371 0.22-1.268 0.02-2.34-0.59-3.186-0.76-1.064-2.16-1.773-4.16-2.105-0.32-0.057-0.64-0.084-0.96-0.11-0.3-0.025-0.62-0.055-0.92-0.103-0.31-0.052-0.62-0.128-0.92-0.203-0.3-0.077-0.62-0.158-0.94-0.211-0.1-0.018-0.21-0.029-0.31-0.024zm-15.91 0.736c-0.11-0.002-0.23 0.015-0.35 0.034-0.5 0.075-1 0.174-1.48 0.273-0.48 0.095-0.97 0.196-1.45 0.266l-0.7 0.103c-0.73 0.108-1.487 0.219-2.239 0.233h-0.012-0.016c-0.22 0.032-0.426 0.067-0.539 0.218-0.041 0.054-0.083 0.147-0.064 0.278 0.044 0.304 0.355 0.45 0.916 0.441 0.164-0.005 0.466 0.168 0.646 1.389l0.718 4.807c0.11 0.757 0.04 0.934-0.23 1.123-0.03 0.021-0.06 0.036-0.09 0.06-0.29 0.105-0.707 0.211-1.046 0.151-0.33 0.002-0.612-0.336-0.883-0.661-0.061-0.072-0.124-0.15-0.187-0.22 0 0-5.058-5.834-5.063-5.836-0.171-0.188-0.318-0.303-0.473-0.258-0.233 0.067-0.273 0.286-0.343 0.683-0.003 0-1.424 8.25-1.424 8.247-0.043 0.188-0.202 0.191-0.285 0.234-0.067 0.025-0.125 0.065-0.184 0.1-0.056 0.035-0.112 0.072-0.168 0.095-0.037 0.019-0.122-0.003-0.248-0.056-0.849-0.379-3.019-1.996-3.182-2.211 0 0 0.073-0.065 0.137-0.129 0.078-0.076 0.161-0.166 0.237-0.264 0.303-0.432 0.662-1.119 0.222-2.088-0.307-0.687-0.752-1.145-1.322-1.357-1.011-0.384-2.213 0.053-3.15 0.474-0.248 0.115-0.568 0.283-0.903 0.463-0.369 0.195-0.749 0.398-1.076 0.545-0.519 0.231-0.851 0.337-1.094 0.416-0.15 0.048-0.268 0.083-0.385 0.137-0.206 0.095-0.313 0.185-0.359 0.305-0.052 0.132 0.003 0.248 0.018 0.291 0.083 0.18 0.252 0.373 0.607 0.277 0.566-0.165 0.876-0.034 1.1 0.467l2.386 5.289c0.113 0.249 0.247 0.706-0.109 1.019-0.105 0.094-0.384 0.333-0.238 0.653 0.07 0.156 0.209 0.243 0.375 0.228 0.112-0.006 0.217-0.054 0.31-0.097 0.24-0.11 0.476-0.242 0.701-0.373 0.224-0.133 0.438-0.256 0.667-0.36 0.224-0.1 0.458-0.18 0.708-0.262 0.247-0.085 0.496-0.168 0.743-0.281 0.437-0.194 0.642-0.312 0.709-0.486 0.032-0.084 0.027-0.175-0.014-0.266-0.123-0.266-0.35-0.369-0.619-0.273-0.381 0.14-0.787 0.204-1.195-0.703l-0.901-2c-0.007-0.017-0.01-0.026-0.01-0.026 0.003 0.004 0.026-0.024 0.203-0.101 0.309-0.143 0.524-0.035 0.924 0.265l2.51 1.893c0.486 0.365 1.084 0.472 1.527 0.273 0.087-0.04 0.59-0.274 1.02-0.586 0.071 0.019 0.193-0.001 0.33-0.039 0.223-0.062 0.432-0.154 0.639-0.24 0.206-0.086 0.397-0.17 0.593-0.226 0.202-0.059 0.409-0.095 0.627-0.131 0.218-0.039 0.444-0.073 0.666-0.139 0.152-0.044 0.311-0.091 0.391-0.236 0.046-0.087 0.052-0.186 0.02-0.303-0.092-0.318-0.541-0.31-0.973-0.305l-0.137 0.006c-0.14 0.006-0.444 0.005-0.531-0.385 0 0-0.131-1 0.096-1.414 0.066-0.12 0.143-0.191 0.234-0.216l1.895-0.553c0.601-0.178 0.781-0.17 0.916-0.098 0.168 0.094 0.832 0.989 0.92 1.281 0.071 0.244-0.022 0.483-0.229 0.588l0.02-0.008c-0.28 0.103-0.432 0.357-0.36 0.606 0.051 0.172 0.252 0.303 0.537 0.221 0.309-0.094 0.613-0.208 0.903-0.323 0.281-0.105 0.541-0.205 0.798-0.281 0.26-0.077 0.535-0.133 0.829-0.191 0.308-0.065 0.621-0.126 0.935-0.217 0.13-0.04 0.276-0.147 0.276-0.147 0.058 0.057 0.192 0.06 0.282 0.069 0.13 0.015 0.29-0.009 0.5-0.041 0.43-0.064 0.87-0.154 1.28-0.24 0.42-0.089 0.85-0.178 1.27-0.245 0.42-0.06 0.85-0.099 1.27-0.136 0.43-0.035 0.87-0.076 1.31-0.141 0.66-0.099 1.22-0.853 1.33-1.492 0.05-0.285 0.08-0.818 0.04-1.1-0.02-0.136-0.08-0.244-0.17-0.31-0.05-0.044-0.15-0.087-0.29-0.069-0.21 0.033-0.31 0.235-0.43 0.471-0.08 0.161-0.18 0.369-0.34 0.574-0.45 0.593-1.21 0.972-2.25 1.131-0.3 0.043-0.45 0.035-0.53-0.029-0.11-0.081-0.19-0.312-0.26-0.766l-0.32-2.185c-0.02-0.133 0-0.177 0.02-0.2 0.03-0.052 0.14-0.123 0.47-0.169 0.71-0.108 1.01-0.075 1.34 0.318 0.06 0.07 0.1 0.168 0.15 0.262 0.08 0.182 0.21 0.432 0.47 0.394 0.13-0.021 0.23-0.073 0.29-0.162 0.1-0.14 0.08-0.316 0.06-0.451-0.03-0.201-0.07-0.396-0.11-0.586-0.04-0.183-0.08-0.372-0.11-0.557-0.03-0.187-0.05-0.379-0.06-0.566-0.02-0.191-0.04-0.391-0.06-0.59-0.03-0.152-0.06-0.327-0.19-0.43-0.06-0.04-0.15-0.083-0.28-0.062-0.28 0.04-0.34 0.252-0.42 0.594-0.1 0.447-0.51 0.729-1.23 0.839-0.45 0.065-0.53 0.02-0.55 0.01l-0.33-2.24c-0.04-0.269-0.02-0.361 0-0.391 0.01-0.016 0.06-0.045 0.19-0.064l0.83-0.123c1.54-0.231 1.75 0.112 1.9 0.701 0.12 0.443 0.38 0.471 0.53 0.451 0.13-0.021 0.23-0.073 0.29-0.158 0.09-0.116 0.08-0.253 0.06-0.342-0.02-0.15-0.05-0.295-0.09-0.435-0.03-0.138-0.06-0.268-0.08-0.397-0.02-0.136-0.03-0.269-0.03-0.412-0.01-0.142-0.02-0.292-0.05-0.439-0.02-0.153-0.09-0.24-0.16-0.284-0.08-0.063-0.18-0.085-0.29-0.088zm19.33 0.844c0.11-0.016 0.25-0.01 0.42 0.018 0.8 0.134 1.42 0.511 1.86 1.121 0.57 0.805 0.79 2.022 0.58 3.26-0.17 1.04-0.72 2.009-1.45 2.525-0.51 0.365-1.08 0.5-1.7 0.397-0.51-0.084-0.87-0.186-1.03-0.411-0.13-0.172-0.16-0.457-0.08-0.884l0.88-5.303c0.07-0.425 0.18-0.673 0.52-0.723zm6.58 0.178c-0.06 0.007-0.12 0.025-0.17 0.055-0.07 0.043-0.13 0.113-0.15 0.203-0.08 0.282 0.04 0.51 0.31 0.603 0.53 0.188 0.69 0.492 0.54 1.053l-1.5 5.606c-0.13 0.497-0.34 0.722-0.67 0.736-0.14 0.001-0.51 0.013-0.6 0.349-0.03 0.137 0 0.235 0.04 0.293 0.09 0.158 0.27 0.206 0.47 0.26 0.26 0.07 0.52 0.113 0.78 0.156 0.26 0.04 0.5 0.08 0.74 0.145 0.26 0.067 0.51 0.165 0.74 0.256 0.22 0.084 0.42 0.163 0.62 0.215 0.18 0.051 0.38 0.101 0.54 0.115 0.34 0.026 0.44-0.152 0.47-0.26 0.08-0.28-0.04-0.51-0.3-0.603-0.01 0-0.77-0.302-0.56-1.057l1.5-5.602c0.13-0.478 0.26-0.74 0.6-0.752h0.06c0.19 0 0.58 0.001 0.67-0.322 0.03-0.134 0-0.232-0.03-0.293-0.09-0.154-0.27-0.203-0.42-0.242-0.26-0.069-0.52-0.112-0.78-0.152-0.25-0.043-0.5-0.084-0.74-0.149-0.24-0.063-0.47-0.153-0.71-0.244-0.25-0.091-0.5-0.186-0.76-0.256s-0.5-0.135-0.69-0.113zm4.91 1.621c-0.13-0.021-0.22-0.013-0.3 0.024-0.09 0.038-0.15 0.113-0.19 0.218-0.05 0.129-0.05 0.256 0.01 0.364 0.04 0.107 0.14 0.192 0.26 0.238 0.24 0.086 0.4 0.215 0.47 0.379 0.09 0.182 0.07 0.427-0.03 0.715l-1.42 3.808c-0.4 1.085-0.43 2.03-0.07 2.809 0.39 0.851 1.21 1.494 2.49 1.97 1.41 0.527 2.63 0.566 3.62 0.124 0.98-0.442 1.75-1.373 2.26-2.756l0.95-2.577c0.4-1.058 0.54-1.109 0.8-1.121 0.05 0 0.1 0.002 0.15 0.002 0.18 0.009 0.45 0.02 0.56-0.261 0.03-0.089 0.06-0.198 0.01-0.305-0.06-0.121-0.17-0.186-0.33-0.242-0.19-0.07-0.38-0.126-0.57-0.182-0.18-0.054-0.36-0.107-0.54-0.174-0.17-0.065-0.35-0.144-0.52-0.22-0.18-0.078-0.36-0.163-0.55-0.233-0.28-0.102-0.45-0.122-0.59-0.06-0.08 0.041-0.15 0.109-0.18 0.203-0.1 0.271 0.05 0.529 0.39 0.679 0.53 0.232 0.69 0.614 0.48 1.159l-1.14 3.082c-0.21 0.558-0.69 1.552-1.6 1.97-0.58 0.262-1.24 0.257-1.98-0.015-0.67-0.247-1.15-0.667-1.4-1.219-0.26-0.556-0.26-1.2-0.02-1.861l1.4-3.762c0.1-0.275 0.32-0.615 0.79-0.662 0.04-0.005 0.08-0.007 0.11-0.008 0.2-0.019 0.43-0.037 0.52-0.273 0.04-0.104 0.04-0.201 0-0.288-0.05-0.12-0.17-0.205-0.39-0.287-0.25-0.093-0.51-0.162-0.76-0.228-0.26-0.063-0.5-0.127-0.73-0.211-0.23-0.086-0.45-0.198-0.69-0.313-0.23-0.115-0.47-0.23-0.72-0.324-0.24-0.089-0.42-0.141-0.55-0.162zm-43.147 3.117l1.59 1.766-1.982 0.535 0.392-2.301zm53.007 0.867c-0.13 0.033-0.2 0.139-0.25 0.219-0.14 0.253-0.01 0.449 0.18 0.719 0.04 0.054 0.08 0.112 0.13 0.18 0.22 0.335 0.07 0.916-0.18 1.351l-2.44 4.205c-0.34 0.587-0.63 0.753-1.27 0.729h-0.05c-0.21-0.009-0.46-0.02-0.62 0.248-0.06 0.105-0.08 0.211-0.05 0.305 0.04 0.151 0.17 0.228 0.25 0.277 0.21 0.117 0.42 0.213 0.63 0.305 0.21 0.091 0.41 0.177 0.6 0.285 0.18 0.107 0.36 0.236 0.54 0.371 0.18 0.136 0.37 0.278 0.57 0.394 0.4 0.228 0.58 0.088 0.68-0.072 0.19-0.327-0.04-0.603-0.13-0.721-0.54-0.656-0.39-1.231-0.01-1.892l1.63-2.826-0.57 5.992v0.021 0.002c-0.01 0.151-0.03 0.406 0.2 0.539 0.18 0.105 0.42 0.061 0.72-0.131l4.86-3.273 0.1-0.066-2.03 3.441c-0.36 0.635-0.44 0.689-0.65 0.666-0.24-0.029-0.51-0.065-0.69 0.238-0.05 0.089-0.07 0.184-0.04 0.276 0.05 0.195 0.26 0.316 0.47 0.437 0.23 0.105 0.46 0.226 0.69 0.342 0.21 0.112 0.44 0.226 0.67 0.33 0.21 0.154 0.43 0.298 0.65 0.438 0.21 0.135 0.43 0.276 0.65 0.437 0.23 0.133 0.62 0.358 0.82 0.012 0.18-0.316 0-0.542-0.17-0.74-0.57-0.717-0.39-1.216 0.17-2.182l2.3-3.959c0.34-0.589 0.5-0.556 0.9-0.473l0.07 0.014c0.4 0.074 0.71 0.135 0.87-0.139 0.08-0.116 0.11-0.228 0.09-0.324-0.02-0.08-0.07-0.144-0.14-0.189-0.17-0.1-0.35-0.188-0.52-0.272-0.17-0.085-0.35-0.171-0.51-0.267-0.16-0.093-0.32-0.201-0.48-0.305-0.16-0.108-0.32-0.22-0.5-0.32-0.19-0.113-0.34-0.056-0.6 0.113 0 0-5.16 3.257-5.15 3.252-0.07 0.037-0.12 0.076-0.18 0.111-0.09 0.056-0.06 0.086-0.05-0.092 0 0 0.03-0.407 0.03-0.402 0 0 0.46-5.796 0.46-5.799 0.01-0.306-0.12-0.44-0.37-0.588-0.17-0.101-0.35-0.189-0.53-0.273-0.16-0.084-0.34-0.173-0.5-0.264-0.16-0.094-0.32-0.204-0.48-0.307-0.16-0.107-0.33-0.22-0.5-0.324-0.04-0.018-0.14-0.081-0.27-0.049zm-62.042 0.223c0.616 0.017 1.1 0.472 1.352 1.027 0.258 0.575 0.329 1.017 0.203 1.344-0.11 0.295-0.39 0.536-0.844 0.742-0.391 0.178-0.543 0.151-0.592 0.135-0.04-0.016-0.058-0.044-0.086-0.109l-1.047-2.317c-0.078-0.178-0.102-0.292-0.076-0.365 0.04-0.099 0.181-0.202 0.436-0.314 0.23-0.105 0.449-0.148 0.654-0.143zm-5.758 2.34c-0.65 0.023-1.39 0.29-2.209 0.795-0.3 0.181-0.711 0.467-1.103 0.742-0.38 0.265-0.742 0.514-0.994 0.668-0.274 0.171-0.624 0.352-0.963 0.529-0.293 0.153-0.569 0.297-0.756 0.412-0.191 0.122-0.315 0.222-0.35 0.37-0.032 0.142 0.037 0.256 0.061 0.296 0.07 0.113 0.243 0.291 0.598 0.2 0.075-0.019 0.144-0.038 0.208-0.057 0.424-0.126 0.636-0.19 1.03 0.451l3.008 4.875c0.126 0.208 0.294 0.614-0.006 1.014l-0.022 0.031c-0.09 0.121-0.281 0.37-0.117 0.633 0.094 0.156 0.223 0.189 0.313 0.189 0.105-0.003 0.218-0.045 0.378-0.144 0.254-0.156 0.495-0.337 0.729-0.51 0.227-0.171 0.46-0.347 0.701-0.494 0.24-0.148 0.5-0.278 0.75-0.404 0.26-0.132 0.533-0.265 0.785-0.422 0.312-0.191 0.58-0.358 0.631-0.584 0.024-0.089 0.009-0.173-0.041-0.252-0.147-0.236-0.379-0.308-0.639-0.195-0.757 0.325-1.222 0.293-1.464-0.094l-3.272-5.303c-0.051-0.085-0.042-0.17-0.031-0.227 0.037-0.145 0.15-0.284 0.318-0.386 1.009-0.623 1.913-0.464 2.469 0.443 0.276 0.446 0.378 0.905 0.287 1.289-0.077 0.33-0.296 0.607-0.646 0.824-0.377 0.232-0.535 0.343-0.573 0.506-0.03 0.123 0.029 0.214 0.047 0.242 0.384 0.623 1.843-0.269 1.86-0.277 0.703-0.435 1.211-1.136 1.398-1.924 0.17-0.716 0.053-1.447-0.326-2.062-0.37-0.601-0.856-0.979-1.44-1.117-0.196-0.047-0.402-0.065-0.619-0.057zm115.32 1.451c-0.11 0.018-0.22 0.059-0.35 0.123 0 0-1.79 0.919-1.79 0.92-0.05 0.029-0.12 0.061-0.18 0.094-0.16 0.077-0.32 0.16-0.44 0.236-0.13 0.086-0.23 0.219-0.26 0.371-0.04 0.187 0.01 0.384 0.14 0.59 0.33 0.513 0.71 0.395 0.79 0.358 1.67-0.564 2.09-0.082 3.04 1.398 0.1 0.159 0.42 0.645 0.37 0.875 0 0.027-0.02 0.113-0.21 0.234l-7.61 4.92c-0.73 0.468-1.14 0.191-1.74-0.328-0.15-0.131-0.29-0.247-0.44-0.344-0.01-0.011-0.04-0.043-0.08-0.072-0.13-0.131-0.5-0.477-1.03-0.135-0.17 0.113-0.28 0.258-0.32 0.432-0.05 0.28 0.09 0.508 0.2 0.674 0.32 0.49 0.67 0.972 1.02 1.437 0.35 0.47 0.71 0.954 1.03 1.448 0.32 0.493 0.61 1.023 0.89 1.529 0.29 0.507 0.58 1.035 0.9 1.527 0.31 0.478 0.66 0.594 1.05 0.34 0.53-0.344 0.37-0.818 0.3-0.998-0.01-0.037-0.02-0.08-0.02-0.103-0.03-0.173-0.08-0.35-0.14-0.538-0.23-0.757-0.31-1.248 0.42-1.718l7.61-4.922c0.22-0.145 0.29-0.11 0.34-0.086 0.15 0.07 0.35 0.299 0.6 0.687 0.96 1.478 1.23 2.053 0.05 3.323-0.14 0.128-0.33 0.415-0.02 0.892 0.19 0.309 0.58 0.502 0.89 0.303 0.14-0.086 0.27-0.199 0.37-0.285 0 0 1.57-1.246 1.57-1.244 0.6-0.472 0.79-0.772 0.37-1.422-0.54-0.823-1.12-1.648-1.68-2.446-0.57-0.808-1.15-1.642-1.69-2.474-0.53-0.83-1.05-1.694-1.55-2.529-0.49-0.845-1.01-1.718-1.55-2.559-0.26-0.397-0.52-0.56-0.85-0.508zm-160.9 2.104c-0.053-0.004-0.11-0.003-0.17 0.011-0.238 0.059-0.389 0.264-0.515 0.469-0.159 0.263-0.298 0.534-0.434 0.795-0.135 0.263-0.261 0.509-0.406 0.748-0.145 0.241-0.304 0.47-0.477 0.711-0.168 0.243-0.341 0.492-0.5 0.756-0.182 0.301-0.341 0.624-0.267 0.928 0.042 0.163 0.144 0.297 0.289 0.388 0.417 0.25 0.909 0.092 1.254-0.406 0.467-0.685 1.014-0.804 1.73-0.371l4.264 2.578c0.757 0.456 2.077 1.437 2.433 2.885 0.224 0.905 0.033 1.874-0.576 2.873-0.537 0.895-1.282 1.483-2.152 1.695-0.874 0.215-1.809 0.045-2.703-0.496l-5.194-3.146c-0.365-0.215-0.78-0.615-0.72-1.276 0.005-0.054 0.016-0.108 0.019-0.164 0.034-0.304 0.079-0.716-0.304-0.945-0.164-0.1-0.331-0.131-0.495-0.088-0.281 0.07-0.469 0.325-0.599 0.545-0.215 0.351-0.388 0.717-0.557 1.074-0.172 0.359-0.333 0.696-0.525 1.012-0.191 0.317-0.415 0.615-0.649 0.929-0.237 0.317-0.485 0.645-0.695 0.995-0.365 0.603-0.533 0.968-0.453 1.291 0.041 0.168 0.148 0.305 0.316 0.408 0.197 0.12 0.412 0.158 0.61 0.105 0.2-0.048 0.372-0.176 0.49-0.375 0.387-0.64 0.901-0.735 1.621-0.302l5.266 3.185c1.637 0.991 3.155 1.27 4.515 0.832 1.283-0.416 2.4-1.436 3.41-3.115 1.207-1.988 1.614-3.826 1.211-5.453-0.396-1.606-1.569-3.008-3.496-4.172l-3.558-2.15c-1.474-0.892-1.447-1.086-1.401-1.409 0.01-0.066 0.03-0.136 0.043-0.211 0.065-0.276 0.173-0.738-0.271-1.009-0.067-0.039-0.194-0.114-0.354-0.125zm169.38 11.382c-0.09-0.002-0.19 0.015-0.3 0.063-0.47 0.206-0.58 0.752-0.33 1.627 0.04 0.131 0.03 0.614-1.72 1.377l-6.76 2.933c-1.01 0.444-1.28 0.421-1.63 0.118-0.04-0.034-0.08-0.067-0.12-0.102-0.29-0.25-0.69-0.597-1.16-0.391-0.64 0.28-0.37 0.91-0.13 1.465 0.26 0.613 0.57 1.209 0.86 1.791 0.29 0.569 0.59 1.16 0.85 1.748 0.26 0.59 0.48 1.21 0.7 1.809 0.22 0.611 0.45 1.246 0.72 1.857 0.43 1.003 1.79 1.514 2.79 1.42 0.45-0.032 1.26-0.203 1.66-0.381 0.22-0.088 0.37-0.235 0.44-0.418 0.05-0.113 0.08-0.301-0.02-0.527-0.15-0.345-0.5-0.412-0.92-0.496-0.27-0.049-0.6-0.115-0.95-0.264-1.02-0.418-1.86-1.366-2.49-2.816-0.16-0.379-0.22-0.589-0.17-0.709 0.08-0.218 0.6-0.457 0.98-0.621l3.06-1.332c0.08-0.038 0.19-0.073 0.23-0.057s0.17 0.099 0.38 0.576c0.43 0.989 0.49 1.39 0.07 1.993-0.08 0.103-0.19 0.206-0.31 0.306-0.24 0.206-0.61 0.522-0.42 0.949 0.09 0.208 0.23 0.348 0.41 0.418 0.28 0.113 0.56-0.007 0.76-0.093 0.28-0.122 0.55-0.261 0.81-0.397 0.26-0.135 0.51-0.26 0.77-0.373 0.26-0.112 0.52-0.207 0.8-0.305 0.27-0.101 0.56-0.201 0.84-0.326 0.22-0.097 0.5-0.216 0.61-0.494 0.04-0.11 0.07-0.288-0.02-0.508-0.19-0.44-0.55-0.46-1.13-0.441-0.65 0.035-1.24-0.421-1.62-1.412-0.15-0.409-0.15-0.674-0.14-0.709 0 0.021 3.01-1.324 3.01-1.324 0.39-0.169 0.49-0.158 0.51-0.151-0.01 0 0.04 0.03 0.11 0.201l0.5 1.164c0.91 2.094 0.52 2.507-0.24 2.94-0.68 0.397-0.57 0.876-0.49 1.064 0.09 0.212 0.23 0.351 0.4 0.418 0.27 0.105 0.51-0.004 0.6-0.039 0.21-0.094 0.41-0.2 0.61-0.31 0.18-0.1 0.36-0.2 0.54-0.274 0.18-0.08 0.37-0.144 0.57-0.211 0.21-0.07 0.43-0.14 0.64-0.234 0.25-0.108 0.35-0.273 0.41-0.397 0.12-0.336-0.03-0.696-0.18-1.043-0.31-0.7-0.65-1.392-0.98-2.058-0.33-0.658-0.67-1.339-0.96-2.014l-0.42-0.978c-0.45-1.029-0.9-2.091-1.22-3.18l-0.01-0.025-0.01-0.026c-0.14-0.311-0.27-0.637-0.58-0.756-0.06-0.023-0.13-0.042-0.21-0.045zm-105.49 6.274l-1.455 17.473 0.273 0.037c3.759 0.521 5.651 0.269 8.701-0.526 3.22-0.69 6.06-1.065 8.1 1.227-0.18 0.08-0.35 0.169-0.52 0.273-2.56-2.325-5.74-1.578-8.54-0.906-0.6 0.143-1.19 0.283-1.77 0.393-1.284 0.257-4.429 0.37-6.916-0.079l1.537-16.929-0.582-0.055-0.068 0.748-1.506 0.233-0.133 1.195h-1.928l-0.592 4.295 2.041 0.041-0.572 5.191h-2.205l-0.615 4.488 2.318 0.047-0.371 3.366 18.542-0.528c0.99 1.134 3.2 1.391 3.46 1.416l0.05-0.474 0.05 0.476c0.26-0.026 2.47-0.283 3.46-1.416l18.54 0.528-0.37-3.366 2.47-0.049-0.62-4.488h-2.35l-0.57-5.187 2.18-0.045-0.59-4.295h-2.07l-0.09-0.83-0.05-0.365-1.5-0.233-0.07-0.746-0.58 0.053 1.54 16.929c-2.49 0.449-5.64 0.341-6.92 0.081-0.58-0.11-1.17-0.251-1.76-0.393-2.8-0.668-5.95-1.411-8.5 0.855-0.16-0.103-0.34-0.194-0.52-0.271 2.03-2.241 4.85-1.864 8.04-1.182 3.06 0.797 4.95 1.045 8.71 0.528l0.28-0.037-1.46-17.473-0.59 0.049 1.41 16.918c-3.63 0.475-5.4 0.177-8.21-0.555-3.48-0.745-6.54-1.132-8.78 1.545-0.3-0.074-0.61-0.113-0.93-0.117-0.02-0.001-0.04-0.002-0.07-0.002-0.38 0-0.76 0.057-1.12 0.158-2.25-2.726-5.32-2.331-8.83-1.582-2.8 0.73-4.562 1.029-8.203 0.551l1.41-16.916-0.586-0.049zm12.509 0.381c-1.15-0.047-2.34 0.036-3.03 0.244l-0.58 0.18c-1.17 0.375-2.63 0.839-5.01 0.839v0.959c2.53 0 4.07-0.491 5.31-0.884l0.55-0.176c1.23-0.366 4.31-0.243 5.09 0.201l0.47-0.83c-0.54-0.31-1.65-0.487-2.8-0.533zm9.48 0c-1.15 0.046-2.26 0.222-2.8 0.533l0.48 0.83c0.77-0.444 3.86-0.565 5.07-0.201l0.57 0.178c1.23 0.393 2.77 0.882 5.3 0.882v-0.959c-2.38 0-3.84-0.462-5.01-0.837l-0.58-0.182c-0.69-0.208-1.88-0.291-3.03-0.244zm-9.55 1.447c-1.18-0.045-2.4 0.041-3.09 0.25l-0.59 0.184c-1.17 0.373-2.63 0.837-5.01 0.837v0.959c2.53 0 4.06-0.489 5.3-0.882l0.57-0.182c1.22-0.365 4.44-0.25 5.22 0.191l0.47-0.832c-0.54-0.306-1.68-0.48-2.87-0.525zm9.62 0c-1.18 0.044-2.33 0.217-2.87 0.525l0.47 0.832c0.78-0.441 4-0.558 5.22-0.191l0.57 0.18c1.24 0.393 2.77 0.884 5.3 0.884v-0.959c-2.38 0-3.84-0.462-5.01-0.837l-0.58-0.184c-0.7-0.208-1.92-0.294-3.1-0.25zm-23.389 0.813l-1.428 15.726 0.26 0.053c2.596 0.519 6.028 0.402 7.407 0.127 0.58-0.111 1.18-0.253 1.78-0.397 2.76-0.659 5.62-1.329 7.94 0.692-0.12 0.095-0.22 0.195-0.32 0.302l-0.09-0.132-17.948 0.511 1.854-16.798 0.545-0.084zm37.159 0l0.55 0.084 1.85 16.798-17.95-0.509-0.04 0.058c-0.09-0.102-0.19-0.197-0.3-0.287 2.31-1.956 5.13-1.287 7.87-0.635 0.61 0.144 1.2 0.287 1.78 0.399 1.39 0.275 4.81 0.392 7.41-0.129l0.26-0.051-1.43-15.728zm-23.4 0.658c-1.19-0.056-2.41 0.014-3.08 0.215l-0.6 0.187c-1.17 0.371-2.63 0.834-5 0.834v0.959c2.52 0 4.06-0.488 5.29-0.879l0.58-0.182c1.17-0.351 4.44-0.2 5.22 0.243l0.47-0.832c-0.54-0.307-1.69-0.489-2.88-0.545zm9.64 0c-1.19 0.056-2.34 0.238-2.88 0.545l0.47 0.832c0.81-0.455 4.02-0.605 5.22-0.243l0.58 0.182c1.23 0.391 2.77 0.879 5.29 0.879v-0.959c-2.37 0-3.83-0.461-5-0.834l-0.59-0.185c-0.67-0.202-1.9-0.273-3.09-0.217zm-26.364 0.373h1.352l-0.35 3.162-1.434-0.029 0.432-3.133zm41.734 0h1.5l0.43 3.133-1.58 0.031-0.35-3.164zm-15.3 1.062c-1.23 0.054-2.42 0.233-2.95 0.537l0.47 0.834c0.79-0.448 4.14-0.597 5.36-0.234l0.56 0.176c1.23 0.395 2.77 0.888 5.31 0.888v-0.959c-2.39 0-3.85-0.466-5.02-0.841l-0.58-0.182c-0.67-0.201-1.93-0.273-3.15-0.219zm-9.77 0.002c-1.23-0.054-2.49 0.018-3.16 0.219l-0.57 0.178c-1.18 0.376-2.63 0.843-5.024 0.843v0.959c2.544 0 4.074-0.494 5.314-0.89l0.55-0.172c1.21-0.363 4.57-0.216 5.36 0.232l0.47-0.834c-0.53-0.303-1.72-0.481-2.94-0.535zm-0.02 1.438c-1.23-0.055-2.49 0.016-3.17 0.22l-0.59 0.188c-1.17 0.372-2.63 0.834-4.999 0.834v0.959c2.519 0 4.059-0.488 5.289-0.879l0.58-0.182c1.18-0.36 4.6-0.212 5.38 0.235l0.47-0.834c-0.53-0.306-1.73-0.487-2.96-0.541zm9.8 0c-1.23 0.054-2.42 0.235-2.96 0.541l0.47 0.834c0.78-0.443 4.19-0.595 5.38-0.235l0.58 0.182c1.23 0.391 2.77 0.879 5.29 0.879v-0.959c-2.37 0-3.83-0.462-5-0.834l-0.59-0.186c-0.68-0.204-1.94-0.277-3.17-0.222zm-9.86 1.437c-1.26-0.053-2.57 0.021-3.25 0.227l-0.57 0.179c-1.17 0.375-2.63 0.842-5.018 0.842v0.959c2.538 0 4.078-0.492 5.308-0.888l0.56-0.174c1.2-0.355 4.75-0.211 5.52 0.224l0.47-0.832c-0.53-0.302-1.75-0.483-3.02-0.537zm9.92 0.004c-1.26 0.053-2.49 0.231-3.02 0.533l0.47 0.832c0.77-0.438 4.33-0.584 5.52-0.226l0.56 0.176c1.24 0.396 2.77 0.888 5.31 0.888v-0.959c-2.39 0-3.84-0.467-5.01-0.842l-0.58-0.179c-0.68-0.203-1.98-0.276-3.25-0.223zm89.7 0.174c-0.08-0.015-0.18-0.016-0.29 0.014-0.39 0.102-0.47 0.474-0.56 0.869 0 0-0.05 0.209-0.05 0.217-0.15 0.73-0.7 1.459-1.16 2.011l-3.5 4.135s-4.17-2.091-4.17-2.094c-0.46-0.222-1.66-1.075-2.09-1.558l-0.05-0.057c-0.24-0.261-0.51-0.557-1.02-0.426-0.22 0.058-0.35 0.197-0.41 0.297-0.16 0.29-0.08 0.63 0.01 0.959 0.09 0.351 0.22 0.689 0.35 1.014 0.12 0.32 0.24 0.622 0.32 0.935 0.08 0.307 0.13 0.626 0.18 0.965 0.04 0.346 0.09 0.705 0.19 1.055 0.04 0.19 0.1 0.402 0.2 0.574 0.17 0.298 0.46 0.426 0.76 0.346 0.7-0.183 0.66-1.007 0.65-1.276-0.03-0.647 0.17-0.754 0.4-0.814 0.14-0.035 0.43-0.02 1.03 0.248 0 0.002 2.53 1.201 2.53 1.201s-2.42 2.892-2.43 2.91c0-0.011 0.01-0.019 0.01-0.019-0.03 0.032-0.18 0.115-0.33 0.154-0.13 0.033-0.23 0.01-0.33-0.076-0.01-0.02-0.03-0.058-0.05-0.088-0.13-0.207-0.43-0.695-1.05-0.531-0.16 0.037-0.29 0.134-0.37 0.273-0.19 0.315-0.08 0.755 0.05 1.219 0.1 0.399 0.25 0.782 0.38 1.154 0.14 0.369 0.27 0.716 0.36 1.076s0.15 0.725 0.21 1.118c0.06 0.391 0.13 0.794 0.23 1.191 0.14 0.528 0.35 1.323 1.02 1.147 0.55-0.143 0.62-0.781 0.66-1.12v-0.041c0.06-0.438 0.46-1.173 1.09-1.955l3.82-4.572 4.17 2.16c1.08 0.559 1.14 0.632 1.76 1.539 0.36 0.524 0.77 0.508 0.98 0.453 0.24-0.061 0.37-0.197 0.43-0.304 0.16-0.267 0.08-0.572 0.01-0.817-0.09-0.351-0.22-0.688-0.35-1.013-0.12-0.324-0.23-0.625-0.32-0.934-0.08-0.309-0.13-0.628-0.17-0.967-0.05-0.346-0.1-0.706-0.19-1.058-0.06-0.244-0.14-0.549-0.41-0.705-0.11-0.063-0.28-0.123-0.52-0.063-0.43 0.113-0.65 0.427-0.64 0.932 0.01 0.061 0.01 0.126 0.01 0.191 0.05 0.566 0 0.678-0.16 0.721-0.16 0.039-0.57-0.028-1.2-0.356l-2.25-1.197 2.09-2.383c0.29-0.333 0.4-0.399 0.49-0.418 0.01-0.003 0.01-0.004 0.01-0.004s0.07 0.02 0.18 0.205c0.13 0.234 0.42 0.727 1.02 0.571 0.23-0.056 0.34-0.195 0.4-0.295 0.17-0.29 0.08-0.633 0-0.94-0.1-0.41-0.25-0.81-0.39-1.193-0.14-0.391-0.28-0.791-0.39-1.207s-0.18-0.836-0.25-1.246c-0.06-0.405-0.13-0.825-0.24-1.233-0.08-0.303-0.17-0.652-0.45-0.82-0.05-0.029-0.12-0.059-0.21-0.074zm-89.66 1.25c-1.27 0.025-2.5 0.179-3.06 0.496l0.47 0.832c0.76-0.43 4.25-0.514 5.51-0.133l0.58 0.18c1.24 0.391 2.77 0.879 5.29 0.879v-0.957c-2.37 0-3.83-0.464-5-0.836l-0.59-0.186c-0.65-0.197-1.94-0.3-3.2-0.275zm-10 0.002c-1.26-0.025-2.55 0.078-3.2 0.273l-0.59 0.186c-1.17 0.372-2.63 0.836-5 0.836v0.957c2.52 0 4.05-0.488 5.29-0.879l0.58-0.182c1.26-0.377 4.76-0.292 5.51 0.135l0.47-0.832c-0.55-0.317-1.79-0.469-3.06-0.494zm-89.845 0.254c-0.093 0.015-0.17 0.046-0.228 0.08-0.309 0.18-0.413 0.56-0.51 0.928-0.196 0.736-0.356 1.492-0.51 2.22-0.15 0.719-0.308 1.462-0.496 2.176l-0.281 1.031c-0.29 1.08-0.589 2.196-1.02 3.248l-0.008 0.024-0.005 0.025c-0.089 0.328-0.178 0.673-0.014 0.953 0.06 0.105 0.177 0.242 0.406 0.301 0.501 0.135 0.932-0.225 1.274-1.066 0.051-0.127 0.359-0.502 2.207-0.008l7.119 1.891c1.067 0.286 1.265 0.474 1.353 0.927 0.009 0.048 0.019 0.099 0.028 0.153 0.07 0.376 0.167 0.891 0.664 1.023 0.682 0.18 0.855-0.479 1.015-1.064 0.168-0.645 0.304-1.306 0.43-1.942 0.131-0.626 0.261-1.272 0.424-1.892 0.164-0.623 0.376-1.253 0.576-1.858 0.206-0.617 0.416-1.256 0.584-1.898 0.281-1.058-0.462-2.309-1.307-2.854-0.375-0.255-1.109-0.623-1.535-0.734-0.229-0.061-0.436-0.042-0.603 0.057-0.113 0.062-0.252 0.187-0.319 0.425-0.093 0.365 0.145 0.641 0.416 0.963 0.178 0.205 0.398 0.463 0.59 0.801 0.538 0.962 0.604 2.226 0.197 3.75-0.103 0.4-0.196 0.596-0.308 0.66-0.196 0.118-0.75-0.01-1.153-0.115l-3.224-0.858c-0.085-0.023-0.192-0.061-0.215-0.105-0.019-0.034-0.074-0.18 0.061-0.684 0.281-1.04 0.476-1.395 1.181-1.605 0.121-0.033 0.28-0.041 0.43-0.047 0.319-0.015 0.795-0.034 0.916-0.488 0.061-0.219 0.038-0.413-0.055-0.576-0.155-0.264-0.444-0.345-0.654-0.401-0.295-0.079-0.595-0.134-0.885-0.193-0.289-0.056-0.559-0.112-0.832-0.182-0.27-0.075-0.536-0.162-0.812-0.256-0.28-0.092-0.571-0.191-0.866-0.271-0.233-0.06-0.524-0.14-0.785 0.01-0.103 0.061-0.239 0.179-0.301 0.408-0.121 0.467 0.146 0.705 0.614 1.047 0.528 0.375 0.711 1.101 0.388 2.111-0.131 0.414-0.3 0.62-0.328 0.643 0.014-0.012-3.177-0.828-3.177-0.828-0.413-0.11-0.484-0.178-0.493-0.192 0 0-0.01-0.053 0.037-0.234l0.329-1.225c0.583-2.202 1.148-2.284 2.009-2.156 0.785 0.12 0.991-0.329 1.047-0.527 0.056-0.22 0.043-0.417-0.054-0.579-0.142-0.242-0.404-0.314-0.493-0.336-0.225-0.061-0.448-0.098-0.668-0.134-0.21-0.039-0.408-0.072-0.599-0.123-0.191-0.052-0.379-0.117-0.574-0.19-0.212-0.075-0.425-0.156-0.649-0.215-0.129-0.033-0.24-0.035-0.334-0.019zm88.915 1.222c-0.97-0.016-1.88 0.044-2.41 0.204l-0.57 0.181c-1.17 0.374-2.63 0.84-5.019 0.84v0.959c2.539 0 4.069-0.492 5.309-0.887l0.56-0.175c1.26-0.375 4.99-0.085 5.74 0.349l0.48-0.832c-0.64-0.366-2.46-0.611-4.09-0.639zm11.86 0.002c-1.62 0.029-3.45 0.272-4.09 0.637l0.48 0.832c0.75-0.434 4.48-0.724 5.74-0.349l0.56 0.173c1.24 0.397 2.77 0.889 5.31 0.889v-0.959c-2.39 0-3.85-0.465-5.02-0.84l-0.57-0.181c-0.53-0.159-1.43-0.218-2.41-0.202zm-11.99 1.401c-0.99-0.011-1.9 0.056-2.44 0.217l-0.6 0.187c-1.17 0.371-2.62 0.834-4.991 0.834v0.959c2.521 0 4.051-0.488 5.281-0.879l0.59-0.183c1.24-0.377 5.07-0.107 5.81 0.312l0.47-0.832c-0.64-0.364-2.48-0.597-4.12-0.615zm12.13 0c-1.65 0.018-3.49 0.251-4.13 0.615l0.47 0.832c0.74-0.419 4.57-0.69 5.82-0.31l0.58 0.179c1.23 0.391 2.76 0.881 5.28 0.881v-0.959c-2.37 0-3.83-0.465-5-0.836l-0.59-0.183c-0.54-0.163-1.45-0.23-2.43-0.219zm-28.942 1.279h1.627l-0.371 3.361-1.713-0.033 0.457-3.328zm44.122 0h1.77l0.46 3.328-1.86 0.037-0.37-3.365zm-21.17 5.227h0.06c0.96 0.014 1.83 0.426 2.46 1.111-0.7 0.573-2.02 0.838-2.6 0.904-0.55-0.063-1.82-0.316-2.53-0.857 0.68-0.731 1.61-1.158 2.61-1.158zm-59.728 0.273c-0.189 0.046-0.316 0.241-0.445 0.445l-0.047 0.071c-0.177 0.28-0.612 0.337-1.029 0.388-0.096 0.014-0.195 0.024-0.287 0.038 0 0-7.636 1.117-7.643 1.117-0.25 0.047-0.429 0.106-0.47 0.259-0.07 0.234 0.092 0.388 0.384 0.663 0.003 0 6.18 5.647 6.18 5.647 0.145 0.13 0.235 0.24 0.313 0.47 0.013 0.04 0.028 0.11 0.037 0.18 0.038 0.19 0.09 0.46 0.345 0.54 0.383 0.11 0.489-0.25 0.534-0.4 0.065-0.22 0.105-0.45 0.142-0.67 0.036-0.217 0.068-0.42 0.129-0.621 0.056-0.199 0.14-0.39 0.225-0.592 0.088-0.208 0.179-0.415 0.244-0.64 0.047-0.154 0.093-0.308 0.013-0.453-0.046-0.087-0.13-0.145-0.248-0.18-0.313-0.096-0.546 0.287-0.775 0.654l-0.072 0.115c-0.129 0.205-0.302 0.414-0.52 0.313 0 0-1.003-0.501-1.228-0.912-0.065-0.123-0.083-0.225-0.057-0.317l0.557-1.892c0.177-0.604 0.278-0.752 0.408-0.824 0.174-0.095 1.286-0.171 1.572-0.082 0.249 0.07 0.4 0.277 0.377 0.511l0.004-0.029c-0.065 0.295 0.067 0.562 0.314 0.637 0.099 0.027 0.207 0.003 0.295-0.063 0.082-0.057 0.146-0.153 0.182-0.273 0.091-0.31 0.155-0.63 0.219-0.936 0.057-0.292 0.114-0.567 0.191-0.824 0.078-0.26 0.177-0.522 0.287-0.801 0.113-0.29 0.227-0.593 0.319-0.904 0.046-0.155 0.088-0.301 0.013-0.44-0.047-0.086-0.131-0.148-0.25-0.185-0.08-0.023-0.149-0.025-0.213-0.01zm125.61 2.848c-0.36 0.026-0.73 0.086-1.12 0.178-1.19 0.276-2.14 0.947-2.75 1.933-0.66 1.058-0.87 2.376-0.58 3.625 0.65 2.774 3.16 3.674 3.61 3.574 0.12-0.03 0.2-0.09 0.25-0.17 0.03-0.05 0.06-0.13 0.04-0.25-0.06-0.25-0.31-0.39-0.51-0.5-0.04-0.03-0.08-0.04-0.11-0.07-0.89-0.55-1.54-1.41-1.75-2.29-0.14-0.603-0.02-1.229 0.34-1.819 0.53-0.843 1.49-1.497 2.59-1.754 2.32-0.543 3.65 0.037 4.05 1.767 0.24 1.055-0.24 2.216-1.38 3.256 0 0.01-0.02 0.02-0.03 0.03-0.15 0.13-0.39 0.35-0.33 0.59 0.05 0.25 0.34 0.32 0.58 0.26 0.1-0.02 0.22-0.07 0.36-0.13 0.09-0.04 0.19-0.08 0.29-0.11 0 0 1.66-0.59 1.68-0.6 0.17-0.07 0.25-0.23 0.21-0.41-0.07-0.3-0.28-0.36-0.41-0.39-0.1-0.03-0.11-0.04-0.11-0.08-0.02-0.07 0.01-0.3 0.04-0.52 0.08-0.577 0.2-1.449-0.02-2.407-0.32-1.343-1.06-2.429-2.09-3.071-0.81-0.505-1.76-0.721-2.85-0.642zm-130.29 0.703l-0.578 1.969-1.768-1.565 2.346-0.404zm-33.756 1.467c-0.244-0.022-0.408 0.064-0.502 0.144-0.239 0.196-0.261 0.499-0.285 0.744-0.043 0.408-0.036 0.818-0.031 1.213 0.005 0.394 0.009 0.767-0.03 1.137-0.032 0.372-0.102 0.732-0.177 1.122-0.074 0.39-0.152 0.79-0.19 1.2-0.051 0.57-0.099 1.07 0.149 1.37 0.107 0.12 0.248 0.2 0.412 0.21 0.491 0.05 0.845-0.22 0.925-0.69 0.108-0.67 0.379-1.09 1.332-1l2.684 0.24c0.089 0.01 0.127 0.03 0.127 0.04 0.009 0 0.074 0.09 0.031 0.52l-0.381 4.21c-0.018 0.22-0.081 0.28-0.089 0.29-0.024 0.02-0.08 0.03-0.155 0.02l-2.683-0.25c-0.384-0.03-1.044-0.19-1.18-0.83-0.048-0.23-0.168-0.82-0.766-0.88-0.243-0.02-0.402 0.07-0.496 0.15-0.244 0.2-0.266 0.5-0.289 0.74-0.037 0.41-0.033 0.82-0.033 1.22 0.005 0.39 0.01 0.76-0.027 1.13-0.033 0.37-0.103 0.74-0.178 1.13-0.075 0.38-0.154 0.78-0.192 1.19-0.052 0.57-0.098 1.07 0.155 1.37 0.102 0.13 0.241 0.2 0.406 0.21 0.489 0.05 0.845-0.21 0.924-0.69 0.112-0.66 0.378-1.09 1.328-1l8.754 0.8c0.382 0.04 1.048 0.19 1.183 0.83 0.043 0.23 0.163 0.82 0.762 0.88 0.701 0.06 0.767-0.65 0.785-0.89 0.043-0.41 0.037-0.81 0.034-1.21 0-0.4-0.006-0.77 0.027-1.14 0.037-0.37 0.103-0.73 0.183-1.12 0.076-0.39 0.15-0.79 0.188-1.2 0.051-0.57 0.097-1.07-0.15-1.37-0.103-0.12-0.247-0.19-0.411-0.21-0.491-0.05-0.844 0.22-0.927 0.69-0.108 0.67-0.378 1.09-1.328 1.01l-4.03-0.42s0.486-5 0.51-5.05c-0.005 0.01 3.986 0.39 3.986 0.39 0.379 0.03 1.04 0.19 1.176 0.83 0.046 0.22 0.167 0.82 0.766 0.87 0.697 0.07 0.768-0.65 0.787-0.88 0.041-0.41 0.036-0.82 0.031-1.22-0.005-0.39-0.008-0.77 0.029-1.14 0.034-0.37 0.103-0.73 0.178-1.11 0.075-0.393 0.154-0.793 0.192-1.204 0.051-0.57 0.098-1.066-0.151-1.365-0.107-0.126-0.246-0.199-0.41-0.217-0.491-0.046-0.848 0.221-0.928 0.694-0.107 0.666-0.377 1.088-1.326 1l-8.76-0.799c-0.593-0.057-1.088-0.404-1.173-0.834-0.047-0.224-0.167-0.82-0.766-0.875zm47.191 1.722v1.918h101.92v-1.918h-101.92zm-19.859 1.643c-0.121-0.016-0.22 0.004-0.299 0.066-0.126 0.097-0.142 0.249-0.158 0.349-0.029 0.23-0.031 0.47-0.031 0.7-0.003 0.22-0.007 0.44-0.034 0.65-0.025 0.22-0.081 0.42-0.134 0.65-0.054 0.22-0.108 0.45-0.137 0.69-0.026 0.19-0.053 0.42 0.068 0.58 0.059 0.07 0.145 0.12 0.248 0.13 0.369 0.05 0.538-0.42 0.664-0.76 0.207-0.57 0.735-0.61 1.704-0.49l3.009 0.36s-6.012 4.52-6.004 4.51c-0.196 0.14-0.271 0.28-0.312 0.6-0.024 0.2-0.035 0.4-0.049 0.59-0.009 0.19-0.017 0.39-0.045 0.57-0.021 0.19-0.057 0.38-0.094 0.56-0.035 0.19-0.073 0.39-0.099 0.58-0.006 0.07-0.02 0.18 0.055 0.28 0.077 0.1 0.208 0.13 0.296 0.14 0.295 0.03 0.422-0.17 0.594-0.45 0.033-0.05 0.075-0.12 0.117-0.19 0.224-0.33 0.844-0.46 1.317-0.39l4.822 0.6c0.651 0.08 0.926 0.3 1.17 0.93l0.014 0.04c0.072 0.19 0.162 0.43 0.468 0.47 0.225 0.03 0.334-0.08 0.377-0.15 0.057-0.08 0.072-0.18 0.08-0.26 0.028-0.23 0.033-0.47 0.036-0.7 0.002-0.23 0.003-0.44 0.033-0.66 0.026-0.21 0.077-0.42 0.129-0.64 0.056-0.22 0.112-0.45 0.142-0.69 0.026-0.2 0.056-0.45-0.082-0.63-0.066-0.09-0.159-0.14-0.275-0.15-0.333-0.05-0.443 0.29-0.52 0.54-0.033 0.09-0.06 0.19-0.097 0.27-0.21 0.46-0.581 0.63-1.194 0.55l-4.652-0.58 0.435-0.32s6.305-4.79 6.307-4.79c0.608-0.47 0.789-0.66 0.813-0.84 0.016-0.12-0.032-0.2-0.067-0.25-0.105-0.14-0.298-0.2-0.795-0.26l-6.166-0.78c-0.657-0.08-0.929-0.29-1.168-0.91l-0.017-0.05c-0.073-0.19-0.163-0.428-0.469-0.465zm156.74 0.375c-0.21 0.01-0.37 0.09-0.49 0.22-0.19 0.21-0.18 0.5-0.17 0.72 0.03 0.35 0.09 0.7 0.15 1.03s0.11 0.64 0.13 0.95 0 0.62-0.02 0.95c-0.02 0.34-0.04 0.69-0.02 1.05 0.02 0.27 0.06 0.92 0.76 0.87 0.57-0.03 0.72-0.73 0.86-1.4l0.05-0.21c0.06-0.31-0.03-0.43 0.39-0.64s1 0.07 1.56 0.27c0.55 0.21 0.89 0.48 0.9 0.74l0.18 2.98c0.06 0.92-0.01 1.17-0.14 1.32-0.2 0.21-1.7 0.87-2.14 0.89-0.28 0.02-0.61-0.12-0.7-0.46l0.01 0.05c-0.06-0.5-0.43-0.85-0.87-0.82-0.16 0-0.3 0.08-0.41 0.2-0.1 0.11-0.2 0.3-0.18 0.62 0.02 0.49 0.1 0.98 0.16 1.45 0.07 0.44 0.13 0.86 0.15 1.27 0.03 0.4 0.02 0.83 0.01 1.27-0.01 0.48-0.03 0.97 0 1.47 0.02 0.26 0.06 0.89 0.76 0.85 0.58-0.03 0.69-0.54 0.81-1.03l0.02-0.12c0.11-0.45 0.65-0.72 1.22-1.02 0.13-0.06 0.27-0.13 0.4-0.2 0 0 10.31-5.51 10.33-5.52 0.36-0.21 0.59-0.41 0.58-0.69-0.02-0.43-0.39-0.59-0.95-0.83l-11.7-4.88c-0.27-0.11-0.43-0.21-0.65-0.48-0.04-0.06-0.09-0.14-0.14-0.23-0.16-0.26-0.4-0.66-0.85-0.64zm-58.87 0.5c-0.78 2.73-0.78 6.25 1.96 7.42l0.12-0.26 0.8 0.35c0.93 0.41 1.56 0.81 2.06 1.35-0.34-1.07-1.1-2.07-1.92-3.11l-1.85-2.76 0.53-0.25 1.79 2.65c0.66 0.84 1.33 1.7 1.77 2.63-0.02-0.29-0.03-0.49-0.03-0.49v-0.48c0-0.93-0.05-1.83-0.43-3.06l0.28-0.08c-0.78-2.35-3.51-2.35-5.08-3.91zm1.96 7.42c-0.25 0.06-0.41 0.18-0.6 0.28 1.96 1.05 3.41 2.23 4.44 3.61-0.1-0.26-0.19-0.55-0.26-0.9l-0.15 0.04c-0.47-1.4-1.18-1.72-2.75-2.4l-0.8-0.36 0.12-0.27zm-63.136-5.22c-0.541 0.01-0.968 0.41-0.992 0.92-0.077 1.57-0.393 2.35-1.174 3.52-0.39 0.78-0.65 1.82 0 3.13l0.156-0.25c1.335 0.85 1.845 1.98 2.03 2.93 0.212-0.42 0.467-0.79 0.748-1.13l-0.438 0.31c-1.186-1.65-1.39-3.27-1.076-4.06l0.338-0.64c0.328-0.57 0.669-1.15 0.494-2.19l0.576-0.1c0.21 1.26-0.218 1.99-0.562 2.58l-0.301 0.57c-0.215 0.54-0.123 1.91 1.002 3.49 0.335-0.41 0.705-0.75 1.094-1.08l-1.194-1.34 0.166-0.2c0.553-0.64 1.402-2.08 0.848-4.43l0.299-0.07c-0.285-0.55-0.76-1.47-1.445-1.82-0.196-0.1-0.388-0.14-0.569-0.14zm6.457 0.18c-1.391 0.07-3.336 1.24-4.15 1.88 0.11 0.52 0.176 1.01 0.176 1.45 0 1.52-0.564 2.51-1.032 3.11 0.213 0.24 0.899 1.01 0.899 1.01l-0.135 0.13c0.183-0.14 0.361-0.3 0.549-0.42l-0.137 0.02c-0.591-3.09 1.88-4.91 2.969-5.55l0.297 0.51c-0.959 0.56-3.089 2.13-2.705 4.75 0.198-0.13 0.4-0.27 0.593-0.38 0.944-0.56 1.763-1.04 1.987-1.58l0.273 0.11c0-1.17 3.123-3.51 1.561-4.69-0.279-0.28-0.681-0.37-1.145-0.35zm99.029 0.31c-0.3 0.03-0.46 0.22-0.45 0.51 0.02 0.56-0.2 0.82-0.78 0.89l-5.76 0.67c-0.51 0.06-0.8-0.05-0.93-0.35-0.05-0.13-0.2-0.46-0.55-0.42-0.14 0.01-0.21 0.08-0.26 0.13-0.11 0.14-0.09 0.34-0.06 0.54 0.03 0.27 0.08 0.53 0.14 0.78 0.05 0.26 0.11 0.5 0.14 0.75 0.03 0.26 0.03 0.53 0.03 0.78 0.01 0.24 0.01 0.45 0.03 0.65 0.05 0.44 0.11 0.94 0.51 0.89 0.29-0.03 0.46-0.22 0.45-0.5 0-0.01 0-0.82 0.77-0.91l5.76-0.67c0.5-0.06 0.79-0.03 0.93 0.28 0 0.01 0.01 0.03 0.01 0.05 0.08 0.18 0.22 0.54 0.55 0.51 0.14-0.02 0.22-0.09 0.26-0.14 0.11-0.14 0.09-0.33 0.07-0.48-0.03-0.27-0.09-0.52-0.14-0.78-0.06-0.26-0.11-0.5-0.14-0.75-0.03-0.24-0.03-0.49-0.03-0.75-0.01-0.26-0.01-0.53-0.04-0.79-0.05-0.36-0.08-0.68-0.26-0.82-0.08-0.06-0.16-0.08-0.25-0.07zm-38.5 0.66c0.16 0.91 0.23 1.66 0.23 2.29 0 0.49-0.04 0.93-0.06 1.36l-0.02 2.16c0.15 1.63 0.4 2.18 0.98 3.02 0.3-1.55 0.14-3.31-0.06-4.72l0.58-0.08c0.21 1.51 0.39 3.43 0.03 5.11 0.47-0.42 0.65-0.7 1.24-1.88l0.2 0.1c-0.11-1.11 0.55-2.51-0.33-3.68-0.72-1.44-1.47-2.85-2.79-3.68zm59.08 1.1l3.16 1.31-3.03 1.59-0.13-2.9zm-91.9 0.84s-5.02 15.41-5.14 15.8h-16.827s13.377 9.95 13.707 10.2c-0.12 0.37-4.55 13.78-5.05 15.32-0.531-0.62-1.245-0.83-2.317-0.11-0.292 0.19-0.292 1.85-0.388 2.35l0.289-0.04c0.216 2.16 0.974 3.66 2.796 5.39-0.78-1.61-1.296-3.55-1.296-5.1h0.586c0 1.49 0.53 3.43 1.3 4.98 0-0.72 0.07-1.44 0.17-2.29l0.16-1.41 0.29 0.03c-0.39-0.99-0.72-2.42-1.28-3.37 1.07-0.79 12.67-9.3 12.99-9.53 0.32 0.23 11.96 8.78 13 9.55-0.73 0.74-1.23 1.76-2.22 2.55l0.31 0.11c-0.16 0.43-0.21 0.86-0.21 1.31 0 0.65 0.12 1.31 0.23 1.97 0.1 0.56 0.19 1.09 0.21 1.6 1.03-1.54 1.34-3.24 1.48-4.87l0.58 0.05c-0.14 1.74-0.48 3.56-1.63 5.24 1.39-0.86 3-2.17 3.27-3.5l0.29 0.06c-0.79-1.17-0.4-3.91 0.78-5.47-1.32-0.14-2.13 0.15-2.74 0.64-0.43-1.32-4.92-15.09-5.04-15.46 0.32-0.25 13.58-10.2 13.58-10.2h-16.86c-0.13-0.39-5.02-15.8-5.02-15.8zm15.3 46.29l0.28 0.06c-0.24 1.21-1.34 2.29-2.41 3.09l0.67-0.14c0.45-0.06 0.89-0.13 1.3-0.22l0.09-0.19c0.51-1.02 0.55-1.41 0.55-2.96-0.14 0.09-0.31 0.19-0.48 0.36zm-27.02-1.17l0.29 0.03-0.16 1.42c-0.22 1.84-0.35 3.09 0.44 4.61 0.22-0.45 0.53-1.1 0.87-1.79l-0.35 0.12c-0.23-0.7-0.09-1.51 0.04-2.29l0.14-1.87 0.59-0.08-0.15 2.05c-0.11 0.62-0.17 1.19-0.09 1.7 0.81-1.68 1.69-3.49 1.68-3.47 0.2-0.58 0.96-1.09 1.76-1.17h0.06c-0.55-0.17-1.12-0.39-1.6-0.82-0.66-0.59-1.57-1.57-2.74-0.79-0.78 0.39 0 1.57-0.78 2.35zm-4.295-1.56c-0.78-1.57-0.393-3.52-1.955-4.7-1.173-0.78-1.172 0.79-1.954 1.57l0.289 0.06c-0.86 4.29 1.207 6.61 3.092 7.8l-0.035 0.05c0.199 0.08 0.386 0.17 0.578 0.25-1.555-1.97-2.242-4.54-2.517-6.02l0.576-0.11c0.309 1.65 1.131 4.71 3.166 6.61l-0.09 0.1c0.467 0.28 0.903 0.58 1.285 0.92 0.53 0.06 1.04 0.21 1.52 0.44-0.01-0.03-0.04-0.08-0.05-0.11-2.858-2.35-3.921-4.07-4.196-6.84l0.291-0.02zm-3.909-3.13c-1.171-1.17-0.001-3.52-1.562-4.3-1.175-0.39-1.563 0-1.955 1.17l0.283 0.08-0.215 0.73c-0.285 0.96-0.586 1.96-0.586 2.94 0 1.2 0.527 2.35 2.047 3.31-0.514-1.95-0.517-2.93-0.517-5.23h0.585c0 2.34 0.001 3.22 0.512 5.13l-0.525 0.14c0.059 0.04 0.092 0.08 0.156 0.11 0.243-0.11 1.172-0.54 1.422-0.66-0.18-1-0.198-2.14 0.07-3.48l0.285 0.06zm-3.517-3.13c-0.781-1.56 0.393-3.51-1.561-4.69-0.39 0-0.782 0-1.172 0.39l0.223 0.2c-1.496 1.74-1.486 3.21-1.103 6.15l-0.081 0.01c0.559 0.24 1.074 0.6 1.612 1.05-0.414-1.67-0.388-2.71-0.16-5.09l0.584 0.06c-0.262 2.72-0.257 3.58 0.377 5.74 0.067 0.06 0.139 0.13 0.209 0.2-0.062-1.18 0.277-2.37 0.58-3.38l0.211-0.72 0.281 0.08zm-2.733-4.3c-0.783-1.95 0.782-6.25-2.345-5.47-1.425 0.36-1.879 2.34-2.537 4.17l0.226-0.01c0.068 1.39 0.553 1.93 1.026 2.46 0.422 0.48 0.86 0.97 0.865 1.8l0.463 0.46c-0.559-2.21-0.325-3.91-0.075-5.54l0.135-0.9 0.58 0.08-0.136 0.91c-0.253 1.65-0.51 3.35 0.119 5.58 0.04-1.41 0.42-2.52 1.459-3.73l0.22 0.19zm-1.945-30.35c-0.414 0.52-1.139 0.96-1.965 1.45-1.422 0.84-3.181 1.89-3.871 3.75-0.077 0.58-0.285 2.15-0.42 3.15 0.255-0.44 0.544-0.83 0.862-1.15l-0.073-0.02c0.625-2.02 1.765-3.5 3.489-4.53l0.298 0.5c-1.328 0.8-2.262 1.9-2.877 3.33 0.723-0.49 1.564-0.87 2.579-1.28l0.298-0.12 0.11 0.27c1.787-1.08 1.615-3.46 1.57-5.35zm-1.57 5.35l0.109 0.27-0.299 0.12c-2.68 1.09-4.026 1.64-4.869 4.89l-0.021-0.01c0.009 0.38 0.084 0.73 0.166 1.1 0.093 0.41 0.188 0.86 0.199 1.39 0.267-0.46 0.561-0.87 0.891-1.23l-0.372-0.08c0.412-2.06 0.982-2.62 2.575-3.95l0.375 0.46c-1.413 1.17-1.909 1.7-2.272 3.22 0.704-0.69 1.467-1.21 2.106-1.62l1.203-0.86 0.209 0.2c0.78-0.78 1.17-1.95 1.17-3.12-0.782 0-0.781-0.4-1.17-0.78zm57.579-5.29c-0.62 0.58-0.76 1.45-0.49 2.55 0.4 1.95 1.96 3.52 3.52 4.69l0.14-0.26 1.33 0.45c0.38 0.08 0.71 0.19 1 0.38-0.31-0.37-0.77-0.85-1.21-1.31l-2.54-2.87 0.48-0.34 2.48 2.8c0.54 0.57 0.96 1 1.25 1.34-0.59-3.22-2.38-5.47-6-7.36l0.04-0.07zm3.03 7.24c-2.4 1.03-2.39 4.16-1.83 6.5l0.31-0.23 2.07 1.98c0.73 0.6 1.45 1.23 1.99 1.86-0.27-0.9-0.82-1.94-1.36-2.95l-1.06-2.09 0.54-0.24 1.03 2.05c0.77 1.41 1.46 2.75 1.56 3.92 0.14-0.14 0.26-0.28 0.33-0.34-0.45-1.03-0.51-2.08-0.53-3.11-0.02-0.96-0.04-1.88-0.39-2.75-0.37-0.92-0.86-1.31-1.48-1.81-0.62-0.49-1.32-1.05-2.02-2.25l0.51-0.3c0.65 1.11 1.27 1.61 1.88 2.1 0.63 0.5 1.23 0.98 1.65 2.04 0.39 0.97 0.41 1.98 0.43 2.95 0.02 0.8 0.04 1.56 0.24 2.3 0.23-1.28 0.21-2.09 0.06-4.04h-0.02l-0.08-0.21c-0.3-0.73-0.46-1.39-0.54-2.01h-0.06c-0.38-2.28-0.95-2.4-1.89-2.61l-1.48-0.51 0.14-0.25zm41.16-6.89c-0.29 0-0.37 0.19-0.43 0.32-0.02 0.03-0.03 0.07-0.05 0.11l-0.06 0.09c-0.11 0.22-0.25 0.48-0.71 0.69l-7.14 3.25c-0.38 0.17-0.68 0.31-0.68 0.65 0 0.27 0.13 0.47 0.82 0.79l6.32 2.87 0.18 0.07c0.64 0.29 0.94 0.42 1.17 0.66 0.09 0.09 0.13 0.19 0.18 0.27 0.08 0.14 0.18 0.32 0.42 0.32 0.14 0 0.23-0.05 0.28-0.11 0.12-0.12 0.12-0.28 0.12-0.38 0-0.23-0.03-0.46-0.06-0.68s-0.05-0.43-0.05-0.64c0-0.2 0.02-0.41 0.05-0.63 0.02-0.22 0.05-0.45 0.05-0.68 0-0.1 0-0.26-0.11-0.37-0.08-0.08-0.17-0.11-0.29-0.11-0.28 0-0.39 0.22-0.48 0.39-0.09 0.16-0.15 0.33-0.2 0.48-0.05 0.16-0.1 0.31-0.18 0.4-0.04 0.04-0.1 0.1-0.34 0.1-0.16 0-0.43-0.11-0.72-0.24l-3.99-1.79 0.29-0.13 4-1.8 0.11-0.04c0.18-0.09 0.39-0.19 0.55-0.19 0.29 0 0.4 0.04 0.46 0.28 0.04 0.21 0.14 0.56 0.49 0.56 0.11 0 0.2-0.04 0.27-0.11 0.13-0.13 0.14-0.33 0.14-0.41 0-0.3-0.03-0.6-0.06-0.89-0.02-0.28-0.05-0.57-0.05-0.85s0.02-0.58 0.05-0.85c0.02-0.3 0.05-0.59 0.05-0.89 0-0.15 0-0.29-0.11-0.41-0.07-0.06-0.17-0.1-0.29-0.1zm-110.2 0.95c-0.069 0.01-0.126 0.03-0.168 0.08-0.499 0.83-0.758 1.87-0.922 2.93l0.313-0.44 0.51 0.36c0.832 0.58 1.769 1.27 2.498 2.14-0.197-0.93-0.584-2-1.448-3.01l0.446-0.39c1.34 1.56 1.649 3.28 1.761 4.43l-0.056 0.01c0.1 0.2 0.186 0.4 0.257 0.61l0.387-2.93h-0.011c0-0.85-0.507-2.17-1.938-3.07l0.119-0.19c-0.228-0.01-1.267-0.61-1.748-0.53zm75.159 1.19c-0.26 0.03-0.31 1.23-0.65 1.23l0.29 0.05-0.85 2.24h0.01c-0.53 1.09-1.1 2.27-1.1 3.76 0 0.43 0.08 0.91 0.2 1.4 0.16-0.48 0.43-0.93 0.72-1.39 0.42-0.65 0.85-1.32 0.96-2.19l0.58 0.08c-0.13 1-0.61 1.76-1.04 2.43-0.45 0.71-0.84 1.31-0.78 2.06v0.02c1.41-0.15 1.6-0.25 2.77-1.26l0.47-0.4c1.08-2.58-0.01-5.44-1.45-7.97-0.05-0.05-0.09-0.07-0.13-0.06zm-0.65 1.23c-0.14-0.14-0.25-0.3-0.32-0.47-0.61 1.21-0.71 1.32-1.64 2.07l-0.25 0.19-0.38-0.54c-0.02-0.02-0.03-0.04-0.04-0.05 0.37 0.8 0.63 1.67 0.78 2.63 0.22-0.65 0.5-1.25 0.77-1.79l0.79-2.09 0.29 0.05zm-99.946 0.08c-0.293 0.01-0.48 0.17-0.498 0.46 0 0-0.084 0.81-0.866 0.82l-5.799 0.08c-0.495 0-0.781-0.06-0.888-0.39-0.004-0.01-0.009-0.02-0.014-0.04-0.054-0.19-0.16-0.57-0.492-0.56-0.14 0-0.223 0.05-0.273 0.11-0.123 0.12-0.118 0.31-0.118 0.46 0.003 0.27 0.033 0.53 0.061 0.79 0.032 0.26 0.057 0.51 0.06 0.76 0.005 0.24-0.019 0.49-0.041 0.75s-0.048 0.52-0.043 0.8c0.004 0.36 0.01 0.67 0.172 0.84 0.067 0.06 0.15 0.09 0.239 0.09 0.295 0 0.482-0.17 0.502-0.46 0.032-0.56 0.285-0.8 0.865-0.81l5.799-0.07c0.512-0.01 0.788 0.13 0.888 0.44 0.045 0.14 0.154 0.49 0.504 0.49 0.403-0.01 0.397-0.41 0.393-0.65-0.003-0.26-0.033-0.53-0.061-0.79-0.03-0.26-0.057-0.5-0.062-0.75-0.004-0.26 0.022-0.53 0.049-0.79 0.018-0.22 0.039-0.44 0.037-0.64-0.005-0.36-0.01-0.68-0.174-0.85-0.065-0.06-0.149-0.09-0.24-0.09zm24.337 0.57c-0.215 1.41-0.236 2.88-0.236 4.04l0.17-0.24 0.455 0.33c0.788 0.56 1.564 1.15 2.233 1.83-0.265-1.17-0.661-2.06-1.426-3.47l0.517-0.28c0.898 1.67 1.32 2.61 1.596 4.12l-0.291 0.05c0.54 0.64 0.968 1.37 1.217 2.23-0.018-0.44-0.104-0.82-0.188-1.2-0.15-0.66-0.275-1.35-0.037-2.25 0.059-2.33-1.895-3.7-3.513-4.82l-0.497-0.34zm-57.539 1.09c-0.158 0.02-0.333 0.05-0.464 0.08l-1.963 0.36c-0.752 0.13-1.057 0.3-0.991 1.07 0.075 0.98 0.195 1.98 0.313 2.95 0.116 0.98 0.244 1.99 0.324 2.98 0.079 0.99 0.12 2 0.162 2.96 0.037 0.99 0.078 1.99 0.158 3 0.052 0.62 0.304 0.88 0.879 0.9 0 0 2.002 0.04 2.006 0.04h0.211c0.173 0 0.351 0.01 0.492 0 0.164-0.01 0.304-0.09 0.407-0.2 0.122-0.15 0.176-0.35 0.154-0.59-0.048-0.61-0.441-0.69-0.529-0.69-1.735-0.29-1.875-0.91-2.016-2.67-0.014-0.19-0.059-0.77 0.09-0.95 0.019-0.02 0.075-0.09 0.295-0.1l9.033-0.73c0.865-0.08 1.093 0.37 1.379 1.1 0.065 0.19 0.132 0.36 0.221 0.51 0.008 0.02 0.023 0.06 0.037 0.1 0.061 0.18 0.215 0.66 0.847 0.61 0.205-0.01 0.368-0.09 0.481-0.23 0.187-0.21 0.164-0.49 0.15-0.68-0.046-0.59-0.137-1.18-0.22-1.76-0.089-0.57-0.174-1.17-0.221-1.75-0.046-0.59-0.06-1.19-0.065-1.78-0.013-0.58-0.019-1.18-0.066-1.76-0.019-0.2-0.041-0.47-0.256-0.65-0.136-0.12-0.309-0.17-0.516-0.15-0.631 0.05-0.71 0.54-0.738 0.73-0.005 0.04-0.013 0.09-0.023 0.11-0.057 0.17-0.094 0.34-0.131 0.53-0.159 0.78-0.319 1.25-1.184 1.32l-9.033 0.74c-0.229 0.02-0.29-0.04-0.309-0.05-0.08-0.07-0.187-0.28-0.238-0.93-0.145-1.75-0.107-2.39 1.53-2.95 0.183-0.04 0.486-0.21 0.439-0.77-0.014-0.18-0.09-0.42-0.268-0.57-0.107-0.09-0.237-0.14-0.377-0.13zm187.37 2.81c-0.17-0.02-0.38 0.02-0.55 0.05-0.07 0.01-0.13 0.02-0.17 0.02-0.01 0.01-2.78 0.43-2.79 0.43-0.49 0.1-0.61 0.55-0.68 0.77 0 0.02-0.01 0.04-0.01 0.06-0.1 0.35-0.23 0.7-0.35 1.03-0.27 0.79-0.55 1.59-0.64 2.5-0.13 1.32 0.23 2.52 1.02 3.48 0.81 0.97 2 1.62 3.21 1.73 3.29 0.31 4.38-2.11 5.26-4.06 0.73-1.62 1.23-2.6 2.35-2.5 0.34 0.03 0.62 0.18 0.84 0.44 0.3 0.37 0.44 0.93 0.39 1.53-0.12 1.27-1.43 2.69-2.74 2.97l-0.08 0.02c-0.48 0.11-1.02 0.22-1.08 0.84-0.02 0.28 0.08 0.46 0.16 0.57 0.09 0.11 0.27 0.25 0.58 0.28 0.09 0.01 0.22 0 0.56-0.01 0.67-0.03 1.79-0.07 2.56 0.03 0.16 0.01 0.36 0.02 0.53-0.09 0.18-0.11 0.27-0.29 0.3-0.54 0.01-0.16-0.05-0.33-0.11-0.54-0.03-0.09-0.08-0.26-0.09-0.3 0.02-0.18 0.15-0.44 0.3-0.76 0.28-0.57 0.67-1.37 0.77-2.46 0.11-1.18-0.23-2.32-0.96-3.2-0.71-0.86-1.74-1.41-2.83-1.51-3.27-0.31-4.41 2.13-5.32 4.09-0.74 1.6-1.25 2.57-2.31 2.47-0.51-0.05-0.93-0.27-1.23-0.62-0.34-0.42-0.5-1-0.44-1.64 0.17-1.73 1.67-2.86 3.02-3.35 0.05-0.01 0.12-0.03 0.18-0.05 0.33-0.09 0.9-0.24 0.95-0.82 0.03-0.26-0.02-0.47-0.15-0.63-0.11-0.13-0.27-0.22-0.45-0.23zm-56.63 0.02l-0.05 0.01c0.02 0.03 0.04 0.05 0.06 0.08 0-0.03-0.01-0.06-0.01-0.09zm-73.419 0.5c0.046 1.59 0.371 3.77 0.371 5.22 0.042 0.08 0.061 0.14 0.07 0.18 0.8 0.63 1.651 1.39 2.322 2.26-0.115-1.5-0.544-2.88-1.476-4.65l0.516-0.27c1.15 2.17 1.599 3.78 1.599 5.74h-0.098c0.183 0.32 0.327 0.65 0.44 1l0.158-1.11s0.138-1.11 0.235-1.87c0.023-0.24 0.046-0.48 0.046-0.7 0-2.82-1.905-4.18-3.914-5.61l-0.269-0.19zm-25.426 0.02c-0.126-0.01-0.251-0.01-0.377 0-0.246 0.03-0.45 0.13-0.562 0.27-0.07 0.09-0.103 0.19-0.088 0.3 0.032 0.3 0.271 0.45 0.548 0.62 0.144 0.08 0.304 0.18 0.467 0.31 0.58 0.47 0.929 1.25 1.051 2.3 0.03 0.28 0.024 0.42-0.035 0.5-0.081 0.1-0.319 0.16-0.791 0.22l-5.547 0.63c-0.267 0.03-0.743 0.02-0.936-0.42-0.055-0.12-0.2-0.46-0.546-0.42-0.142 0.01-0.22 0.08-0.262 0.13-0.113 0.14-0.09 0.33-0.076 0.48 0.028 0.23 0.08 0.49 0.138 0.77 0.06 0.31 0.127 0.62 0.162 0.95 0.038 0.3 0.045 0.61 0.057 0.91 0.009 0.31 0.016 0.64 0.055 0.96 0.027 0.24 0.23 0.4 0.472 0.37 0.18-0.02 0.281-0.1 0.333-0.17 0.074-0.09 0.104-0.21 0.087-0.34-0.027-0.26 0.017-0.45 0.129-0.59 0.127-0.16 0.35-0.26 0.657-0.29l5.544-0.64c0.457-0.05 0.812-0.02 1.059 0.29 0.056 0.06 0.1 0.13 0.139 0.19 0.112 0.16 0.238 0.35 0.502 0.31 0.13-0.01 0.206-0.07 0.246-0.12 0.124-0.16 0.099-0.39 0.068-0.65-0.027-0.25-0.081-0.49-0.135-0.73-0.051-0.23-0.104-0.46-0.127-0.68-0.052-0.43-0.099-1.09-0.148-1.74-0.049-0.64-0.098-1.31-0.147-1.75-0.066-0.57-0.388-1.15-0.865-1.53-0.322-0.25-0.694-0.41-1.072-0.44zm35.174 0.74l-1.094 0.79c-1.511 0.97-3.579 2.28-3.953 5.27h-0.002-0.016l-0.197 1.59-0.209 1.45c0.376-0.73 0.891-1.41 1.621-2.05h-0.088c0.135-1.9 0.421-3 2.436-4.89l0.402 0.43c-1.707 1.59-2.065 2.54-2.213 4.04 0.66-0.49 1.432-0.96 2.414-1.39l0.118 0.26c-0.388-1.56 2.346-2.73 1.953-4.68 0-0.62-0.948-0.52-1.172-0.82zm-0.781 5.5l0.119 0.27c-4.315 1.91-4.916 4.29-5.295 7.45l-0.272-0.03c0.663 0.8 1.253 1.68 1.809 2.73-0.038-0.42-0.098-0.87-0.098-1.26 0-0.12 0.013-0.23 0.018-0.35h-0.053c-0.526-2.99 0.475-4.63 2.145-6.15l0.39 0.42c-1.212 1.12-1.981 2.19-2.08 3.83 0.553-1.26 1.745-2.42 4.158-3.68l0.09 0.17c0.326-1.45-0.556-3.02-0.931-3.4zm93.802-4.22c-0.14-0.02-0.23 0.03-0.28 0.07-0.14 0.11-0.17 0.31-0.19 0.51-0.03 0.27-0.04 0.54-0.04 0.8s-0.01 0.51-0.04 0.75c-0.03 0.26-0.09 0.52-0.14 0.77-0.05 0.23-0.1 0.44-0.12 0.64-0.06 0.44-0.12 0.94 0.28 0.98 0.3 0.04 0.5-0.11 0.56-0.39 0-0.01 0.19-0.79 0.96-0.7l5.76 0.67c0.49 0.06 0.77 0.15 0.83 0.49 0.01 0.01 0.01 0.03 0.01 0.05 0.03 0.19 0.09 0.58 0.42 0.62 0.13 0.02 0.23-0.03 0.28-0.08 0.14-0.11 0.16-0.29 0.18-0.44 0.03-0.27 0.04-0.54 0.04-0.79 0-0.26 0.01-0.51 0.04-0.76s0.08-0.49 0.14-0.74c0.05-0.26 0.11-0.52 0.14-0.79 0.04-0.36 0.08-0.67-0.07-0.86-0.05-0.07-0.13-0.11-0.22-0.12-0.29-0.03-0.5 0.11-0.55 0.39-0.11 0.56-0.39 0.76-0.96 0.69l-5.77-0.67c-0.51-0.06-0.76-0.22-0.82-0.55-0.03-0.14-0.09-0.5-0.44-0.54zm-24.71 0.51c-0.07 2.64-1.45 4.74-2.22 5.87 0 0-0.34 0.53-0.34 0.53-0.46 0.82-0.6 1.35-0.6 1.83 0 0.3 0.06 0.58 0.13 0.9 1.03-1.16 2.3-2.67 2.86-4.46l0.56 0.18c-0.6 1.92-1.94 3.5-3.01 4.71 0.29 0.04 0.61 0.08 0.61 0.08 1.16 0.2 1.74 0.29 2.7-0.66l0.22 0.18c0.06-0.13 1.02-2.29 0.77-5.45-0.06-0.72-0.37-2.8-1.68-3.71zm-0.75 0.57c-0.74 0.59-1.17 0.72-2.44 0.85 0.21 2.61 0.18 3.26-0.31 5.41v0.22c0.1-0.28 0.24-0.59 0.43-0.95l0.37-0.55c0.7-1.06 1.71-2.83 1.95-4.98zm-78.499 1.58c-0.39 2.34-0.39 4.69 1.174 6.64l0.149-0.25c0.902 0.54 1.629 1.11 2.293 1.72-0.22-1.3-0.929-2.83-2.166-4.69l0.486-0.32c1.221 1.82 1.932 3.36 2.203 4.7 1.394-3.1-1.249-5.46-3.924-7.43l0.164-0.23c-0.126-0.05-0.252-0.1-0.379-0.14zm1.174 6.64c-0.784 0.39-1.174 1.18-1.174 1.57 1.562 3.12 0.779 6.25 3.125 9.38l0.018-0.3c1.199 0.07 2.229 0.18 3.17 0.61l-3.035-3.4 0.476-0.34 2.969 3.32c0.131-0.51 0.344-1 0.604-1.33-1.343-2.15-4.168-4-6.153-4v-0.59c2.198 0 5.181 1.95 6.639 4.29 0.107-0.01 0.397-0.03 0.691-0.05-0.68-0.66-1.269-1.5-1.742-2.56l-0.127 0.04c-0.021-0.05-0.042-0.09-0.06-0.13l-0.02 0.03c-1.561-0.94-3.582-2.38-4.57-3.62l0.457-0.36c0.793 0.99 2.305 2.12 3.67 3-1.279-2.45-2.666-3.87-5.088-5.31l0.15-0.25zm68.655-6c0.05 0.18 0.1 0.37 0.16 0.53 0.09 0.19 0.11 0.39 0.09 0.61l0.04-0.09c2.38 1.23 3.52 2.78 4.01 4.44 0.11-0.18 0.17-0.37 0.17-0.56 0-0.97-1.31-2.06-2.58-3.12l-1.89-1.81zm0.13 1.64c-0.18 0.57-0.52 1.17-0.75 1.63-0.25 1.01 0.13 2.17 0.24 3.18l0.42-0.17c0.98 2.39 1.86 3.65 2.79 4.99 0 0 0.19 0.27 0.41 0.6l-0.81-2.8c-0.31-1.29-0.62-2.62-1.36-4.11l0.52-0.26c0.77 1.54 1.1 2.91 1.41 4.23l0.66 2.3c0.19-1.14 0.37-2.28 0.37-3.38 0-2.36-0.8-4.56-3.9-6.21zm40.04 0.93c-0.04 0-0.08 0.02-0.12 0.04-0.09 0.06-0.15 0.16-0.18 0.3-0.08 0.33 0.09 0.44 0.16 0.47 1.04 0.53 1.04 0.96 0.77 2.15-0.06 0.24-0.14 0.53-0.27 0.62-0.04 0.02-0.1 0.04-0.25 0.01l-5.84-1.33c-0.64-0.15-0.67-0.58-0.69-1.03-0.01-0.13-0.01-0.25-0.04-0.36v-0.08c0-0.12-0.01-0.41-0.36-0.49-0.12-0.03-0.23-0.02-0.31 0.04-0.14 0.08-0.17 0.24-0.2 0.36-0.08 0.38-0.15 0.77-0.21 1.14-0.06 0.39-0.12 0.78-0.21 1.16-0.08 0.38-0.2 0.76-0.31 1.13s-0.23 0.75-0.31 1.12c-0.03 0.12-0.06 0.28 0.02 0.42 0.06 0.08 0.14 0.14 0.26 0.16 0.36 0.09 0.48-0.17 0.54-0.28 0.01-0.03 0.03-0.05 0.04-0.07 0.06-0.09 0.12-0.2 0.19-0.3 0.22-0.41 0.43-0.78 1.07-0.63l5.83 1.33c0.16 0.04 0.21 0.09 0.23 0.13 0.06 0.09 0.05 0.32-0.03 0.67-0.27 1.19-0.46 1.57-1.61 1.6-0.13 0-0.3 0.05-0.37 0.35-0.02 0.11-0.02 0.25 0.05 0.36 0.04 0.07 0.1 0.12 0.17 0.13 0.1 0.03 0.21 0.04 0.3 0.05l1.31 0.16c0.5 0.07 0.67 0.02 0.77-0.43 0.14-0.63 0.27-1.29 0.38-1.92 0.13-0.64 0.25-1.3 0.4-1.94 0.14-0.63 0.31-1.28 0.48-1.9s0.35-1.27 0.49-1.91c0.08-0.32 0.05-0.54-0.33-0.67l-1.25-0.42c-0.04-0.02-0.09-0.03-0.13-0.05-0.11-0.03-0.22-0.07-0.31-0.09-0.04-0.01-0.09-0.01-0.13 0zm-137.8 1c-0.176 0-0.354 0.03-0.529 0.07-0.69 0.16-1.198 0.5-1.512 1.02-0.425 0.68-0.489 1.67-0.195 2.91 0.085 0.35 0.224 0.82 0.361 1.29 0.129 0.44 0.259 0.85 0.327 1.14 0.075 0.32 0.138 0.71 0.201 1.08 0.05 0.33 0.097 0.64 0.148 0.85 0.046 0.2 0.1 0.32 0.17 0.39 0.094 0.1 0.217 0.14 0.373 0.1 0.131-0.03 0.353-0.14 0.375-0.51 0.008-0.07 0.01-0.15 0.01-0.21 0.019-0.44 0.026-0.67 0.756-0.84l5.566-1.32c0.238-0.06 0.676-0.09 0.961 0.32l0.024 0.03c0.086 0.13 0.265 0.38 0.566 0.31 0.108-0.03 0.192-0.08 0.242-0.16 0.081-0.14 0.057-0.32 0.016-0.48-0.066-0.29-0.164-0.58-0.256-0.85-0.089-0.27-0.18-0.55-0.246-0.82-0.065-0.28-0.108-0.56-0.151-0.84-0.038-0.29-0.082-0.59-0.152-0.88-0.084-0.36-0.156-0.66-0.351-0.78-0.078-0.05-0.168-0.07-0.256-0.04-0.269 0.06-0.41 0.25-0.389 0.54 0.073 0.82-0.1 1.25-0.549 1.36l-6.058 1.44c-0.094 0.03-0.172-0.01-0.223-0.04-0.125-0.08-0.224-0.24-0.272-0.43-0.142-0.6-0.093-1.12 0.147-1.51 0.209-0.34 0.564-0.57 1.053-0.69 0.37-0.08 1.587-0.27 1.892 1.01 0.077 0.32 0.119 0.46 0.17 0.56 0.08 0.15 0.213 0.21 0.379 0.17 0.08-0.02 0.194-0.07 0.277-0.21 0.3-0.48 0.043-1.63 0.038-1.64-0.19-0.8-0.696-1.51-1.383-1.93-0.471-0.29-0.999-0.43-1.53-0.41zm102.97 0.79l-0.34 0.35c0.01 0.07 0.06 0.14 0.06 0.21 0 0.45-0.23 0.87-0.6 1.26 0.28 1.48 0.12 3.04-0.12 4.55 0.54-1.25 1.04-3.25 1-6.37zm-63.991 0.36c-4.024 2.13-4.349 3.87-4.105 6.6l0.269-0.36c0.753-0.92 1.785-2.17 2.281-3.49l0.549 0.2c-0.53 1.41-1.6 2.71-2.379 3.66l-0.615 0.81c0.495 1.2 1.136 2.1 1.885 2.76-0.389-0.74-0.296-1.65-0.076-2.25 0.388-1.08 1.735-1.55 2.472-3.13 0.782-1.69 0.175-3.86-0.281-4.8zm64.501 1.91c-0.17 2.03-0.58 3.47-1.03 4.46 0.67-0.71 1.47-1.36 2.27-1.99 0.65-0.53 1.28-1.07 1.86-1.63-0.52 0.09-1.03 0.06-1.63-0.04l-1.13-0.16-0.22-0.04-0.12-0.6zm4.54 0.13c-0.76 1.03-1.86 1.93-2.94 2.8-1.6 1.28-3.13 2.52-3.59 4.17l-0.02 0.08-0.01-0.01c-0.08 0.31-0.14 0.62-0.14 0.96 0 0.09 0.02 0.19 0.03 0.29 1.76-1.19 3.56-2.58 5.06-4.54l0.47 0.36c-1.41 1.84-3.07 3.18-4.72 4.33 0.26-0.05 0.51-0.11 0.76-0.15 1.19-0.16 2.42-0.33 4.09-1.35l0.22 0.34c0.44-0.8 0.84-1.63 1.11-2.57 0.36-1.45 0.04-3.03-0.32-4.71zm-10.74 0.07c0 0.42-0.06 0.8-0.27 1.13l0.22-0.2c0.38 0.43 0.81 0.9 1.2 1.42-0.38-0.65-0.76-1.42-1.15-2.35zm-0.42 1.41c-0.72 1.42-1.35 2.55-2.2 4.01-0.71 1.22-0.39 3.52 0.78 4.7l0.28-0.1 0.48 2.86s0.05 0.29 0.11 0.63c0.51-1.91 0.51-5.56 0.27-7.8l0.59-0.06c0.26 2.46 0.26 6.89-0.53 8.69 0.34-0.1 0.57-0.2 0.69-0.38-0.02-0.14-0.03-0.27-0.03-0.42v-0.2c0.02-0.37 0.1-0.81 0.25-1.26 0.12-1.31 0.53-2.41 1.14-3.65 0.41-0.86 0.58-1.62 0.58-2.34 0-1.78-1.09-3.21-2.41-4.68zm32.58 1.05c-0.05 0-0.1 0.01-0.15 0.03-0.15 0.07-0.21 0.22-0.26 0.36-0.08 0.21-0.14 0.44-0.19 0.65-0.06 0.22-0.11 0.42-0.18 0.61-0.08 0.2-0.17 0.39-0.28 0.58-0.1 0.2-0.21 0.4-0.29 0.61-0.05 0.15-0.11 0.31-0.04 0.46 0.04 0.09 0.11 0.15 0.22 0.2 0.31 0.12 0.58-0.24 0.83-0.59l0.08-0.11c0.15-0.2 0.22-0.33 0.47-0.31 0.26 0.02 1.04 0.62 1.23 1.05 0.06 0.12 0.07 0.22 0.03 0.31l-0.7 1.85c-0.23 0.59-0.34 0.72-0.48 0.79-0.18 0.08-1.29 0.06-1.57-0.04-0.24-0.1-0.38-0.31-0.34-0.55v0.03c0.09-0.29-0.02-0.56-0.26-0.65-0.09-0.04-0.18-0.03-0.26 0.01-0.08 0.03-0.18 0.1-0.24 0.28-0.12 0.3-0.21 0.62-0.3 0.91-0.08 0.29-0.16 0.56-0.25 0.81-0.1 0.25-0.22 0.51-0.35 0.77-0.14 0.29-0.28 0.58-0.39 0.88-0.06 0.15-0.12 0.3-0.05 0.44 0.04 0.09 0.12 0.16 0.23 0.2 0.32 0.12 0.5-0.12 0.7-0.38l0.05-0.06c0.2-0.27 0.63-0.29 1.05-0.31 0.1 0 0.2-0.01 0.29-0.02l7.71-0.5c0.26-0.03 0.44-0.07 0.49-0.22 0.09-0.23-0.06-0.39-0.33-0.69-0.01 0-5.72-6.12-5.72-6.12-0.13-0.15-0.21-0.26-0.27-0.49-0.01-0.05-0.02-0.12-0.03-0.19-0.02-0.19-0.04-0.47-0.29-0.56-0.06-0.02-0.11-0.04-0.16-0.04zm-30.18 1.26c0.54 1.1 0.78 2.4 0.33 3.94l0.15-0.23 1.01-1.51-0.77-1.15c-0.24-0.35-0.48-0.69-0.72-1.05zm-91.193 0.37c-0.043 0-0.086 0-0.129 0.02-0.276 0.1-0.396 0.32-0.318 0.6 0 0 0.188 0.79-0.547 1.06l-5.453 1.98c-0.462 0.17-0.757 0.21-0.963-0.06-0.004-0.01-0.016-0.03-0.028-0.04-0.11-0.16-0.335-0.48-0.644-0.37-0.136 0.05-0.196 0.13-0.225 0.19-0.075 0.17-0.014 0.34 0.039 0.48 0.092 0.25 0.208 0.5 0.321 0.73 0.115 0.23 0.22 0.46 0.306 0.69 0.085 0.24 0.147 0.48 0.213 0.73 0.06 0.25 0.128 0.51 0.219 0.76 0.066 0.18 0.134 0.37 0.217 0.51 0.175 0.3 0.377 0.28 0.484 0.24 0.275-0.1 0.393-0.32 0.319-0.6-0.154-0.54 0.005-0.85 0.55-1.05l5.451-1.98c0.479-0.18 0.784-0.14 0.985 0.13 0.084 0.1 0.303 0.4 0.631 0.28 0.131-0.05 0.192-0.13 0.222-0.19 0.078-0.17 0.012-0.35-0.058-0.54-0.093-0.26-0.21-0.49-0.323-0.73-0.115-0.24-0.22-0.46-0.306-0.69-0.091-0.25-0.152-0.51-0.215-0.76-0.056-0.22-0.11-0.44-0.176-0.62-0.125-0.35-0.234-0.64-0.443-0.74-0.042-0.02-0.086-0.03-0.129-0.03zm92.873 2.6l-0.7 1.05-1.3 2.02-0.17-0.12c-0.11 0.26-0.19 0.51-0.28 0.76 0.2-0.24 0.4-0.48 0.67-0.71 0.58-0.49 1.12-0.74 1.65-0.94-0.04-0.28-0.07-0.56-0.07-0.82 0-0.44 0.08-0.85 0.2-1.24zm30.9 0.29l1.63 1.7-2.36 0.22 0.73-1.92zm-24.77 0.54c-1.77 1.18-3.28 1.62-5.39 1.54-0.69 0.18-1.38 0.44-2.14 1.08-0.79 0.67-1.19 1.39-1.42 2.05-0.01 0.22-0.04 0.43-0.04 0.66 0 0.31-0.01 0.55-0.04 0.77 1.3-0.67 3.02-1.84 4.51-3.08l0.38 0.45c-1.38 1.15-3.42 2.59-4.97 3.34 0.1 0.51 0.28 0.9 0.43 1.05l-0.21 0.21c2.54-0.2 4.89-0.79 6.25-3.52 0.88-1.77 1.83-3.13 2.64-4.55zm-13.58 1.03c-1.17 1.57-2.34 3.13-3.51 4.69-0.79 1.56-0.01 3.51-0.4 5.46h0.3s0.08 0.87 0.12 1.19c1.28-1.57 1.61-3.01 1.92-4.52l0.51-2.09 0.56 0.18-0.49 2.03c-0.34 1.66-0.68 3.23-2.23 5.01 2-1.14 4.62-3.1 4.62-7.45 0-0.54-0.04-1.11-0.13-1.72l0.3-0.04c-0.4-0.79-0.79-1.96-1.57-2.74zm-56.364 0.3l-1.497 0.12c-0.357 0.34-0.736 1.58-0.642 1.98 0.622 0.45 1.217 1.08 1.807 2 0.188-0.01 0.675-0.03 0.675-0.03 0.284-0.01 0.513 0 0.733 0.04-0.709-0.67-1.355-1.43-2.045-2.41l0.478-0.34c0.84 1.2 1.574 2.09 2.491 2.83 0.048-0.12 0.077-0.19 0.097-0.23-0.121-0.14-0.234-0.27-0.258-0.33-0.05-0.79-0.371-1.15-0.779-1.61-0.411-0.46-0.857-1.01-1.06-2.02zm-29.323 0.81c-0.102 0-0.187 0.02-0.248 0.05-0.112 0.06-0.179 0.13-0.211 0.22-0.018 0.05-0.028 0.14 0.024 0.26 0.112 0.22 0.388 0.3 0.607 0.37 0.045 0.01 0.086 0.02 0.123 0.04 0.989 0.33 1.817 1.02 2.225 1.84 0.271 0.55 0.3 1.18 0.08 1.84-0.32 0.94-1.108 1.8-2.119 2.3-1.215 0.59-2.22 0.77-2.983 0.51-0.575-0.19-1.02-0.62-1.361-1.31-0.481-0.98-0.267-2.21 0.596-3.49 0.007-0.01 0.017-0.02 0.027-0.04 0.113-0.15 0.304-0.42 0.191-0.64-0.041-0.09-0.11-0.15-0.199-0.18-0.124-0.04-0.283-0.02-0.427 0.05-0.094 0.05-0.197 0.12-0.323 0.21-0.082 0.06-0.172 0.12-0.256 0.18 0 0-1.487 0.95-1.504 0.96-0.145 0.12-0.187 0.29-0.107 0.46 0.135 0.26 0.355 0.28 0.486 0.28 0.108 0.01 0.109 0.01 0.127 0.05 0.033 0.07 0.053 0.3 0.075 0.52 0.056 0.58 0.138 1.45 0.576 2.33 0.561 1.14 1.444 2 2.48 2.43 1.25 0.51 2.709 0.39 4.225-0.36 1.086-0.54 1.862-1.41 2.234-2.51 0.398-1.18 0.3-2.51-0.265-3.66-0.795-1.61-2.121-2.26-2.838-2.5-0.462-0.16-0.928-0.24-1.235-0.21zm23.182 0.75c-0.084 0.39-0.654 0.89-0.449 1.27 0.912 1.69 1.892 2.86 3.515 3.51 1.953 0.79 1.824-1.43 3.518 0 0.089 0.08 0.126 0.15 0.133 0.22 0.743-0.11 1.378-0.15 1.933-0.11l-0.347-0.4s-1.12-0.46-1.082-0.45c-2.8-0.14-4.058-0.95-5.286-2.31l0.438-0.4c1.149 1.28 2.265 2 4.912 2.13l1.484 0.67 0.495 0.58-0.231 0.23c0.26 0.04 0.513 0.08 0.744 0.15-0.051-0.4-0.088-0.78-0.121-1.13l-0.947-1.07s-0.026-0.03-0.031-0.04l-0.434 1.01-0.305-0.3c-0.513-0.51-0.685-0.5-1.425-0.46l-1.002 0.03-0.09-0.14c-1.585-2.56-3.113-2.85-5.422-2.99zm64.315 0.61c-0.03 0.1-0.06 0.19-0.09 0.25l0.13-0.02-0.04-0.23zm0.05 0.25c0.09 0.64 0.13 1.25 0.13 1.82 0 1.89-0.48 3.34-1.18 4.51 1.06-0.7 1.93-1.45 2.56-2.68-0.13 0.04-0.27 0.08-0.42 0.12l-0.44 0.19-0.38-2.33-0.27-1.63zm29.85 1.62c-0.05-0.01-0.1-0.01-0.15 0.01-0.15 0.04-0.23 0.18-0.29 0.29-0.19 0.34-0.36 0.69-0.53 1.04-0.16 0.35-0.33 0.71-0.52 1.05s-0.4 0.67-0.61 1c-0.21 0.32-0.43 0.66-0.61 0.99-0.06 0.11-0.14 0.25-0.09 0.4 0.02 0.1 0.09 0.18 0.19 0.24 0.32 0.17 0.52-0.03 0.6-0.12 0.02-0.03 0.04-0.05 0.06-0.06 0.09-0.07 0.17-0.15 0.27-0.24 0.32-0.32 0.62-0.62 1.2-0.3l5.23 2.9c0.14 0.08 0.17 0.14 0.18 0.18 0.03 0.11-0.03 0.32-0.21 0.64-0.6 1.07-0.88 1.39-2 1.09-0.12-0.04-0.3-0.04-0.45 0.24-0.05 0.09-0.09 0.23-0.06 0.36 0.03 0.08 0.08 0.14 0.14 0.17 0.09 0.05 0.19 0.09 0.27 0.12l1.21 0.53c0.46 0.2 0.64 0.2 0.87-0.2 0.31-0.57 0.61-1.16 0.9-1.73 0.29-0.59 0.6-1.19 0.92-1.76 0.31-0.57 0.66-1.14 0.99-1.69 0.34-0.55 0.68-1.12 1.01-1.7 0.16-0.28 0.19-0.51-0.13-0.74l-1.09-0.75c-0.04-0.02-0.08-0.05-0.12-0.08-0.09-0.06-0.18-0.13-0.26-0.17-0.08-0.05-0.17-0.06-0.25-0.03-0.11 0.02-0.19 0.1-0.27 0.23-0.16 0.3-0.02 0.45 0.03 0.49 0.85 0.81 0.73 1.22 0.14 2.29-0.12 0.21-0.28 0.47-0.43 0.51-0.04 0.01-0.12 0.03-0.25-0.05l-5.22-2.91c-0.58-0.32-0.49-0.74-0.39-1.18 0.03-0.13 0.06-0.25 0.07-0.35 0-0.03 0.01-0.05 0.02-0.09 0.02-0.11 0.1-0.39-0.22-0.57-0.05-0.03-0.1-0.04-0.15-0.05zm-37.18 1.13c-1.95 2.35-3.9 4.69-3.51 7.81h0.29c0 1.18-0.06 1.84-0.22 2.44 0.94-1.24 1.21-2.31 1.46-3.44l0.67-2.24 0.54 0.24-0.63 2.13c-0.24 1.05-0.52 2.15-1.37 3.38 0.17-0.09 0.34-0.19 0.5-0.27 0.19-0.29 0.35-0.51 0.38-0.54 0.46-0.25 0.91-0.41 1.34-0.54 1.22-0.93 1.83-2 1.83-3.78 0-0.16 0-0.32-0.01-0.48v-0.02l0.29-0.01c-1.17-1.17-1.56-2.99-1.56-4.68zm8.42 0.3c0 0.03 0.01 0.07 0.01 0.09 0.04-0.02 0.06-0.02 0.1-0.03l-0.11-0.06zm1.07 0.62c-0.85 1.84-2.15 2.7-3.67 3.65l-0.54 0.34c-0.05 0.06-0.11 0.1-0.16 0.15 0.72-0.25 1.44-0.46 2.14-0.66l2.77-0.95 0.26 0.53-2.88 0.99c-1.89 0.53-3.97 1.16-5.6 2.85 0.84-0.33 1.92-0.61 3.08-0.9l3.83-1.19 0.27 0.52-3.96 1.24c-1.39 0.34-2.78 0.71-3.57 1.13 0.02 0 0.03 0 0.04 0.01 0.89-0.05 1.74 0.01 2.58 0.11 0.57 0.06 1.16 0.1 1.75 0.12 0.42-0.03 0.85-0.03 1.26-0.07l0.96-0.09 0.04 0.23c2.22-1.46 4.01-3.93 3.63-5.8-0.39-0.39-1.17 1.17-1.95 0 0.61-0.3 0.18-1.05 0.21-1.39l-0.03 0.03c-0.17-0.17-0.33-0.46-0.46-0.85zm-59.955 0.68c-0.377 0.25-1.404 0.36-1.941 0.36-0.391 0-0.391 0.78-0.391 1.17 1.173 1.95 3.128 1.95 5.082 2.74l-0.072-0.29c0.84-0.2 1.512-0.3 2.125-0.31-1.201-0.62-2.678-1.15-4.471-1.6l0.143-0.56c2.452 0.61 4.334 1.37 5.756 2.32l-0.006 0.01c0.264 0.07 0.534 0.17 0.812 0.3-0.308-0.46-0.476-0.93-0.576-1.42l-0.101 0.11c-2.259-2.14-3.103-2.94-6.303-2.45l-0.057-0.38zm-24.094 2.54c-0.611 0-1.22 0.17-1.71 0.5-1.77 1.19-1.321 2.86-0.961 4.21 0.311 1.16 0.464 1.89-0.186 2.33-0.199 0.13-0.421 0.17-0.658 0.13-0.326-0.07-0.645-0.3-0.871-0.64-0.496-0.74-0.426-2.02 0.154-2.74l0.037-0.05c0.194-0.24 0.397-0.5 0.194-0.8-0.092-0.14-0.202-0.18-0.28-0.2-0.082-0.01-0.214-0.01-0.367 0.09-0.042 0.03-0.117 0.09-0.277 0.23-0.332 0.3-0.883 0.79-1.326 1.07-0.089 0.05-0.194 0.14-0.221 0.27-0.019 0.1 0.008 0.2 0.078 0.3 0.052 0.08 0.151 0.14 0.264 0.22 0.065 0.03 0.165 0.1 0.189 0.13 0.07 0.11 0.116 0.31 0.17 0.53 0.099 0.41 0.231 0.97 0.627 1.56 0.861 1.28 2.573 1.65 3.82 0.81 1.764-1.18 1.334-2.88 0.983-4.25-0.295-1.15-0.439-1.88 0.174-2.29 0.325-0.22 0.677-0.28 1.023-0.19 0.327 0.09 0.636 0.33 0.859 0.67 0.655 0.97 0.356 2.2-0.14 3.03-0.019 0.03-0.048 0.07-0.075 0.11-0.123 0.17-0.331 0.46-0.14 0.74 0.192 0.29 0.432 0.27 0.58 0.18 0.089-0.06 0.173-0.16 0.248-0.25 0.029-0.04 0.056-0.06 0.08-0.09 0.003 0 1.241-1.37 1.244-1.38 0.188-0.22 0.075-0.47 0.016-0.6-0.006-0.02-0.017-0.03-0.02-0.05-0.092-0.22-0.174-0.45-0.258-0.67-0.182-0.51-0.375-1.04-0.707-1.53-0.477-0.71-1.145-1.17-1.935-1.33-0.2-0.04-0.404-0.05-0.608-0.05zm107.58 1.39c-0.18 0.03-0.3 0.19-0.42 0.35-0.16 0.22-0.3 0.45-0.43 0.67-0.14 0.22-0.27 0.44-0.41 0.64-0.16 0.21-0.34 0.4-0.52 0.59-0.15 0.17-0.3 0.33-0.42 0.49-0.27 0.36-0.56 0.76-0.24 1 0.23 0.18 0.49 0.15 0.67-0.06 0.01-0.01 0.56-0.6 1.19-0.13l4.66 3.46c0.39 0.3 0.59 0.52 0.47 0.84 0 0.01-0.01 0.03-0.02 0.05-0.07 0.17-0.21 0.54 0.05 0.74 0.11 0.09 0.22 0.09 0.29 0.08 0.17-0.03 0.28-0.18 0.37-0.3 0.16-0.21 0.3-0.44 0.43-0.66 0.14-0.23 0.27-0.44 0.41-0.64 0.15-0.2 0.32-0.38 0.49-0.57 0.18-0.19 0.36-0.39 0.52-0.61 0.22-0.29 0.4-0.55 0.37-0.78-0.01-0.08-0.06-0.16-0.13-0.22-0.24-0.17-0.49-0.15-0.68 0.07-0.36 0.43-0.71 0.46-1.17 0.12l-4.66-3.47c-0.41-0.3-0.54-0.58-0.43-0.89 0.04-0.13 0.17-0.48-0.11-0.69-0.11-0.08-0.21-0.08-0.28-0.08zm-78.317 0.3c-0.666-0.03-1.385 0.09-2.353 0.32l-0.008-0.04c-0.099 0.33-0.76 0.7-0.451 1.32 1.173 1.95 3.517 1.95 5.47 2.73l-0.031-0.29c0.608-0.06 1.211-0.07 1.813-0.06-0.087-0.12-0.157-0.26-0.221-0.39l-3.631-1.49-1.023-0.36 0.201-0.55 1.017 0.36 3.2 1.32c-0.075-0.36-0.132-0.75-0.178-1.29-1.73-1.07-2.694-1.53-3.805-1.58zm2.658 4.33c-1.465 0.49-2.343 2.35-1.173 2.74 1.56 0.78 3.515 1.17 5.078 1.56-1.165 0.78-0.093 1.96 0.783 1.96h1.566c1.169 0.38 2.733-0.79 3.905 0-0.65 0.65-1.389 1.11-2.18 1.46 1.82-0.4 3.09-1.03 3.78-1.9-0.16-0.24-0.25-0.48-0.29-0.73-1.38-0.64-2.564-0.46-4.056-0.22l-0.729 0.11-0.082-0.58 0.721-0.11c1.445-0.23 2.706-0.4 4.146 0.19 0.03-0.17 0.07-0.33 0.15-0.49l-0.03-0.01s0.06-0.14 0.17-0.35l-0.29 0.16c-0.07-0.11-0.09-0.22-0.15-0.33l-0.03 0.04c-2.126-1.5-5.674-0.4-7.181 1.02l-0.201-0.22h-0.002l-0.2-0.21c0.473-0.44 1.113-0.85 1.838-1.17-1.395-0.66-2.787-0.91-4.613-0.8l-0.035-0.59c2.015-0.11 3.538 0.17 5.096 0.95l-0.164 0.33c0.823-0.34 1.735-0.57 2.65-0.61-2.07-1.49-5.266-2.23-8.447-1.91l-0.03-0.29zm31.699-4.05c-0.35 0-0.74 0.07-1.17 0.14-0.48 0.08-0.9 0.26-1.29 0.47 0.2-0.04 0.38-0.04 0.53-0.03 0.79 0.08 1.56 0.59 1.74 1.13l2.2 4.54c0.14-0.63 0.01-1.41-0.13-2.24-0.19-1.02-0.37-2.17-0.08-3.26-0.08 0.06-0.14 0.12-0.23 0.18-0.49-0.73-0.99-0.93-1.57-0.93zm-28.802 0.64l-1.268 0.59c0.232 1.47 0.369 1.93 0.92 2.49h-0.006c0.869 0.06 1.71 0.19 2.514 0.4-0.93-0.83-1.755-1.96-2.16-3.48zm13.552 0.53c-0.65 0.06-1.17 0.48-1.27 0.8l-2.46 5.06c0.71-0.32 1.56-0.31 2.2 0.26 1.08 1.04 3.12 2.82 5.13 3.83 0.06-1.01 0.16-2.42 0.25-3.62 0.04-0.67 0.09-1.25 0.12-1.6 0.01-0.15 0.02-0.28 0.04-0.39-0.05-0.05-0.82-1.03-0.82-1.03s-1.67-2.44-1.66-2.43c-0.47-0.81-1.09-0.93-1.53-0.88zm13.26 0c-0.44-0.05-1.07 0.07-1.52 0.86l-1.67 2.46s-0.65 0.81-0.75 0.85c0.04 0.04 0.09 0.08 0.12 0.12l0.11 4c0.04 0.68 0.08 1.28 0.11 1.67 2.01-1.01 4.05-2.8 5.13-3.85 0.63-0.57 1.5-0.57 2.2-0.25-0.89-1.84-2.46-5.07-2.47-5.1-0.09-0.27-0.62-0.7-1.26-0.76zm-89.714 1.04l-1.223 3.78h-4.037l3.289 2.45-1.279 3.88 3.25-2.39 3.248 2.39-1.264-3.88 3.258-2.45h-4.049l-1.193-3.78zm166.1 0l-1.23 3.78h-4.03l3.29 2.45-1.28 3.88 3.25-2.39 3.24 2.39-1.26-3.88 3.26-2.45h-4.05l-1.19-3.78zm-133.61 0.38c-0.092-0.01-0.176 0.01-0.246 0.07-0.228 0.18-0.267 0.44-0.11 0.66 0.008 0.01 0.443 0.7-0.16 1.19l-4.504 3.67c-0.384 0.31-0.641 0.44-0.928 0.25-0.011-0.01-0.025-0.02-0.042-0.03-0.153-0.11-0.475-0.34-0.731-0.13-0.107 0.09-0.139 0.19-0.145 0.26-0.018 0.17 0.098 0.32 0.194 0.43 0.169 0.21 0.356 0.4 0.539 0.59 0.185 0.18 0.359 0.36 0.519 0.55 0.154 0.19 0.292 0.4 0.436 0.61 0.142 0.22 0.289 0.44 0.459 0.65 0.279 0.35 0.597 0.73 0.906 0.48 0.229-0.19 0.271-0.43 0.108-0.67-0.328-0.46-0.275-0.8 0.173-1.17l4.497-3.67c0.4-0.33 0.7-0.38 0.974-0.2 0.115 0.08 0.42 0.28 0.692 0.06 0.107-0.09 0.139-0.19 0.144-0.25 0.021-0.18-0.103-0.33-0.234-0.49-0.169-0.21-0.354-0.4-0.541-0.59-0.183-0.18-0.356-0.36-0.516-0.55-0.167-0.2-0.312-0.43-0.453-0.64-0.126-0.2-0.248-0.38-0.369-0.53-0.231-0.29-0.431-0.53-0.662-0.55zm71.592 0.5c-0.59 0.03-1.19 0.11-1.8 0.29-0.45 0.34-0.94 0.67-1.51 1l-1 1.53c1.26-0.64 2.68-0.8 4.06-0.93l2.27-0.3 0.12 0.57-2.33 0.31c-1.52 0.15-2.96 0.33-4.19 1.08 0.14 0.03 0.29 0.05 0.43 0.08l2.88 0.36 0.01 0.14c0.36-0.01 0.72-0.05 1.13-0.13l0.1 0.53c1.18-0.4 2.34-0.86 3.47-1.61 1.1-0.73 1.94-1.7 2.58-2.78-0.63 0.1-1.24 0.13-1.83 0.11-1.39 0.11-2.85 0.06-4.39-0.25zm28.69 1.65c-0.17-0.02-0.33 0.08-0.42 0.15-0.01 0.01-0.02 0.01-0.03 0.02-0.21 0.14-0.42 0.26-0.62 0.38-0.47 0.27-0.95 0.55-1.38 0.97-0.61 0.59-0.95 1.33-0.96 2.14s0.31 1.64 0.86 2.2c1.48 1.53 3.05 0.79 4.3 0.19 1.09-0.51 1.78-0.79 2.33-0.23 0.16 0.17 0.25 0.38 0.25 0.63-0.01 0.33-0.19 0.68-0.48 0.97-0.63 0.62-1.91 0.77-2.72 0.34l-0.05-0.03c-0.28-0.15-0.57-0.3-0.83-0.05-0.11 0.11-0.14 0.23-0.14 0.31 0 0.09 0.02 0.21 0.15 0.35 0.04 0.03 0.12 0.09 0.28 0.22 0.35 0.28 0.93 0.74 1.28 1.12 0.06 0.07 0.16 0.15 0.27 0.16 0.11 0.02 0.22-0.02 0.33-0.12 0.07-0.07 0.11-0.18 0.16-0.3 0.03-0.07 0.08-0.18 0.1-0.21 0.09-0.09 0.28-0.17 0.49-0.26 0.39-0.17 0.91-0.4 1.42-0.9 0.55-0.53 0.86-1.23 0.87-1.98 0.01-0.71-0.26-1.41-0.76-1.92-1.48-1.52-3.07-0.8-4.35-0.21-1.08 0.49-1.77 0.77-2.28 0.24-0.25-0.26-0.38-0.56-0.37-0.89 0-0.37 0.18-0.74 0.5-1.05 0.84-0.82 2.1-0.75 3-0.4 0.04 0.01 0.08 0.03 0.12 0.05 0.2 0.09 0.52 0.24 0.76 0.01 0.12-0.11 0.17-0.23 0.18-0.35 0-0.09-0.04-0.18-0.11-0.26-0.08-0.07-0.19-0.14-0.29-0.2-0.03-0.02-0.07-0.04-0.1-0.06 0 0-1.58-0.97-1.58-0.98-0.06-0.03-0.12-0.05-0.18-0.05zm-49.38 0.21c-1.03-0.05-2.03 0.19-2.39 0.42l-0.38 6.05h0.01l-0.07 0.86c0.21 0.14 0.52 0.25 0.86 0.34 1.09-0.15 2.24-0.16 3.27-0.01 0.31-0.08 0.59-0.18 0.81-0.3-0.01-0.27-0.05-1.47-0.08-2.78-0.08-1.45-0.18-3.25-0.2-4-0.39-0.32-1.04-0.54-1.83-0.58zm15.94 0.57c-0.63 0.29-1.49 0.44-2.35 0.56l-1.06 0.21c0.99-0.03 1.95 0.05 2.85 0.19l0.38-0.68s0.07-0.12 0.18-0.28zm-5.01 0.62c-0.01 0.03-0.01 0.05-0.01 0.07 0.01 0 0.04-0.02 0.05-0.03l-0.04-0.04zm0.95 0.15c-0.02 0.01-0.03 0.02-0.05 0.03h0.06l-0.01-0.03zm0.65 0.53c-0.34 0.01-0.68 0.04-1.03 0.09 1.51 0.85 2.07 0.89 2.99 0.87l1.26 0.02-0.03 0.58-1.22-0.01c-0.94 0.01-1.57-0.03-3.03-0.82 0.87 0.81 2.1 1.13 3.71 1.29l-0.04 0.36c0.49 0.05 0.96 0.07 1.38-0.07 1.43-0.61 2.82-0.99 4.18-1.45-1.79 0.32-2.95 0.02-4.81-0.49l-0.39-0.11c-0.96-0.18-1.95-0.3-2.97-0.26zm-3.5 0.58c-0.28 0.02-0.55 0.11-0.78 0.31-1.13 1.1-3.34 3.03-5.49 4.05 0.01 0.11 0.01 0.19 0.03 0.36 0.81-0.12 1.6-0.25 2.35-0.38l0.08-0.11c0.04 0.02 0.08 0.06 0.11 0.08 2.42-0.44 4.39-1.01 5.1-1.98 0.25-0.32 0.35-0.61 0.35-0.86 0-0.49-0.32-0.84-0.46-0.97-0.34-0.32-0.83-0.53-1.29-0.5zm-18.68 0c-0.46-0.02-0.95 0.18-1.29 0.5-0.14 0.13-0.45 0.48-0.45 0.96 0 0.26 0.09 0.56 0.35 0.88 0.7 0.96 2.67 1.53 5.08 1.97 0.04-0.02 0.08-0.06 0.11-0.08l0.08 0.11c0.76 0.13 1.55 0.26 2.36 0.38 0.01-0.11 0.01-0.23 0.02-0.37-2.14-1.02-4.35-2.94-5.48-4.03-0.23-0.2-0.5-0.3-0.78-0.32zm-38.742 0.46c-1.233 0-2.391 0.51-3.334 1.47-0.908 0.91-1.363 1.9-1.358 2.94 0.006 1.31 0.742 2.7 2.182 4.13 0.231 0.22 0.479 0.43 0.722 0.63 0.235 0.2 0.477 0.41 0.7 0.62 0.217 0.22 0.423 0.46 0.623 0.7 0.206 0.24 0.416 0.48 0.65 0.71 0.109 0.11 0.24 0.23 0.381 0.27 0.111 0.03 0.279 0.04 0.453-0.14 0.21-0.21 0.093-0.42-0.086-0.74 0 0-0.097-0.17-0.1-0.17-0.171-0.29-0.253-0.44 0.604-1.3l3.473-3.51c0.376-0.38 0.802-0.74 1.125-0.59l0.056 0.03c0.215 0.1 0.511 0.24 0.731 0.02 0.061-0.06 0.094-0.13 0.094-0.22 0-0.17-0.13-0.29-0.278-0.44-0.145-0.14-0.313-0.27-0.474-0.39-0.159-0.12-0.311-0.24-0.432-0.36-0.108-0.1-0.254-0.27-0.432-0.47-0.335-0.37-0.785-0.88-1.392-1.48-1.107-1.1-2.529-1.72-3.908-1.71zm59.582 0.27c0.26 0.56 0.19 1.19-0.18 1.75 0.11 0.14 0.27 0.26 0.41 0.38-0.3-0.38 0.42-0.75 0.8-1.13 0.27-0.06 0.53-0.06 0.8-0.07-0.66-0.19-1.29-0.48-1.83-0.93zm-58.155 1.4c0.571 0.01 1.123 0.2 1.578 0.66 0.363 0.36 0.608 0.66 0.608 0.93 0 0.22-0.141 0.46-0.447 0.77l-3.78 3.82c-0.244 0.24-0.428 0.35-0.603 0.35-0.164 0-0.353-0.1-0.575-0.32-0.571-0.57-0.862-1.24-0.865-1.98-0.01-0.99 0.513-2.12 1.397-3.01 0.726-0.73 1.735-1.24 2.687-1.22zm57.635 0.79c-0.46 0.48-1.14 0.86-2.01 1.17l0.05 0.03 2.85 1.54-0.01 0.02c0.72 0.08 1.26 0.96 1.26 2.1 0 1.2-0.59 2.13-1.35 2.13-0.31 0-0.58-0.18-0.81-0.45l-0.02 0.01c-0.6-0.71-3.39-3.04-5.44-4.54-0.43 0.08-0.88 0.15-1.33 0.22 2.47 3.2 6.41 7.05 12.89 6.62-1.12-1-2.13-2.16-2.64-3.2l-0.15-0.29 0.3-0.12c1.96-0.75 3.01-1.47 3.68-2.8-3.71-0.24-6.09-1.05-7.27-2.44zm-21.96 0c-1.18 1.39-3.564 2.19-7.267 2.44 0.669 1.33 1.721 2.05 3.676 2.8l0.299 0.12-0.144 0.29c-0.52 1.04-1.525 2.2-2.641 3.2 4.067 0.27 7.127-1.16 9.467-3.05 0.53-0.49 1.08-1.01 1.65-1.5 0.67-0.68 1.25-1.39 1.78-2.07-0.46-0.07-0.91-0.14-1.34-0.22-2.05 1.5-4.84 3.83-5.44 4.54l-0.02-0.02c-0.23 0.27-0.5 0.46-0.81 0.46-0.76 0-1.36-0.93-1.36-2.13 0-1.14 0.55-2.02 1.26-2.1l-0.01-0.02 2.87-1.55 0.04-0.02c-0.88-0.31-1.56-0.69-2.01-1.17zm2.74 1.4l-0.45 0.29-2.45 1.31c0.43 0.36 0.72 1.04 0.72 1.86 0 0.15-0.04 0.28-0.05 0.42 1.05-0.95 2.72-2.32 4.18-3.42-0.7-0.13-1.36-0.28-1.95-0.46zm16.48 0c-0.59 0.18-1.25 0.33-1.95 0.46 1.45 1.1 3.13 2.47 4.18 3.42-0.01-0.14-0.05-0.27-0.05-0.42 0-0.82 0.29-1.5 0.71-1.86l-2.43-1.3-0.46-0.3zm-20.02 1.91c-0.36 0-0.76 0.64-0.76 1.55s0.4 1.55 0.76 1.55c0.37 0 0.77-0.64 0.77-1.55 0-0.89-0.4-1.55-0.77-1.55zm23.55 0c-0.36 0-0.76 0.66-0.76 1.55 0 0.91 0.4 1.55 0.76 1.55s0.77-0.64 0.77-1.55-0.41-1.55-0.77-1.55zm44.85 15.91c-0.27-0.05-0.48 0.11-0.61 0.2-0.29 0.21-0.56 0.46-0.82 0.69-0.25 0.23-0.49 0.45-0.75 0.64s-0.54 0.34-0.84 0.52c-0.3 0.16-0.61 0.34-0.91 0.55-0.26 0.19-0.56 0.41-0.61 0.74-0.03 0.17 0.01 0.34 0.12 0.49 0.38 0.52 1.11 0.21 1.64-0.02 0.79-0.34 1.34 0.17 2.19 1.35l2.52 3.49s-10.92-1.92-10.91-1.92c-0.42-0.09-0.69 0.03-1.06 0.3-0.25 0.18-0.48 0.37-0.71 0.56-0.22 0.19-0.44 0.37-0.67 0.53-0.22 0.16-0.46 0.31-0.71 0.47s-0.51 0.32-0.76 0.5c-0.09 0.06-0.24 0.18-0.28 0.4-0.03 0.23 0.08 0.42 0.17 0.54 0.3 0.42 0.72 0.34 1.2 0.24 0.1-0.02 0.21-0.04 0.33-0.06 0.57-0.1 1.31 0.44 1.71 1.01l4.32 5.96c0.56 0.78 0.6 1.26 0.17 2.15l-0.03 0.07c-0.14 0.29-0.34 0.67-0.03 1.1 0.23 0.32 0.5 0.33 0.65 0.3 0.18-0.02 0.31-0.13 0.41-0.2 0.29-0.21 0.56-0.46 0.82-0.69s0.5-0.45 0.75-0.63c0.26-0.2 0.54-0.35 0.84-0.52 0.31-0.17 0.62-0.35 0.92-0.57 0.25-0.18 0.6-0.42 0.66-0.8 0.02-0.19-0.02-0.37-0.14-0.54-0.35-0.47-0.89-0.21-1.26-0.03-0.13 0.06-0.26 0.12-0.38 0.16-0.69 0.23-1.23 0.01-1.75-0.71l-4.04-5.58s12.4 2.15 12.41 2.15c1.06 0.17 1.57 0.21 1.85 0.01 0.17-0.12 0.22-0.28 0.24-0.39 0.05-0.32-0.14-0.66-0.55-1.22l-5.52-7.63c-0.57-0.79-0.61-1.27-0.18-2.14l0.03-0.06c0.14-0.29 0.34-0.69 0.02-1.11-0.12-0.17-0.27-0.28-0.45-0.3zm-105.96 4.55c-0.272-0.04-0.569 0.12-0.969 0.34 0 0.01-11.078 6.17-11.078 6.17-0.248 0.13-0.438 0.2-0.779 0.2-0.07 0.01-0.164-0.01-0.266-0.02-0.304-0.04-0.769-0.11-1.035 0.27-0.118 0.17-0.159 0.34-0.131 0.51 0.051 0.29 0.286 0.45 0.469 0.58 0.29 0.2 0.602 0.37 0.902 0.53 0.29 0.16 0.565 0.3 0.822 0.48 0.253 0.18 0.486 0.38 0.735 0.61 0.256 0.22 0.518 0.46 0.808 0.66 0.224 0.16 0.754 0.52 1.156-0.06 0.332-0.46-0.127-1.01-0.572-1.55l-0.129-0.16c-0.201-0.24-0.357-0.23-0.263-0.7 0.098-0.46 0.673-0.74 1.183-1.05 0.5-0.31 0.927-0.4 1.137-0.26l2.453 1.71c0.749 0.53 0.913 0.73 0.945 0.93 0.043 0.29-0.373 1.87-0.621 2.23-0.163 0.23-0.472 0.4-0.795 0.26l0.041 0.02c-0.435-0.26-0.934-0.18-1.181 0.18-0.089 0.13-0.123 0.29-0.094 0.44 0.023 0.15 0.108 0.35 0.363 0.53 0.408 0.28 0.833 0.53 1.244 0.77 0.393 0.22 0.759 0.44 1.09 0.66 0.333 0.24 0.66 0.51 1.006 0.8 0.365 0.3 0.744 0.62 1.151 0.9 0.22 0.15 0.735 0.51 1.136-0.06 0.331-0.48 0.002-0.88-0.31-1.28l-0.078-0.09c-0.284-0.36-0.169-0.96-0.038-1.59 0.029-0.14 0.055-0.29 0.079-0.44 0 0 2.067-11.51 2.072-11.52 0.06-0.42 0.05-0.73-0.188-0.9-0.087-0.06-0.175-0.09-0.265-0.1zm-3.522 3.63l-0.625 3.36-2.363-1.69 2.988-1.67zm7.996 0.02c-0.199 0.04-0.367 0.18-0.523 0.42l-1.08 1.69c-0.038 0.05-0.074 0.12-0.115 0.18-0.094 0.14-0.193 0.29-0.258 0.42-0.07 0.14-0.089 0.3-0.043 0.45 0.061 0.18 0.201 0.33 0.416 0.44 0.542 0.27 0.813-0.01 0.865-0.08 1.164-1.33 1.763-1.12 3.334-0.32 0.169 0.09 0.683 0.35 0.758 0.57 0.009 0.03 0.034 0.12-0.065 0.31l-4.125 8.07c-0.391 0.78-0.893 0.74-1.67 0.59-0.191-0.04-0.373-0.07-0.546-0.08-0.019 0-0.066-0.01-0.104-0.02-0.187-0.05-0.678-0.16-0.963 0.4-0.094 0.19-0.117 0.36-0.06 0.54 0.088 0.27 0.332 0.39 0.506 0.48 0.523 0.26 1.073 0.5 1.607 0.73 0.532 0.23 1.091 0.47 1.613 0.74 0.524 0.27 1.038 0.58 1.543 0.88 0.496 0.29 1.017 0.6 1.535 0.87 0.505 0.26 0.869 0.18 1.084-0.24 0.285-0.56-0.093-0.89-0.238-1.01-0.027-0.03-0.066-0.06-0.08-0.08-0.108-0.13-0.243-0.26-0.383-0.4-0.576-0.53-0.898-0.92-0.506-1.69l4.125-8.07c0.135-0.26 0.215-0.42 1.117 0.04 1.572 0.8 2.095 1.16 1.711 2.85-0.06 0.19-0.077 0.53 0.428 0.79 0.326 0.16 0.755 0.14 0.924-0.19 0.075-0.14 0.135-0.31 0.178-0.43 0 0 0.734-1.86 0.73-1.86 0.285-0.71 0.298-1.07-0.394-1.42-0.874-0.44-1.789-0.87-2.678-1.28s-1.816-0.83-2.699-1.29c-0.884-0.45-1.758-0.94-2.604-1.42-0.851-0.48-1.735-0.97-2.629-1.43-0.28-0.14-0.511-0.19-0.711-0.15zm86.308 1.63c-0.21 0.01-0.4 0.11-0.56 0.2-0.36 0.19-0.71 0.41-1.04 0.63-0.32 0.22-0.63 0.42-0.96 0.59-0.33 0.18-0.68 0.32-1.04 0.46-0.37 0.15-0.75 0.31-1.11 0.49-0.51 0.27-0.95 0.5-1.07 0.88-0.04 0.15-0.03 0.31 0.04 0.46 0.23 0.43 0.65 0.58 1.09 0.4 0.62-0.27 1.12-0.28 1.56 0.56l4.09 7.79c0.43 0.83 0.24 1.19 0.03 1.4-0.17 0.16-0.6 0.58-0.33 1.12 0.34 0.62 0.96 0.29 1.27 0.13 0.36-0.19 0.7-0.41 1.03-0.63s0.64-0.42 0.97-0.6c0.35-0.18 0.72-0.33 1.08-0.47 0.33-0.13 0.64-0.26 0.92-0.4 0.51-0.26 0.94-0.49 1.06-0.87 0.04-0.15 0.03-0.31-0.05-0.46-0.22-0.44-0.64-0.59-1.07-0.4-0.01 0-1.08 0.41-1.59-0.56l-4.08-7.79c-0.34-0.64-0.45-1.02-0.12-1.34 0.01-0.02 0.04-0.04 0.06-0.05 0.21-0.2 0.7-0.65 0.43-1.16-0.11-0.22-0.27-0.31-0.39-0.35-0.07-0.02-0.15-0.03-0.22-0.03zm-8.06 3.87c-0.13 0.01-0.28 0.04-0.46 0.11-0.92 0.34-1.85 0.72-2.76 1.1-0.91 0.37-1.85 0.76-2.78 1.1-0.92 0.35-1.88 0.65-2.81 0.96-0.93 0.3-1.89 0.61-2.83 0.96-0.6 0.21-0.78 0.52-0.64 1.08l0.5 1.94c0.02 0.07 0.03 0.14 0.05 0.21 0.05 0.17 0.09 0.34 0.14 0.47 0.11 0.3 0.43 0.51 0.91 0.33 0.57-0.21 0.54-0.6 0.53-0.69-0.19-1.75 0.37-2.05 2.03-2.66 0.26-0.1 0.63-0.22 0.85-0.19 0.07 0.01 0.17 0.02 0.26 0.27l3.13 8.52c0.3 0.81-0.07 1.15-0.7 1.62-0.16 0.12-0.31 0.22-0.43 0.34-0.02 0.02-0.05 0.05-0.09 0.07-0.16 0.11-0.58 0.39-0.36 0.98 0.16 0.44 0.52 0.56 1.05 0.36 0.55-0.2 1.1-0.45 1.63-0.68 0.54-0.23 1.09-0.48 1.64-0.68 0.55-0.21 1.13-0.38 1.69-0.54 0.55-0.17 1.13-0.34 1.68-0.54 0.18-0.07 0.44-0.16 0.56-0.42 0.07-0.16 0.08-0.34 0-0.54-0.21-0.59-0.71-0.53-0.9-0.51-0.04 0-0.09 0.01-0.11 0.01-0.18-0.01-0.36 0-0.55 0.01-0.79 0.06-1.29 0.03-1.59-0.78l-3.13-8.51c-0.08-0.22-0.05-0.29-0.04-0.31 0.05-0.1 0.22-0.26 0.83-0.48 1.65-0.61 2.28-0.75 3.25 0.68 0.1 0.17 0.34 0.42 0.87 0.22 0.17-0.06 0.38-0.2 0.47-0.41 0.07-0.13 0.07-0.27 0.02-0.4-0.05-0.15-0.13-0.31-0.2-0.42 0 0-0.87-1.81-0.87-1.8-0.24-0.52-0.44-0.79-0.84-0.78zm-15.06 4.88c-0.09-0.01-0.19 0-0.3 0.02-0.16 0.03-0.31 0.14-0.48 0.26-0.08 0.06-0.22 0.16-0.27 0.17-0.17 0.04-0.46-0.01-0.8-0.06-0.64-0.1-1.51-0.24-2.58-0.02-1.16 0.23-2.15 0.89-2.79 1.85-0.61 0.93-0.83 2.08-0.61 3.15 0.66 3.22 3.33 3.6 5.47 3.9 1.74 0.24 2.82 0.45 3.03 1.48 0.1 0.5 0.02 0.98-0.24 1.36-0.29 0.45-0.8 0.77-1.44 0.9-1.69 0.35-3.21-0.76-4.07-1.91-0.03-0.04-0.07-0.09-0.11-0.15-0.18-0.3-0.49-0.79-1.06-0.67-0.26 0.05-0.45 0.16-0.56 0.33-0.09 0.14-0.12 0.32-0.09 0.49 0.04 0.18 0.13 0.36 0.21 0.52 0.03 0.05 0.06 0.11 0.08 0.15 0 0.01 1.22 2.53 1.22 2.55 0.23 0.43 0.7 0.42 0.92 0.41h0.08c0.36 0 0.73 0.02 1.08 0.03 0.83 0.04 1.68 0.07 2.58-0.11 1.29-0.27 2.34-0.95 3.03-2s0.96-2.39 0.72-3.57c-0.67-3.24-3.31-3.58-5.42-3.84-1.77-0.23-2.86-0.43-3.08-1.52-0.07-0.34-0.01-0.65 0.18-0.93 0.26-0.41 0.75-0.7 1.34-0.82 1.25-0.26 2.99 0.57 3.64 1.75l0.05 0.07c0.23 0.42 0.5 0.91 1.11 0.78 0.28-0.06 0.42-0.2 0.5-0.32s0.16-0.33 0.1-0.64c-0.02-0.08-0.07-0.21-0.17-0.53-0.22-0.63-0.59-1.68-0.72-2.46-0.04-0.17-0.11-0.39-0.31-0.53-0.07-0.04-0.15-0.07-0.24-0.09zm-30.55 0.76c-0.42-0.06-0.64 0.27-0.99 0.77l-7.146 10.47c-0.163 0.23-0.299 0.38-0.603 0.54-0.065 0.03-0.153 0.06-0.252 0.09-0.29 0.1-0.74 0.25-0.801 0.71-0.032 0.2 0.011 0.38 0.113 0.52 0.174 0.23 0.449 0.27 0.674 0.3 0.35 0.05 0.702 0.06 1.043 0.07 0.333 0.01 0.646 0.02 0.949 0.06 0.309 0.05 0.613 0.13 0.93 0.21 0.333 0.09 0.67 0.18 1.02 0.24 0.271 0.03 0.912 0.13 1.009-0.57 0.085-0.57-0.57-0.85-1.201-1.13l-0.193-0.08c-0.285-0.13-0.424-0.06-0.545-0.52-0.123-0.45 0.271-0.96 0.584-1.47 0.309-0.5 0.65-0.77 0.902-0.73l2.961 0.42c0.906 0.14 1.136 0.25 1.256 0.41 0.17 0.24 0.51 1.84 0.45 2.27-0.05 0.28-0.24 0.57-0.6 0.59h0.05c-0.51-0.04-0.92 0.25-0.98 0.69-0.02 0.15 0.02 0.31 0.11 0.44 0.09 0.12 0.26 0.26 0.57 0.31 0.49 0.07 0.98 0.1 1.45 0.13 0.45 0.02 0.88 0.05 1.27 0.1 0.41 0.06 0.82 0.16 1.26 0.26 0.46 0.11 0.94 0.22 1.43 0.29 0.27 0.04 0.89 0.13 0.99-0.57 0.08-0.57-0.39-0.79-0.85-0.99 0 0-0.11-0.05-0.11-0.06-0.41-0.18-0.58-0.77-0.75-1.4-0.03-0.14-0.08-0.29-0.12-0.43 0 0-3.3-11.21-3.31-11.22-0.13-0.4-0.28-0.68-0.57-0.72zm20.42 0.85c-0.3 0-0.61 0.02-0.9 0.05-0.29 0.02-0.57 0.04-0.85 0.05-0.28 0-0.56-0.01-0.85-0.03-0.3-0.01-0.61-0.03-0.91-0.02-0.36 0-0.71 0.04-0.93 0.26-0.11 0.13-0.18 0.29-0.17 0.46 0 0.48 0.4 0.82 1.01 0.84 0.82 0.04 1.21 0.44 1.22 1.27l0.08 4.99c0.01 0.88-0.12 2.52-1.15 3.59-0.66 0.67-1.57 1.02-2.74 1.04-1.05 0.01-1.98-0.31-2.64-0.93-0.64-0.63-0.99-1.51-1.01-2.56l-0.1-6.07c0-0.42 0.12-0.98 0.71-1.28 0.05-0.03 0.1-0.05 0.15-0.08 0.27-0.13 0.65-0.31 0.64-0.76 0-0.19-0.07-0.35-0.19-0.46-0.21-0.21-0.52-0.23-0.78-0.22-0.41 0-0.82 0.05-1.21 0.09-0.39 0.05-0.76 0.09-1.13 0.1-0.37 0-0.74-0.03-1.14-0.06-0.39-0.04-0.8-0.07-1.21-0.06-0.7 0.01-1.1 0.06-1.33 0.29-0.12 0.13-0.18 0.29-0.18 0.49 0.01 0.47 0.34 0.8 0.82 0.79 0.34-0.01 0.6 0.08 0.78 0.24 0.21 0.19 0.32 0.52 0.33 0.97l0.09 6.16c0.03 1.92 0.6 3.35 1.69 4.27 1.03 0.87 2.49 1.27 4.5 1.24 2.33-0.03 4.1-0.66 5.27-1.86 1.15-1.19 1.71-2.93 1.68-5.18l-0.06-4.16c-0.03-1.72 0.16-1.8 0.45-1.93 0.07-0.03 0.13-0.05 0.2-0.07 0.27-0.1 0.72-0.25 0.72-0.78-0.01-0.09-0.01-0.32-0.19-0.5-0.17-0.17-0.42-0.19-0.67-0.18zm-22.224 3.99l0.944 3.29-2.866-0.45 1.922-2.84z" fill="#bf5700" transform="translate(-.00062561)"/></g></svg>
